<svg width="1000" height="300" viewBox="0 0 1000 300" fill="none" xmlns="http://www.w3.org/2000/svg">
<rect width="1000" height="300" rx="15" fill="#1D1246"/>
<path d="M408.159 141.431L412.546 149.385L422.324 167.113H430.586L416.679 141.893L412.292 133.94L408.159 141.431Z" fill="#1FD6E3"/>
<path opacity="0.47" d="M408.159 141.431L412.546 149.385L422.324 167.113H430.586L416.679 141.893L412.292 133.94L408.159 141.431Z" fill="url(#paint0_linear)"/>
<path d="M394 167.114H402.774L412.547 149.386L416.681 141.894L412.294 133.942L408.16 141.433L394 167.114Z" fill="#6130EE"/>
<path d="M458.233 154.972C458.233 161.744 452.763 167.254 446.038 167.254C439.315 167.254 433.845 161.744 433.845 154.972L433.844 142.556H440.086V154.972C440.086 158.278 442.756 160.968 446.038 160.968C449.321 160.968 451.992 158.278 451.992 154.972V142.556H458.233V154.972Z" fill="#1FD6E3"/>
<path d="M474.962 142.155V148.506C472.416 148.506 470.345 150.592 470.345 153.157V166.972H464.039V153.157H464.039C464.039 147.09 468.939 142.155 474.962 142.155Z" fill="#1FD6E3"/>
<path d="M503.497 157.263C503.653 156.483 503.731 155.679 503.731 154.855C503.731 154.085 503.663 153.335 503.527 152.605C502.475 146.671 497.309 142.155 491.121 142.155C484.169 142.155 478.511 147.853 478.511 154.855C478.511 161.858 484.169 167.556 491.121 167.556C496.589 167.556 501.253 164.03 503.001 159.122H495.756C494.607 160.387 492.957 161.181 491.121 161.181C488.507 161.181 486.257 159.558 485.318 157.263H496.93H503.497ZM485.254 152.605C486.155 150.226 488.448 148.53 491.121 148.53C493.799 148.53 496.088 150.226 496.993 152.605H485.254Z" fill="#1FD6E3"/>
<path d="M544.713 167.113H538.375V133.94H544.713V167.113Z" fill="#1FD6E3"/>
<path d="M574.966 157.263C575.122 156.483 575.2 155.679 575.2 154.855C575.2 154.085 575.132 153.335 574.996 152.605C573.944 146.671 568.778 142.155 562.59 142.155C555.637 142.155 549.98 147.853 549.98 154.855C549.98 161.858 555.637 167.556 562.59 167.556C568.058 167.556 572.722 164.03 574.47 159.122H567.225C566.076 160.387 564.426 161.181 562.59 161.181C559.976 161.181 557.726 159.558 556.787 157.263H568.399H574.966ZM556.723 152.605C557.624 150.226 559.917 148.53 562.59 148.53C565.268 148.53 567.556 150.226 568.462 152.605H556.723Z" fill="#1FD6E3"/>
<path d="M520.45 167.874C513.344 167.874 507.562 162.025 507.562 154.835C507.562 147.645 513.344 141.796 520.45 141.796C527.557 141.796 533.339 147.645 533.339 154.835C533.339 162.025 527.557 167.874 520.45 167.874ZM520.45 148.341C516.911 148.341 514.032 151.254 514.032 154.835C514.032 158.416 516.911 161.329 520.45 161.329C523.989 161.329 526.869 158.416 526.869 154.835C526.869 151.254 523.989 148.341 520.45 148.341Z" fill="#1FD6E3"/>
<mask id="mask0" mask-type="alpha" maskUnits="userSpaceOnUse" x="454" y="62" width="62" height="62">
<path fill-rule="evenodd" clip-rule="evenodd" d="M485.276 123.081C502.08 123.081 515.702 109.408 515.702 92.5406C515.702 75.6735 502.08 62 485.276 62C468.473 62 454.851 75.6735 454.851 92.5406C454.851 109.408 468.473 123.081 485.276 123.081ZM484.962 106.163C492.631 106.163 498.847 99.9229 498.847 92.2256C498.847 84.5283 492.631 78.2884 484.962 78.2884C477.294 78.2884 471.078 84.5283 471.078 92.2256C471.078 99.9229 477.294 106.163 484.962 106.163Z" fill="#C4C4C4"/>
</mask>
<g mask="url(#mask0)">
<mask id="mask1" mask-type="alpha" maskUnits="userSpaceOnUse" x="454" y="62" width="62" height="62">
<ellipse rx="30.4254" ry="30.5406" transform="matrix(1 0 0 -1 485.276 92.5406)" fill="black"/>
</mask>
<g mask="url(#mask1)">
<path d="M507.25 98.2367C509.053 108.856 499.282 119.89 493.486 122.112L507.25 127.444L520.531 115.204L522.342 74.7253L497.953 61.1517L481.654 70.9683L464.872 81.7544C465.798 89.5512 472.478 102.721 472.478 93.6313C472.478 84.5419 479.239 80.3001 485.155 80.1789C491.072 80.0577 505.386 87.2558 507.25 98.2367Z" fill="#504444"/>
<path d="M507.25 98.2367C509.053 108.856 499.282 119.89 493.486 122.112L507.25 127.444L520.531 115.204L522.342 74.7253L497.953 61.1517L481.654 70.9683L464.872 81.7544C465.798 89.5512 472.478 102.721 472.478 93.6313C472.478 84.5419 479.239 80.3001 485.155 80.1789C491.072 80.0577 505.386 87.2558 507.25 98.2367Z" fill="url(#paint1_linear)"/>
<path opacity="0.1" d="M509.979 97.0404C510.721 111.477 495.944 124.634 487.858 126.678L505.4 135.962L525.053 121.753L533.817 68.098L503.38 46.1492L480.078 56.6508L455.978 68.3679C455.991 78.9044 462.847 97.5118 464.272 85.3991C465.697 73.2865 475.39 68.7042 483.309 69.4792C491.227 70.2541 509.212 82.1122 509.979 97.0404Z" fill="url(#paint2_linear)"/>
<path opacity="0.1" d="M512.394 90.4959C513.136 104.933 498.359 118.09 490.272 120.133L507.814 129.418L527.467 115.209L536.232 61.5535L505.795 39.6047L482.492 50.1063L458.392 61.8234C458.406 72.3599 465.261 90.9673 466.687 78.8547C468.112 66.742 477.805 62.1597 485.723 62.9347C493.642 63.7097 511.627 75.5677 512.394 90.4959Z" fill="url(#paint3_linear)"/>
<path d="M481.171 73.7557C468.494 83.6935 470.377 108.829 488.657 106.114C506.937 103.4 486.363 113.628 486.363 113.628L460.405 107.811L452.195 95.5704L448.572 64.5451L499.04 53.7589L511.597 68.6656L508.699 73.0286C504.514 66.6457 489.647 67.1115 481.171 73.7557Z" fill="#E9CBCB"/>
<path d="M481.171 73.7557C468.494 83.6935 470.377 108.829 488.657 106.114C506.937 103.4 486.363 113.628 486.363 113.628L460.405 107.811L452.195 95.5704L448.572 64.5451L499.04 53.7589L511.597 68.6656L508.699 73.0286C504.514 66.6457 489.647 67.1115 481.171 73.7557Z" fill="url(#paint4_linear)"/>
<g opacity="0.1" filter="url(#filter0_d)">
<path d="M486.509 70.3031C467.193 76.2847 454.978 100.787 478.476 110.745C501.974 120.703 474.845 119.462 474.845 119.462L446.95 100.979L442.76 82.918L452.326 44.8544L516.403 54.8378L524.509 77.9808L519.163 81.8046C517.091 72.4297 499.423 66.3039 486.509 70.3031Z" fill="url(#paint5_linear)"/>
</g>
<g opacity="0.1" filter="url(#filter1_d)">
<path d="M476.607 69.4233C457.176 78.5172 447.896 106.024 474.035 113.057C500.174 120.09 471.484 122.738 471.484 122.738L439.487 107.394L432.463 89.0407L436.991 47.681L505.777 48.831L517.655 71.9502L512.592 76.7437C509.054 67.202 489.597 63.3433 476.607 69.4233Z" fill="url(#paint6_linear)"/>
</g>
<path d="M507.009 96.0552C511.587 111.641 498.839 120.253 492.4 122.475L494.694 134.716L471.029 128.535L440.604 115.325L436.861 77.1491C441.127 76.3815 450.625 78.0944 454.489 91.0863C459.318 107.326 485.276 110.598 494.09 103.084C502.904 95.5704 497.736 79.7911 490.009 81.003C482.282 82.2149 485.035 78.6034 485.035 78.6034C492.359 76.7855 504.232 86.6021 507.009 96.0552Z" fill="url(#paint7_linear)"/>
<path opacity="0.15" d="M507.612 98.7216C509.423 115.534 495.941 121.465 489.502 123.687L496.263 135.234L472.599 129.053L442.174 115.843L438.431 77.6672C442.697 76.8996 445.554 85.7297 449.418 98.7216C454.247 114.961 481.008 125.522 492.279 112.053C499.541 103.374 501.817 81.8757 494.09 83.0877C486.363 84.2996 486.604 79.1215 486.604 79.1215C493.929 77.3036 506.557 88.9232 507.612 98.7216Z" fill="url(#paint8_linear)"/>
</g>
</g>
<g opacity="0.7">
<path d="M252.093 199.055C250.699 199.055 249.596 199.518 248.786 200.445C247.982 201.366 247.58 202.629 247.58 204.235C247.58 205.887 247.967 207.164 248.743 208.068C249.524 208.966 250.635 209.415 252.076 209.415C252.961 209.415 253.971 209.257 255.105 208.94V210.226C254.225 210.554 253.141 210.718 251.85 210.718C249.981 210.718 248.537 210.154 247.519 209.026C246.506 207.898 246 206.295 246 204.218C246 202.917 246.243 201.777 246.729 200.799C247.221 199.82 247.927 199.066 248.847 198.537C249.773 198.007 250.861 197.742 252.111 197.742C253.441 197.742 254.604 197.984 255.6 198.468L254.975 199.728C254.014 199.279 253.054 199.055 252.093 199.055Z" fill="#56CCF2"/>
<path d="M263.507 210.546L263.221 209.199H263.151C262.677 209.792 262.202 210.195 261.728 210.408C261.259 210.615 260.672 210.718 259.966 210.718C259.022 210.718 258.282 210.477 257.744 209.993C257.211 209.51 256.945 208.822 256.945 207.93C256.945 206.019 258.481 205.018 261.554 204.925L263.168 204.874V204.287C263.168 203.544 263.006 202.997 262.682 202.646C262.364 202.289 261.852 202.111 261.146 202.111C260.353 202.111 259.456 202.353 258.455 202.836L258.013 201.74C258.481 201.486 258.994 201.288 259.549 201.144C260.11 201 260.672 200.928 261.233 200.928C262.367 200.928 263.206 201.179 263.75 201.679C264.3 202.18 264.575 202.983 264.575 204.088V210.546H263.507ZM260.252 209.536C261.149 209.536 261.852 209.291 262.361 208.802C262.876 208.313 263.134 207.628 263.134 206.747V205.892L261.693 205.953C260.547 205.993 259.72 206.172 259.211 206.488C258.707 206.799 258.455 207.285 258.455 207.947C258.455 208.465 258.612 208.859 258.924 209.13C259.242 209.4 259.685 209.536 260.252 209.536Z" fill="#56CCF2"/>
<path d="M272.49 209.164L272.76 208.362L273.133 207.343L275.711 201.101H277.542V210.546H276.266V202.733L276.093 203.233L275.589 204.554L273.133 210.546H271.926L269.47 204.537C269.163 203.766 268.952 203.164 268.836 202.733V210.546H267.552V201.101H269.314L271.805 207.101C272.054 207.734 272.282 208.422 272.49 209.164Z" fill="#56CCF2"/>
<path d="M282.064 204.995H284.659C285.869 204.995 286.763 205.219 287.341 205.668C287.926 206.111 288.218 206.776 288.218 207.662C288.218 208.612 287.909 209.331 287.289 209.821C286.676 210.304 285.77 210.546 284.573 210.546H280.623V201.084H282.064V204.995ZM291.256 210.546H289.815V201.084H291.256V210.546ZM282.064 206.229V209.346H284.503C286.031 209.346 286.795 208.813 286.795 207.749C286.795 207.219 286.618 206.833 286.265 206.592C285.912 206.35 285.31 206.229 284.46 206.229H282.064Z" fill="#56CCF2"/>
<path d="M295.674 201.084V207.084L295.613 208.655L295.587 209.147L300.734 201.084H302.531V210.546H301.186V204.761L301.212 203.622L301.255 202.499L296.117 210.546H294.32V201.084H295.674ZM298.391 199.832C297.32 199.832 296.539 199.627 296.047 199.219C295.555 198.804 295.28 198.125 295.223 197.181H296.577C296.629 197.78 296.785 198.197 297.045 198.433C297.312 198.669 297.772 198.787 298.425 198.787C299.021 198.787 299.461 198.66 299.745 198.407C300.034 198.154 300.211 197.745 300.274 197.181H301.637C301.567 198.091 301.275 198.761 300.76 199.193C300.245 199.619 299.455 199.832 298.391 199.832Z" fill="#56CCF2"/>
<path d="M315.932 202.31H311.645V210.546H310.204V201.084H315.932V202.31Z" fill="#56CCF2"/>
<path d="M319.179 201.084V207.084L319.118 208.655L319.092 209.147L324.239 201.084H326.036V210.546H324.69V204.761L324.716 203.622L324.76 202.499L319.621 210.546H317.825V201.084H319.179Z" fill="#56CCF2"/>
<path d="M328.596 204.874C328.596 202.802 328.903 201.187 329.516 200.03C330.129 198.868 331.102 198.142 332.432 197.855C334.087 197.504 335.546 197.219 336.807 197L337.076 198.26C335.068 198.594 333.633 198.859 332.771 199.055C331.932 199.245 331.301 199.694 330.879 200.402C330.462 201.109 330.234 202.074 330.193 203.294H330.297C330.656 202.81 331.119 202.43 331.686 202.154C332.253 201.878 332.846 201.74 333.465 201.74C334.634 201.74 335.546 202.117 336.199 202.871C336.853 203.625 337.18 204.669 337.18 206.005C337.18 207.484 336.801 208.641 336.043 209.475C335.285 210.304 334.229 210.718 332.875 210.718C331.538 210.718 330.491 210.209 329.733 209.19C328.975 208.172 328.596 206.733 328.596 204.874ZM333.005 209.518C334.77 209.518 335.653 208.399 335.653 206.16C335.653 204.025 334.851 202.957 333.248 202.957C332.809 202.957 332.383 203.049 331.972 203.233C331.567 203.412 331.194 203.651 330.853 203.95C330.517 204.249 330.257 204.557 330.072 204.874C330.072 206.387 330.312 207.541 330.792 208.336C331.272 209.124 332.01 209.518 333.005 209.518Z" fill="#56CCF2"/>
<path d="M345.244 201.084H346.823L342.718 205.651L347.162 210.546H345.478L341.138 205.754V210.546H339.697V201.084H341.138V205.685L345.244 201.084Z" fill="#56CCF2"/>
<path d="M350.287 201.084V207.084L350.226 208.655L350.2 209.147L355.347 201.084H357.144V210.546H355.798V204.761L355.824 203.622L355.868 202.499L350.729 210.546H348.933V201.084H350.287Z" fill="#56CCF2"/>
<path d="M361.553 201.084V207.084L361.492 208.655L361.466 209.147L366.613 201.084H368.41V210.546H367.065V204.761L367.091 203.622L367.134 202.499L361.996 210.546H360.199V201.084H361.553ZM364.27 199.832C363.199 199.832 362.418 199.627 361.926 199.219C361.434 198.804 361.159 198.125 361.102 197.181H362.456C362.508 197.78 362.664 198.197 362.924 198.433C363.19 198.669 363.651 198.787 364.304 198.787C364.9 198.787 365.34 198.66 365.624 198.407C365.913 198.154 366.09 197.745 366.153 197.181H367.516C367.446 198.091 367.154 198.761 366.639 199.193C366.124 199.619 365.334 199.832 364.27 199.832Z" fill="#56CCF2"/>
<path d="M377.437 201.084V207.084L377.376 208.655L377.35 209.147L382.497 201.084H384.294V210.546H382.948V204.761L382.974 203.622L383.018 202.499L377.879 210.546H376.083V201.084H377.437Z" fill="#56CCF2"/>
<path d="M395.768 210.718C394.391 210.718 393.324 210.298 392.565 209.458C391.813 208.612 391.437 207.418 391.437 205.875C391.437 204.292 391.819 203.069 392.583 202.206C393.352 201.343 394.446 200.911 395.864 200.911C396.321 200.911 396.778 200.96 397.235 201.058C397.692 201.156 398.051 201.271 398.311 201.403L397.869 202.62C397.551 202.494 397.203 202.39 396.827 202.31C396.451 202.223 396.118 202.18 395.829 202.18C393.896 202.18 392.93 203.406 392.93 205.858C392.93 207.02 393.164 207.913 393.633 208.534C394.108 209.156 394.808 209.467 395.734 209.467C396.526 209.467 397.339 209.297 398.173 208.957V210.226C397.536 210.554 396.735 210.718 395.768 210.718Z" fill="#56CCF2"/>
<path d="M408.649 205.806C408.649 207.349 408.258 208.554 407.477 209.423C406.696 210.287 405.617 210.718 404.24 210.718C403.389 210.718 402.634 210.52 401.974 210.123C401.315 209.726 400.805 209.156 400.447 208.413C400.088 207.671 399.909 206.802 399.909 205.806C399.909 204.264 400.296 203.064 401.072 202.206C401.847 201.343 402.923 200.911 404.3 200.911C405.631 200.911 406.687 201.351 407.469 202.232C408.256 203.112 408.649 204.304 408.649 205.806ZM401.401 205.806C401.401 207.015 401.644 207.936 402.131 208.569C402.617 209.202 403.331 209.518 404.274 209.518C405.218 209.518 405.932 209.205 406.418 208.577C406.91 207.944 407.156 207.02 407.156 205.806C407.156 204.603 406.91 203.691 406.418 203.069C405.932 202.442 405.212 202.128 404.257 202.128C403.314 202.128 402.602 202.436 402.122 203.052C401.642 203.668 401.401 204.586 401.401 205.806Z" fill="#56CCF2"/>
<path d="M418.9 203.458C418.9 204.074 418.72 204.543 418.362 204.865C418.009 205.182 417.511 205.395 416.869 205.504V205.582C417.679 205.691 418.269 205.927 418.639 206.29C419.015 206.652 419.204 207.153 419.204 207.792C419.204 208.672 418.877 209.352 418.223 209.829C417.575 210.307 416.626 210.546 415.376 210.546H411.183V201.084H415.358C417.719 201.084 418.9 201.875 418.9 203.458ZM417.763 207.697C417.763 207.185 417.566 206.813 417.172 206.583C416.785 206.347 416.14 206.229 415.237 206.229H412.624V209.346H415.272C416.932 209.346 417.763 208.796 417.763 207.697ZM417.494 203.596C417.494 203.135 417.314 202.81 416.955 202.62C416.602 202.425 416.064 202.327 415.341 202.327H412.624V204.995H415.063C415.954 204.995 416.582 204.885 416.947 204.666C417.311 204.448 417.494 204.091 417.494 203.596Z" fill="#56CCF2"/>
<path d="M425.731 210.718C425.111 210.718 424.544 210.606 424.029 210.382C423.52 210.152 423.092 209.8 422.745 209.328H422.641C422.71 209.881 422.745 210.405 422.745 210.9V214.793H421.304V201.084H422.476L422.675 202.379H422.745C423.115 201.861 423.546 201.486 424.038 201.256C424.53 201.026 425.094 200.911 425.731 200.911C426.992 200.911 427.964 201.34 428.647 202.197C429.336 203.055 429.68 204.258 429.68 205.806C429.68 207.36 429.33 208.569 428.63 209.432C427.935 210.29 426.969 210.718 425.731 210.718ZM425.522 202.128C424.55 202.128 423.847 202.396 423.413 202.931C422.979 203.466 422.756 204.318 422.745 205.487V205.806C422.745 207.136 422.968 208.088 423.413 208.664C423.859 209.234 424.573 209.518 425.557 209.518C426.379 209.518 427.021 209.187 427.484 208.526C427.953 207.864 428.187 206.951 428.187 205.789C428.187 204.609 427.953 203.705 427.484 203.078C427.021 202.445 426.367 202.128 425.522 202.128Z" fill="#56CCF2"/>
<path d="M436.224 210.718C434.818 210.718 433.707 210.293 432.891 209.441C432.081 208.589 431.676 207.406 431.676 205.892C431.676 204.367 432.052 203.156 432.805 202.258C433.563 201.36 434.578 200.911 435.851 200.911C437.043 200.911 437.986 201.302 438.681 202.085C439.375 202.862 439.722 203.889 439.722 205.167V206.074H433.169C433.198 207.185 433.479 208.028 434.011 208.603C434.549 209.179 435.304 209.467 436.276 209.467C437.301 209.467 438.313 209.254 439.314 208.828V210.105C438.805 210.324 438.322 210.48 437.865 210.572C437.414 210.67 436.867 210.718 436.224 210.718ZM435.834 202.111C435.07 202.111 434.46 202.358 434.002 202.853C433.551 203.348 433.285 204.033 433.204 204.908H438.177C438.177 204.005 437.975 203.314 437.57 202.836C437.165 202.353 436.586 202.111 435.834 202.111Z" fill="#56CCF2"/>
<path d="M447.126 209.164L447.395 208.362L447.768 207.343L450.346 201.101H452.178V210.546H450.902V202.733L450.728 203.233L450.225 204.554L447.768 210.546H446.562L444.106 204.537C443.799 203.766 443.588 203.164 443.472 202.733V210.546H442.187V201.101H443.949L446.44 207.101C446.689 207.734 446.918 208.422 447.126 209.164Z" fill="#56CCF2"/>
<path d="M459.278 210.718C457.872 210.718 456.761 210.293 455.945 209.441C455.135 208.589 454.73 207.406 454.73 205.892C454.73 204.367 455.106 203.156 455.858 202.258C456.616 201.36 457.631 200.911 458.904 200.911C460.096 200.911 461.04 201.302 461.734 202.085C462.428 202.862 462.776 203.889 462.776 205.167V206.074H456.222C456.251 207.185 456.532 208.028 457.064 208.603C457.603 209.179 458.358 209.467 459.33 209.467C460.354 209.467 461.367 209.254 462.368 208.828V210.105C461.858 210.324 461.375 210.48 460.918 210.572C460.467 210.67 459.92 210.718 459.278 210.718ZM458.887 202.111C458.123 202.111 457.513 202.358 457.056 202.853C456.604 203.348 456.338 204.033 456.257 204.908H461.231C461.231 204.005 461.028 203.314 460.623 202.836C460.218 202.353 459.639 202.111 458.887 202.111Z" fill="#56CCF2"/>
<path d="M466.681 201.084V205.046H472.011V201.084H473.452V210.546H472.011V206.281H466.681V210.546H465.241V201.084H466.681Z" fill="#56CCF2"/>
<path d="M477.948 201.084V205.046H483.277V201.084H484.718V210.546H483.277V206.281H477.948V210.546H476.507V201.084H477.948Z" fill="#56CCF2"/>
<path d="M489.214 204.995H491.809C493.019 204.995 493.913 205.219 494.491 205.668C495.076 206.111 495.368 206.776 495.368 207.662C495.368 208.612 495.058 209.331 494.439 209.821C493.826 210.304 492.92 210.546 491.722 210.546H487.773V201.084H489.214V204.995ZM498.406 210.546H496.965V201.084H498.406V210.546ZM489.214 206.229V209.346H491.653C493.181 209.346 493.944 208.813 493.944 207.749C493.944 207.219 493.768 206.833 493.415 206.592C493.062 206.35 492.46 206.229 491.61 206.229H489.214Z" fill="#56CCF2"/>
<path d="M502.824 201.084V207.084L502.763 208.655L502.737 209.147L507.884 201.084H509.681V210.546H508.335V204.761L508.361 203.622L508.405 202.499L503.266 210.546H501.47V201.084H502.824ZM505.541 199.832C504.47 199.832 503.689 199.627 503.197 199.219C502.705 198.804 502.43 198.125 502.372 197.181H503.726C503.779 197.78 503.935 198.197 504.195 198.433C504.461 198.669 504.921 198.787 505.575 198.787C506.171 198.787 506.611 198.66 506.895 198.407C507.184 198.154 507.36 197.745 507.424 197.181H508.787C508.717 198.091 508.425 198.761 507.91 199.193C507.395 199.619 506.605 199.832 505.541 199.832Z" fill="#56CCF2"/>
<path d="M521.155 210.718C519.778 210.718 518.711 210.298 517.953 209.458C517.2 208.612 516.824 207.418 516.824 205.875C516.824 204.292 517.206 203.069 517.97 202.206C518.739 201.343 519.833 200.911 521.251 200.911C521.708 200.911 522.165 200.96 522.622 201.058C523.079 201.156 523.438 201.271 523.698 201.403L523.256 202.62C522.938 202.494 522.59 202.39 522.214 202.31C521.838 202.223 521.505 202.18 521.216 202.18C519.283 202.18 518.317 203.406 518.317 205.858C518.317 207.02 518.551 207.913 519.02 208.534C519.495 209.156 520.195 209.467 521.121 209.467C521.913 209.467 522.726 209.297 523.56 208.957V210.226C522.923 210.554 522.122 210.718 521.155 210.718Z" fill="#56CCF2"/>
<path d="M529.844 210.718C528.438 210.718 527.327 210.293 526.511 209.441C525.701 208.589 525.296 207.406 525.296 205.892C525.296 204.367 525.672 203.156 526.424 202.258C527.182 201.36 528.197 200.911 529.47 200.911C530.662 200.911 531.606 201.302 532.3 202.085C532.994 202.862 533.342 203.889 533.342 205.167V206.074H526.788C526.817 207.185 527.098 208.028 527.63 208.603C528.169 209.179 528.924 209.467 529.896 209.467C530.92 209.467 531.933 209.254 532.934 208.828V210.105C532.424 210.324 531.941 210.48 531.484 210.572C531.033 210.67 530.486 210.718 529.844 210.718ZM529.453 202.111C528.689 202.111 528.079 202.358 527.622 202.853C527.17 203.348 526.904 204.033 526.823 204.908H531.797C531.797 204.005 531.594 203.314 531.189 202.836C530.784 202.353 530.205 202.111 529.453 202.111Z" fill="#56CCF2"/>
<path d="M540.233 210.718C539.614 210.718 539.047 210.606 538.532 210.382C538.023 210.152 537.595 209.8 537.247 209.328H537.143C537.213 209.881 537.247 210.405 537.247 210.9V214.793H535.807V201.084H536.978L537.178 202.379H537.247C537.618 201.861 538.049 201.486 538.541 201.256C539.033 201.026 539.597 200.911 540.233 200.911C541.495 200.911 542.467 201.34 543.15 202.197C543.838 203.055 544.183 204.258 544.183 205.806C544.183 207.36 543.832 208.569 543.132 209.432C542.438 210.29 541.472 210.718 540.233 210.718ZM540.025 202.128C539.053 202.128 538.35 202.396 537.916 202.931C537.482 203.466 537.259 204.318 537.247 205.487V205.806C537.247 207.136 537.47 208.088 537.916 208.664C538.361 209.234 539.076 209.518 540.06 209.518C540.881 209.518 541.524 209.187 541.987 208.526C542.455 207.864 542.69 206.951 542.69 205.789C542.69 204.609 542.455 203.705 541.987 203.078C541.524 202.445 540.87 202.128 540.025 202.128Z" fill="#56CCF2"/>
<path d="M554.425 203.458C554.425 204.074 554.245 204.543 553.886 204.865C553.534 205.182 553.036 205.395 552.394 205.504V205.582C553.204 205.691 553.794 205.927 554.164 206.29C554.54 206.652 554.728 207.153 554.728 207.792C554.728 208.672 554.401 209.352 553.748 209.829C553.1 210.307 552.151 210.546 550.901 210.546H546.708V201.084H550.883C553.244 201.084 554.425 201.875 554.425 203.458ZM553.288 207.697C553.288 207.185 553.091 206.813 552.697 206.583C552.31 206.347 551.664 206.229 550.762 206.229H548.149V209.346H550.797C552.457 209.346 553.288 208.796 553.288 207.697ZM553.019 203.596C553.019 203.135 552.839 202.81 552.48 202.62C552.127 202.425 551.589 202.327 550.866 202.327H548.149V204.995H550.588C551.479 204.995 552.107 204.885 552.472 204.666C552.836 204.448 553.019 204.091 553.019 203.596Z" fill="#56CCF2"/>
<path d="M560.848 210.718C559.441 210.718 558.33 210.293 557.515 209.441C556.704 208.589 556.299 207.406 556.299 205.892C556.299 204.367 556.676 203.156 557.428 202.258C558.186 201.36 559.201 200.911 560.474 200.911C561.666 200.911 562.61 201.302 563.304 202.085C563.998 202.862 564.346 203.889 564.346 205.167V206.074H557.792C557.821 207.185 558.102 208.028 558.634 208.603C559.172 209.179 559.928 209.467 560.9 209.467C561.924 209.467 562.937 209.254 563.938 208.828V210.105C563.428 210.324 562.945 210.48 562.488 210.572C562.037 210.67 561.49 210.718 560.848 210.718ZM560.457 202.111C559.693 202.111 559.083 202.358 558.626 202.853C558.174 203.348 557.908 204.033 557.827 204.908H562.801C562.801 204.005 562.598 203.314 562.193 202.836C561.788 202.353 561.209 202.111 560.457 202.111Z" fill="#56CCF2"/>
<path d="M571.237 210.718C570.618 210.718 570.051 210.606 569.536 210.382C569.027 210.152 568.599 209.8 568.251 209.328H568.147C568.217 209.881 568.251 210.405 568.251 210.9V214.793H566.811V201.084H567.982L568.182 202.379H568.251C568.622 201.861 569.053 201.486 569.545 201.256C570.037 201.026 570.601 200.911 571.237 200.911C572.499 200.911 573.471 201.34 574.154 202.197C574.842 203.055 575.186 204.258 575.186 205.806C575.186 207.36 574.836 208.569 574.136 209.432C573.442 210.29 572.476 210.718 571.237 210.718ZM571.029 202.128C570.057 202.128 569.354 202.396 568.92 202.931C568.486 203.466 568.263 204.318 568.251 205.487V205.806C568.251 207.136 568.474 208.088 568.92 208.664C569.365 209.234 570.08 209.518 571.064 209.518C571.885 209.518 572.528 209.187 572.991 208.526C573.459 207.864 573.694 206.951 573.694 205.789C573.694 204.609 573.459 203.705 572.991 203.078C572.528 202.445 571.874 202.128 571.029 202.128Z" fill="#56CCF2"/>
<path d="M588.18 210.546L587.894 209.199H587.824C587.35 209.792 586.875 210.195 586.401 210.408C585.932 210.615 585.345 210.718 584.639 210.718C583.695 210.718 582.955 210.477 582.417 209.993C581.884 209.51 581.618 208.822 581.618 207.93C581.618 206.019 583.154 205.018 586.227 204.925L587.841 204.874V204.287C587.841 203.544 587.679 202.997 587.355 202.646C587.037 202.289 586.525 202.111 585.819 202.111C585.026 202.111 584.129 202.353 583.128 202.836L582.686 201.74C583.154 201.486 583.667 201.288 584.222 201.144C584.783 201 585.345 200.928 585.906 200.928C587.04 200.928 587.879 201.179 588.423 201.679C588.973 202.18 589.248 202.983 589.248 204.088V210.546H588.18ZM584.925 209.536C585.822 209.536 586.525 209.291 587.034 208.802C587.549 208.313 587.807 207.628 587.807 206.747V205.892L586.366 205.953C585.22 205.993 584.393 206.172 583.884 206.488C583.38 206.799 583.128 207.285 583.128 207.947C583.128 208.465 583.285 208.859 583.597 209.13C583.915 209.4 584.358 209.536 584.925 209.536Z" fill="#56CCF2"/>
<path d="M590.714 201.084H592.259L594.343 206.479C594.8 207.711 595.083 208.6 595.193 209.147H595.263C595.338 208.854 595.494 208.353 595.731 207.645C595.974 206.931 596.761 204.744 598.092 201.084H599.637L595.549 211.858C595.144 212.923 594.67 213.677 594.126 214.12C593.587 214.569 592.925 214.793 592.138 214.793C591.698 214.793 591.264 214.745 590.836 214.647V213.498C591.154 213.567 591.51 213.602 591.904 213.602C592.893 213.602 593.599 213.049 594.021 211.944L594.551 210.598L590.714 201.084Z" fill="#56CCF2"/>
<path d="M607.596 202.31H604.507V210.546H603.066V202.31H600.01V201.084H607.596V202.31Z" fill="#56CCF2"/>
<path d="M613.499 210.718C612.093 210.718 610.982 210.293 610.166 209.441C609.356 208.589 608.951 207.406 608.951 205.892C608.951 204.367 609.327 203.156 610.079 202.258C610.837 201.36 611.852 200.911 613.125 200.911C614.317 200.911 615.261 201.302 615.955 202.085C616.649 202.862 616.997 203.889 616.997 205.167V206.074H610.443C610.472 207.185 610.753 208.028 611.285 208.603C611.824 209.179 612.579 209.467 613.551 209.467C614.575 209.467 615.588 209.254 616.589 208.828V210.105C616.079 210.324 615.596 210.48 615.139 210.572C614.688 210.67 614.141 210.718 613.499 210.718ZM613.108 202.111C612.344 202.111 611.734 202.358 611.277 202.853C610.825 203.348 610.559 204.033 610.478 204.908H615.452C615.452 204.005 615.249 203.314 614.844 202.836C614.439 202.353 613.86 202.111 613.108 202.111Z" fill="#56CCF2"/>
<path d="M620.902 201.084V205.046H626.232V201.084H627.673V210.546H626.232V206.281H620.902V210.546H619.462V201.084H620.902Z" fill="#56CCF2"/>
<path d="M637.142 202.31H634.052V210.546H632.611V202.31H629.556V201.084H637.142V202.31Z" fill="#56CCF2"/>
<path d="M640.38 201.084V207.084L640.319 208.655L640.293 209.147L645.44 201.084H647.237V210.546H645.891V204.761L645.917 203.622L645.961 202.499L640.822 210.546H639.026V201.084H640.38Z" fill="#56CCF2"/>
<path d="M660.482 205.806C660.482 207.239 660.071 208.382 659.249 209.234C658.434 210.08 657.291 210.563 655.821 210.684V214.793H654.397V210.684C652.962 210.575 651.828 210.085 650.995 209.216C650.162 208.347 649.745 207.21 649.745 205.806C649.745 204.373 650.159 203.233 650.986 202.387C651.82 201.541 652.974 201.061 654.45 200.945V197.112H655.821V200.945C657.273 201.078 658.413 201.576 659.241 202.439C660.068 203.302 660.482 204.425 660.482 205.806ZM651.255 205.806C651.255 206.911 651.51 207.777 652.019 208.405C652.528 209.032 653.339 209.398 654.45 209.501V202.146C653.379 202.243 652.578 202.592 652.045 203.19C651.519 203.783 651.255 204.655 651.255 205.806ZM658.989 205.806C658.989 203.602 657.933 202.387 655.821 202.163V209.501C656.92 209.392 657.722 209.023 658.225 208.396C658.734 207.769 658.989 206.905 658.989 205.806Z" fill="#56CCF2"/>
<path d="M664.353 201.084V207.084L664.292 208.655L664.266 209.147L669.413 201.084H671.21V210.546H669.865V204.761L669.891 203.622L669.934 202.499L664.796 210.546H662.999V201.084H664.353Z" fill="#56CCF2"/>
<path d="M679.812 201.084H681.391L677.286 205.651L681.73 210.546H680.046L675.706 205.754V210.546H674.265V201.084H675.706V205.685L679.812 201.084Z" fill="#56CCF2"/>
<path d="M689.351 210.546L689.064 209.199H688.995C688.52 209.792 688.046 210.195 687.571 210.408C687.103 210.615 686.515 210.718 685.809 210.718C684.866 210.718 684.125 210.477 683.587 209.993C683.055 209.51 682.789 208.822 682.789 207.93C682.789 206.019 684.325 205.018 687.398 204.925L689.012 204.874V204.287C689.012 203.544 688.85 202.997 688.526 202.646C688.208 202.289 687.696 202.111 686.99 202.111C686.197 202.111 685.3 202.353 684.299 202.836L683.856 201.74C684.325 201.486 684.837 201.288 685.393 201.144C685.954 201 686.515 200.928 687.077 200.928C688.211 200.928 689.05 201.179 689.594 201.679C690.143 202.18 690.418 202.983 690.418 204.088V210.546H689.351ZM686.096 209.536C686.993 209.536 687.696 209.291 688.205 208.802C688.72 208.313 688.977 207.628 688.977 206.747V205.892L687.537 205.953C686.391 205.993 685.563 206.172 685.054 206.488C684.551 206.799 684.299 207.285 684.299 207.947C684.299 208.465 684.455 208.859 684.768 209.13C685.086 209.4 685.529 209.536 686.096 209.536Z" fill="#56CCF2"/>
<path d="M702.674 213.818H701.233V210.546H693.395V201.084H694.836V209.311H699.888V201.084H701.329V209.311H702.674V213.818Z" fill="#56CCF2"/>
<path d="M705.877 201.084V207.084L705.816 208.655L705.79 209.147L710.937 201.084H712.734V210.546H711.388V204.761L711.414 203.622L711.458 202.499L706.319 210.546H704.523V201.084H705.877Z" fill="#56CCF2"/>
<path d="M717.143 201.084V207.084L717.082 208.655L717.056 209.147L722.203 201.084H724V210.546H722.655V204.761L722.681 203.622L722.724 202.499L717.586 210.546H715.789V201.084H717.143Z" fill="#56CCF2"/>
<path d="M364.365 233.925C362.988 233.925 361.92 233.505 361.162 232.665C360.41 231.818 360.034 230.624 360.034 229.082C360.034 227.499 360.416 226.276 361.18 225.413C361.949 224.549 363.043 224.117 364.461 224.117C364.918 224.117 365.375 224.166 365.832 224.264C366.289 224.362 366.648 224.477 366.908 224.61L366.466 225.827C366.147 225.7 365.8 225.597 365.424 225.516C365.048 225.43 364.715 225.387 364.426 225.387C362.493 225.387 361.527 226.613 361.527 229.064C361.527 230.227 361.761 231.119 362.23 231.741C362.704 232.362 363.405 232.673 364.33 232.673C365.123 232.673 365.936 232.503 366.769 232.164V233.433C366.133 233.761 365.331 233.925 364.365 233.925Z" fill="#56CCF2"/>
<path d="M381.863 229.013C381.863 230.555 381.473 231.761 380.692 232.63C379.91 233.493 378.831 233.925 377.454 233.925C376.604 233.925 375.848 233.726 375.189 233.329C374.529 232.932 374.02 232.362 373.661 231.62C373.302 230.877 373.123 230.008 373.123 229.013C373.123 227.47 373.511 226.27 374.286 225.413C375.061 224.549 376.138 224.117 377.515 224.117C378.846 224.117 379.902 224.558 380.683 225.438C381.47 226.319 381.863 227.51 381.863 229.013ZM374.616 229.013C374.616 230.221 374.859 231.142 375.345 231.775C375.831 232.408 376.546 232.725 377.489 232.725C378.432 232.725 379.147 232.411 379.633 231.784C380.125 231.151 380.371 230.227 380.371 229.013C380.371 227.81 380.125 226.897 379.633 226.276C379.147 225.648 378.426 225.335 377.471 225.335C376.528 225.335 375.817 225.643 375.336 226.259C374.856 226.874 374.616 227.792 374.616 229.013Z" fill="#56CCF2"/>
<path d="M390.812 225.516H387.722V233.752H386.281V225.516H383.226V224.29H390.812V225.516Z" fill="#56CCF2"/>
<path d="M398.242 224.29H399.822L395.716 228.857L400.16 233.752H398.476L394.137 228.961V233.752H392.696V224.29H394.137V228.892L398.242 224.29Z" fill="#56CCF2"/>
<path d="M406.358 233.925C405.738 233.925 405.171 233.813 404.656 233.588C404.147 233.358 403.719 233.007 403.372 232.535H403.268C403.337 233.088 403.372 233.611 403.372 234.106V238H401.931V224.29H403.103L403.302 225.585H403.372C403.742 225.067 404.173 224.693 404.665 224.463C405.157 224.233 405.721 224.117 406.358 224.117C407.619 224.117 408.591 224.546 409.274 225.404C409.963 226.261 410.307 227.464 410.307 229.013C410.307 230.567 409.957 231.775 409.257 232.639C408.562 233.496 407.596 233.925 406.358 233.925ZM406.149 225.335C405.177 225.335 404.474 225.602 404.04 226.138C403.606 226.673 403.383 227.525 403.372 228.693V229.013C403.372 230.342 403.595 231.295 404.04 231.87C404.486 232.44 405.2 232.725 406.184 232.725C407.006 232.725 407.648 232.394 408.111 231.732C408.58 231.07 408.814 230.158 408.814 228.995C408.814 227.815 408.58 226.912 408.111 226.284C407.648 225.651 406.994 225.335 406.149 225.335Z" fill="#56CCF2"/>
<path d="M414.273 228.201H416.869C418.078 228.201 418.972 228.426 419.551 228.875C420.135 229.318 420.427 229.982 420.427 230.869C420.427 231.818 420.118 232.538 419.499 233.027C418.885 233.511 417.98 233.752 416.782 233.752H412.833V224.29H414.273V228.201ZM423.465 233.752H422.024V224.29H423.465V233.752ZM414.273 229.436V232.552H416.712C418.24 232.552 419.004 232.02 419.004 230.955C419.004 230.426 418.827 230.04 418.474 229.798C418.121 229.557 417.52 229.436 416.669 229.436H414.273Z" fill="#56CCF2"/>
<path d="M432.943 225.516H429.854V233.752H428.413V225.516H425.357V224.29H432.943V225.516Z" fill="#56CCF2"/>
<path d="M436.268 228.201H438.863C440.072 228.201 440.966 228.426 441.545 228.875C442.13 229.318 442.422 229.982 442.422 230.869C442.422 231.818 442.112 232.538 441.493 233.027C440.88 233.511 439.974 233.752 438.776 233.752H434.827V224.29H436.268V228.201ZM445.46 233.752H444.019V224.29H445.46V233.752ZM436.268 229.436V232.552H438.707C440.234 232.552 440.998 232.02 440.998 230.955C440.998 230.426 440.822 230.04 440.469 229.798C440.116 229.557 439.514 229.436 438.663 229.436H436.268Z" fill="#56CCF2"/>
<path d="M453.462 232.371L453.731 231.568L454.105 230.549L456.682 224.307H458.514V233.752H457.238V225.939L457.064 226.44L456.561 227.761L454.105 233.752H452.898L450.442 227.744C450.135 226.972 449.924 226.371 449.808 225.939V233.752H448.524V224.307H450.286L452.777 230.308C453.025 230.941 453.254 231.629 453.462 232.371Z" fill="#56CCF2"/>
<path d="M467.567 224.29V230.29L467.506 231.862L467.48 232.354L472.627 224.29H474.424V233.752H473.078V227.968L473.104 226.828L473.148 225.706L468.009 233.752H466.213V224.29H467.567Z" fill="#56CCF2"/>
<path d="M481.281 233.925C479.904 233.925 478.836 233.505 478.078 232.665C477.326 231.818 476.95 230.624 476.95 229.082C476.95 227.499 477.331 226.276 478.095 225.413C478.865 224.549 479.959 224.117 481.376 224.117C481.833 224.117 482.29 224.166 482.748 224.264C483.205 224.362 483.564 224.477 483.824 224.61L483.381 225.827C483.063 225.7 482.716 225.597 482.34 225.516C481.964 225.43 481.631 225.387 481.342 225.387C479.409 225.387 478.442 226.613 478.442 229.064C478.442 230.227 478.677 231.119 479.146 231.741C479.62 232.362 480.32 232.673 481.246 232.673C482.039 232.673 482.852 232.503 483.685 232.164V233.433C483.049 233.761 482.247 233.925 481.281 233.925Z" fill="#56CCF2"/>
<path d="M488.242 228.909L484.935 224.29H486.575L489.084 227.916L491.584 224.29H493.207L489.9 228.909L493.38 233.752H491.748L489.084 229.919L486.393 233.752H484.761L488.242 228.909Z" fill="#56CCF2"/>
<path d="M503.483 229.013C503.483 230.555 503.093 231.761 502.312 232.63C501.531 233.493 500.451 233.925 499.074 233.925C498.224 233.925 497.468 233.726 496.809 233.329C496.149 232.932 495.64 232.362 495.281 231.62C494.922 230.877 494.743 230.008 494.743 229.013C494.743 227.47 495.131 226.27 495.906 225.413C496.681 224.549 497.758 224.117 499.135 224.117C500.466 224.117 501.522 224.558 502.303 225.438C503.09 226.319 503.483 227.51 503.483 229.013ZM496.236 229.013C496.236 230.221 496.479 231.142 496.965 231.775C497.451 232.408 498.166 232.725 499.109 232.725C500.052 232.725 500.767 232.411 501.253 231.784C501.745 231.151 501.991 230.227 501.991 229.013C501.991 227.81 501.745 226.897 501.253 226.276C500.767 225.648 500.046 225.335 499.092 225.335C498.148 225.335 497.437 225.643 496.956 226.259C496.476 226.874 496.236 227.792 496.236 229.013Z" fill="#56CCF2"/>
<path d="M514.281 237.024H512.884V233.752H506.235V237.024H504.846V232.518H505.593C506.368 231.47 506.976 230.241 507.415 228.831C507.855 227.421 508.084 225.907 508.101 224.29H512.918V232.518H514.281V237.024ZM511.53 232.518V225.421H509.394C509.319 226.699 509.07 227.994 508.648 229.306C508.231 230.613 507.71 231.683 507.086 232.518H511.53Z" fill="#56CCF2"/>
<path d="M517.631 224.29V228.253H522.961V224.29H524.402V233.752H522.961V229.487H517.631V233.752H516.191V224.29H517.631Z" fill="#56CCF2"/>
<path d="M528.898 228.201H531.493C532.702 228.201 533.596 228.426 534.175 228.875C534.759 229.318 535.052 229.982 535.052 230.869C535.052 231.818 534.742 232.538 534.123 233.027C533.509 233.511 532.604 233.752 531.406 233.752H527.457V224.29H528.898V228.201ZM538.089 233.752H536.649V224.29H538.089V233.752ZM528.898 229.436V232.552H531.337C532.864 232.552 533.628 232.02 533.628 230.955C533.628 230.426 533.452 230.04 533.099 229.798C532.746 229.557 532.144 229.436 531.293 229.436H528.898Z" fill="#56CCF2"/>
<path d="M546.092 232.371L546.361 231.568L546.734 230.549L549.312 224.307H551.144V233.752H549.868V225.939L549.694 226.44L549.191 227.761L546.734 233.752H545.528L543.072 227.744C542.765 226.972 542.554 226.371 542.438 225.939V233.752H541.153V224.307H542.915L545.406 230.308C545.655 230.941 545.884 231.629 546.092 232.371Z" fill="#56CCF2"/>
<path d="M564.389 224.29H565.969L561.863 228.857L566.307 233.752H564.623L560.283 228.961V233.752H558.843V224.29H560.283V228.892L564.389 224.29Z" fill="#56CCF2"/>
<path d="M576.289 229.013C576.289 230.555 575.898 231.761 575.117 232.63C574.336 233.493 573.257 233.925 571.88 233.925C571.029 233.925 570.274 233.726 569.614 233.329C568.954 232.932 568.445 232.362 568.086 231.62C567.728 230.877 567.548 230.008 567.548 229.013C567.548 227.47 567.936 226.27 568.711 225.413C569.487 224.549 570.563 224.117 571.94 224.117C573.271 224.117 574.327 224.558 575.108 225.438C575.895 226.319 576.289 227.51 576.289 229.013ZM569.041 229.013C569.041 230.221 569.284 231.142 569.77 231.775C570.256 232.408 570.971 232.725 571.914 232.725C572.857 232.725 573.572 232.411 574.058 231.784C574.55 231.151 574.796 230.227 574.796 229.013C574.796 227.81 574.55 226.897 574.058 226.276C573.572 225.648 572.852 225.335 571.897 225.335C570.954 225.335 570.242 225.643 569.762 226.259C569.281 226.874 569.041 227.792 569.041 229.013Z" fill="#56CCF2"/>
<path d="M587.086 237.024H585.689V233.752H579.04V237.024H577.652V232.518H578.398C579.173 231.47 579.781 230.241 580.221 228.831C580.66 227.421 580.889 225.907 580.906 224.29H585.724V232.518H587.086V237.024ZM584.335 232.518V225.421H582.2C582.124 226.699 581.876 227.994 581.453 229.306C581.037 230.613 580.516 231.683 579.891 232.518H584.335Z" fill="#56CCF2"/>
<path d="M597.207 229.013C597.207 230.555 596.816 231.761 596.035 232.63C595.254 233.493 594.175 233.925 592.798 233.925C591.947 233.925 591.192 233.726 590.532 233.329C589.873 232.932 589.363 232.362 589.005 231.62C588.646 230.877 588.466 230.008 588.466 229.013C588.466 227.47 588.854 226.27 589.63 225.413C590.405 224.549 591.481 224.117 592.858 224.117C594.189 224.117 595.245 224.558 596.026 225.438C596.813 226.319 597.207 227.51 597.207 229.013ZM589.959 229.013C589.959 230.221 590.202 231.142 590.688 231.775C591.174 232.408 591.889 232.725 592.832 232.725C593.776 232.725 594.49 232.411 594.976 231.784C595.468 231.151 595.714 230.227 595.714 229.013C595.714 227.81 595.468 226.897 594.976 226.276C594.49 225.648 593.77 225.335 592.815 225.335C591.872 225.335 591.16 225.643 590.68 226.259C590.199 226.874 589.959 227.792 589.959 229.013Z" fill="#56CCF2"/>
<path d="M604.68 232.371L604.949 231.568L605.322 230.549L607.9 224.307H609.732V233.752H608.456V225.939L608.282 226.44L607.779 227.761L605.322 233.752H604.116L601.66 227.744C601.353 226.972 601.142 226.371 601.026 225.939V233.752H599.741V224.307H601.503L603.994 230.308C604.243 230.941 604.472 231.629 604.68 232.371Z" fill="#56CCF2"/>
<path d="M612.605 232.837C612.605 232.452 612.691 232.161 612.865 231.965C613.044 231.764 613.299 231.663 613.629 231.663C613.965 231.663 614.225 231.764 614.41 231.965C614.601 232.161 614.696 232.452 614.696 232.837C614.696 233.211 614.601 233.499 614.41 233.701C614.219 233.902 613.959 234.003 613.629 234.003C613.334 234.003 613.088 233.914 612.891 233.735C612.7 233.551 612.605 233.252 612.605 232.837Z" fill="#56CCF2"/>
</g>
<defs>
<filter id="filter0_d" x="438.165" y="44.8544" width="90.9393" height="83.8464" filterUnits="userSpaceOnUse" color-interpolation-filters="sRGB">
<feFlood flood-opacity="0" result="BackgroundImageFix"/>
<feColorMatrix in="SourceAlpha" type="matrix" values="0 0 0 0 0 0 0 0 0 0 0 0 0 0 0 0 0 0 127 0" result="hardAlpha"/>
<feOffset dy="4.59487"/>
<feGaussianBlur stdDeviation="2.29744"/>
<feColorMatrix type="matrix" values="0 0 0 0 0 0 0 0 0 0 0 0 0 0 0 0 0 0 0.25 0"/>
<feBlend mode="normal" in2="BackgroundImageFix" result="effect1_dropShadow"/>
<feBlend mode="normal" in="SourceGraphic" in2="effect1_dropShadow" result="shape"/>
</filter>
<filter id="filter1_d" x="427.868" y="47.681" width="94.3823" height="84.2468" filterUnits="userSpaceOnUse" color-interpolation-filters="sRGB">
<feFlood flood-opacity="0" result="BackgroundImageFix"/>
<feColorMatrix in="SourceAlpha" type="matrix" values="0 0 0 0 0 0 0 0 0 0 0 0 0 0 0 0 0 0 127 0" result="hardAlpha"/>
<feOffset dy="4.59487"/>
<feGaussianBlur stdDeviation="2.29744"/>
<feColorMatrix type="matrix" values="0 0 0 0 0 0 0 0 0 0 0 0 0 0 0 0 0 0 0.25 0"/>
<feBlend mode="normal" in2="BackgroundImageFix" result="effect1_dropShadow"/>
<feBlend mode="normal" in="SourceGraphic" in2="effect1_dropShadow" result="shape"/>
</filter>
<linearGradient id="paint0_linear" x1="424.794" y1="156.896" x2="408.117" y2="142.907" gradientUnits="userSpaceOnUse">
<stop stop-color="#471AC6" stop-opacity="0"/>
<stop offset="0.23462" stop-color="#471AC6" stop-opacity="0.29264"/>
<stop offset="0.52244" stop-color="#471AC6" stop-opacity="0.65165"/>
<stop offset="0.72155" stop-color="#471AC6" stop-opacity="0.9"/>
</linearGradient>
<linearGradient id="paint1_linear" x1="484.431" y1="69.9987" x2="500.855" y2="91.6082" gradientUnits="userSpaceOnUse">
<stop stop-color="#6130EE"/>
<stop offset="1" stop-color="#1FD6E3"/>
</linearGradient>
<linearGradient id="paint2_linear" x1="489.261" y1="72.5439" x2="516.926" y2="110.984" gradientUnits="userSpaceOnUse">
<stop/>
<stop offset="1" stop-opacity="0"/>
</linearGradient>
<linearGradient id="paint3_linear" x1="491.675" y1="65.9994" x2="519.34" y2="104.44" gradientUnits="userSpaceOnUse">
<stop/>
<stop offset="1" stop-opacity="0"/>
</linearGradient>
<linearGradient id="paint4_linear" x1="445.433" y1="103.327" x2="478.159" y2="63.16" gradientUnits="userSpaceOnUse">
<stop stop-color="#6130EE"/>
<stop offset="1" stop-color="#1FD6E3"/>
</linearGradient>
<linearGradient id="paint5_linear" x1="459.922" y1="99.5698" x2="493.496" y2="65.0355" gradientUnits="userSpaceOnUse">
<stop/>
<stop offset="1" stop-opacity="0"/>
</linearGradient>
<linearGradient id="paint6_linear" x1="455.937" y1="98.1155" x2="483.62" y2="51.4266" gradientUnits="userSpaceOnUse">
<stop/>
<stop offset="1" stop-opacity="0"/>
</linearGradient>
<linearGradient id="paint7_linear" x1="491.072" y1="99.2062" x2="463.86" y2="113.785" gradientUnits="userSpaceOnUse">
<stop stop-color="#6130EE"/>
<stop offset="1" stop-color="#1FD6E3"/>
</linearGradient>
<linearGradient id="paint8_linear" x1="510.389" y1="100.903" x2="467.126" y2="117.036" gradientUnits="userSpaceOnUse">
<stop/>
<stop offset="1" stop-opacity="0"/>
</linearGradient>
</defs>
</svg>
