<svg width="1000" height="300" viewBox="0 0 1000 300" fill="none" xmlns="http://www.w3.org/2000/svg">
<rect width="1000" height="300" rx="15" fill="#333333"/>
<path d="M415.092 140.937L419.893 149.642L430.595 169.045H439.638L424.417 141.442L419.616 132.738L415.092 140.937Z" fill="#1FD6E3"/>
<path opacity="0.47" d="M415.092 140.937L419.893 149.642L430.595 169.045H439.638L424.417 141.442L419.616 132.738L415.092 140.937Z" fill="url(#paint0_linear)"/>
<path d="M399.595 169.047H409.198L419.895 149.643L424.419 141.444L419.617 132.739L415.093 140.938L399.595 169.047Z" fill="#6130EE"/>
<path d="M469.897 155.757C469.897 163.169 463.91 169.199 456.55 169.199C449.191 169.199 443.204 163.169 443.204 155.757L443.204 142.168H450.036V155.757C450.036 159.376 452.958 162.319 456.55 162.319C460.143 162.319 463.066 159.376 463.066 155.757V142.168H469.897V155.757Z" fill="#1FD6E3"/>
<path d="M488.207 141.729V148.68C485.42 148.68 483.153 150.963 483.153 153.77V168.89H476.252V153.77H476.251C476.251 147.13 481.615 141.729 488.207 141.729Z" fill="#1FD6E3"/>
<path d="M519.439 158.265C519.609 157.411 519.694 156.531 519.694 155.629C519.694 154.786 519.62 153.965 519.471 153.166C518.32 146.672 512.666 141.729 505.893 141.729C498.283 141.729 492.092 147.965 492.092 155.629C492.092 163.293 498.283 169.53 505.893 169.53C511.877 169.53 516.982 165.671 518.895 160.298H510.966C509.708 161.683 507.902 162.553 505.893 162.553C503.031 162.553 500.569 160.776 499.541 158.265H512.25H519.439ZM499.472 153.166C500.458 150.563 502.967 148.706 505.893 148.706C508.824 148.706 511.329 150.563 512.319 153.166H499.472Z" fill="#1FD6E3"/>
<path d="M564.548 169.045H557.612V132.738H564.548V169.045Z" fill="#1FD6E3"/>
<path d="M597.66 158.265C597.831 157.411 597.916 156.531 597.916 155.629C597.916 154.786 597.842 153.965 597.692 153.166C596.542 146.672 590.888 141.729 584.115 141.729C576.505 141.729 570.314 147.965 570.314 155.629C570.314 163.293 576.505 169.53 584.115 169.53C590.099 169.53 595.204 165.671 597.117 160.298H589.188C587.93 161.683 586.124 162.553 584.115 162.553C581.253 162.553 578.792 160.776 577.763 158.265H590.472H597.66ZM577.694 153.166C578.68 150.563 581.19 148.706 584.115 148.706C587.046 148.706 589.55 150.563 590.541 153.166H577.694Z" fill="#1FD6E3"/>
<path d="M537.993 169.878C530.216 169.878 523.888 163.476 523.888 155.607C523.888 147.738 530.216 141.336 537.993 141.336C545.772 141.336 552.1 147.738 552.1 155.607C552.1 163.476 545.772 169.878 537.993 169.878ZM537.993 148.499C534.12 148.499 530.968 151.688 530.968 155.607C530.968 159.526 534.12 162.714 537.993 162.714C541.867 162.714 545.019 159.526 545.019 155.607C545.019 151.688 541.867 148.499 537.993 148.499Z" fill="#1FD6E3"/>
<mask id="mask0" mask-type="alpha" maskUnits="userSpaceOnUse" x="466" y="54" width="67" height="67">
<path fill-rule="evenodd" clip-rule="evenodd" d="M499.496 120.853C517.887 120.853 532.796 105.887 532.796 87.4263C532.796 68.9655 517.887 54 499.496 54C481.105 54 466.195 68.9655 466.195 87.4263C466.195 105.887 481.105 120.853 499.496 120.853ZM499.152 102.336C507.545 102.336 514.349 95.5061 514.349 87.0815C514.349 78.6569 507.545 71.8274 499.152 71.8274C490.759 71.8274 483.956 78.6569 483.956 87.0815C483.956 95.5061 490.759 102.336 499.152 102.336Z" fill="#C4C4C4"/>
</mask>
<g mask="url(#mask0)">
<mask id="mask1" mask-type="alpha" maskUnits="userSpaceOnUse" x="466" y="54" width="67" height="67">
<ellipse rx="33.3003" ry="33.4263" transform="matrix(1 0 0 -1 499.496 87.4264)" fill="black"/>
</mask>
<g mask="url(#mask1)">
<path d="M523.546 93.6607C525.519 105.283 514.824 117.36 508.482 119.792L523.546 125.628L538.082 112.231L540.064 67.9278L513.371 53.0716L495.532 63.8158L477.164 75.6211C478.177 84.1546 485.489 98.5686 485.489 88.6203C485.489 78.672 492.889 74.0294 499.364 73.8968C505.839 73.7641 521.506 81.6423 523.546 93.6607Z" fill="#504444"/>
<path d="M523.546 93.6607C525.519 105.283 514.824 117.36 508.482 119.792L523.546 125.628L538.082 112.231L540.064 67.9278L513.371 53.0716L495.532 63.8158L477.164 75.6211C478.177 84.1546 485.489 98.5686 485.489 88.6203C485.489 78.672 492.889 74.0294 499.364 73.8968C505.839 73.7641 521.506 81.6423 523.546 93.6607Z" fill="url(#paint1_linear)"/>
<path opacity="0.1" d="M526.533 92.3512C527.345 108.152 511.172 122.552 502.321 124.789L521.521 134.951L543.031 119.399L552.624 60.6741L519.311 36.6514L493.806 48.1453L467.429 60.9696C467.444 72.5016 474.947 92.8672 476.507 79.61C478.067 66.3529 488.676 61.3376 497.342 62.1858C506.009 63.034 525.694 76.0125 526.533 92.3512Z" fill="url(#paint2_linear)"/>
<path opacity="0.1" d="M529.176 85.1886C529.988 100.989 513.815 115.39 504.964 117.626L524.164 127.788L545.673 112.236L555.266 53.5114L521.953 29.4887L496.449 40.9826L470.072 53.8069C470.086 65.3389 477.59 85.7045 479.15 72.4474C480.709 59.1902 491.318 54.1749 499.985 55.0231C508.652 55.8713 528.336 68.8498 529.176 85.1886Z" fill="url(#paint3_linear)"/>
<path d="M495.003 66.8665C481.128 77.7434 483.189 105.254 503.196 102.283C523.203 99.3113 500.685 110.506 500.685 110.506L472.274 104.14L463.288 90.7425L459.324 56.7856L514.56 44.9802L528.303 61.2955L525.132 66.0707C520.551 59.0847 504.279 59.5945 495.003 66.8665Z" fill="#E9CBCB"/>
<path d="M495.003 66.8665C481.128 77.7434 483.189 105.254 503.196 102.283C523.203 99.3113 500.685 110.506 500.685 110.506L472.274 104.14L463.288 90.7425L459.324 56.7856L514.56 44.9802L528.303 61.2955L525.132 66.0707C520.551 59.0847 504.279 59.5945 495.003 66.8665Z" fill="url(#paint4_linear)"/>
<g opacity="0.1" filter="url(#filter0_d)">
<path d="M500.845 63.0877C479.704 69.6345 466.334 96.4523 492.053 107.351C517.771 118.25 488.079 116.891 488.079 116.891L457.548 96.6618L452.962 76.8945L463.432 35.2344L533.563 46.1611L542.436 71.4908L536.585 75.6759C534.317 65.4152 514.979 58.7106 500.845 63.0877Z" fill="url(#paint5_linear)"/>
</g>
<g opacity="0.1" filter="url(#filter1_d)">
<path d="M490.007 62.1247C468.741 72.0779 458.583 102.184 487.192 109.881C515.801 117.579 484.401 120.477 484.401 120.477L449.38 103.683L441.692 83.5957L446.648 38.3281L521.933 39.5867L534.934 64.8904L529.393 70.1368C525.52 59.6935 504.225 55.4703 490.007 62.1247Z" fill="url(#paint6_linear)"/>
</g>
<path d="M523.282 91.273C528.293 108.332 514.34 117.758 507.292 120.189L509.803 133.586L483.903 126.822L450.602 112.363L446.506 70.5805C451.175 69.7404 461.57 71.6151 465.799 85.8346C471.085 103.609 499.496 107.19 509.142 98.9664C518.789 90.7424 513.133 73.4721 504.676 74.7986C496.219 76.125 499.231 72.1722 499.231 72.1722C507.248 70.1826 520.242 80.9267 523.282 91.273Z" fill="url(#paint7_linear)"/>
<path opacity="0.15" d="M523.942 94.1913C525.924 112.593 511.168 119.084 504.121 121.516L511.521 134.154L485.621 127.389L452.32 112.93L448.224 71.1476C452.893 70.3075 456.02 79.9719 460.249 94.1913C465.535 111.966 494.825 123.524 507.16 108.782C515.108 99.2835 517.599 75.7538 509.142 77.0802C500.685 78.4067 500.949 72.7393 500.949 72.7393C508.966 70.7496 522.787 83.4672 523.942 94.1913Z" fill="url(#paint8_linear)"/>
</g>
</g>
<g opacity="0.7">
<path d="M229.087 201.479C227.465 201.479 226.183 202.017 225.241 203.092C224.305 204.161 223.837 205.628 223.837 207.492C223.837 209.409 224.288 210.892 225.19 211.941C226.099 212.983 227.391 213.504 229.067 213.504C230.097 213.504 231.272 213.321 232.591 212.953V214.446C231.568 214.827 230.306 215.018 228.805 215.018C226.631 215.018 224.951 214.363 223.767 213.054C222.589 211.744 222 209.883 222 207.472C222 205.962 222.283 204.639 222.848 203.503C223.42 202.368 224.241 201.492 225.312 200.878C226.388 200.263 227.654 199.956 229.108 199.956C230.656 199.956 232.009 200.236 233.166 200.798L232.439 202.261C231.322 201.74 230.205 201.479 229.087 201.479Z" fill="#56CCF2"/>
<path d="M242.364 214.817L242.031 213.254H241.95C241.398 213.942 240.846 214.41 240.294 214.657C239.749 214.897 239.066 215.018 238.245 215.018C237.147 215.018 236.286 214.737 235.66 214.176C235.041 213.615 234.731 212.816 234.731 211.781C234.731 209.563 236.518 208.4 240.092 208.293L241.97 208.233V207.552C241.97 206.69 241.782 206.055 241.405 205.648C241.034 205.234 240.439 205.027 239.618 205.027C238.696 205.027 237.652 205.307 236.488 205.868L235.973 204.596C236.518 204.302 237.114 204.071 237.76 203.904C238.413 203.737 239.066 203.654 239.719 203.654C241.038 203.654 242.014 203.944 242.646 204.525C243.286 205.107 243.606 206.039 243.606 207.321V214.817H242.364ZM238.578 213.645C239.621 213.645 240.439 213.361 241.031 212.793C241.63 212.225 241.93 211.43 241.93 210.408V209.416L240.254 209.486C238.921 209.533 237.959 209.74 237.366 210.107C236.781 210.468 236.488 211.033 236.488 211.801C236.488 212.402 236.67 212.86 237.033 213.174C237.403 213.488 237.918 213.645 238.578 213.645Z" fill="#56CCF2"/>
<path d="M252.813 213.214L253.126 212.282L253.56 211.099L256.559 203.854H258.689V214.817H257.205V205.748L257.003 206.329L256.417 207.863L253.56 214.817H252.157L249.3 207.842C248.943 206.947 248.697 206.249 248.563 205.748V214.817H247.069V203.854H249.118L252.016 210.819C252.305 211.554 252.571 212.352 252.813 213.214Z" fill="#56CCF2"/>
<path d="M263.949 208.374H266.968C268.375 208.374 269.414 208.634 270.088 209.155C270.767 209.67 271.107 210.441 271.107 211.47C271.107 212.572 270.747 213.408 270.027 213.975C269.313 214.537 268.26 214.817 266.867 214.817H262.273V203.834H263.949V208.374ZM274.641 214.817H272.965V203.834H274.641V214.817ZM263.949 209.807V213.424H266.786C268.563 213.424 269.451 212.806 269.451 211.57C269.451 210.956 269.246 210.508 268.836 210.228C268.425 209.947 267.725 209.807 266.736 209.807H263.949Z" fill="#56CCF2"/>
<path d="M279.78 203.834V210.799L279.709 212.623L279.679 213.194L285.666 203.834H287.756V214.817H286.191V208.103L286.221 206.78L286.272 205.477L280.295 214.817H278.205V203.834H279.78ZM282.94 202.381C281.695 202.381 280.786 202.144 280.214 201.669C279.642 201.188 279.322 200.4 279.255 199.304H280.83C280.89 199.999 281.072 200.484 281.375 200.757C281.685 201.031 282.22 201.168 282.98 201.168C283.673 201.168 284.185 201.021 284.515 200.727C284.851 200.433 285.057 199.959 285.131 199.304H286.716C286.635 200.36 286.295 201.138 285.696 201.639C285.097 202.134 284.178 202.381 282.94 202.381Z" fill="#56CCF2"/>
<path d="M303.344 205.257H298.356V214.817H296.681V203.834H303.344V205.257Z" fill="#56CCF2"/>
<path d="M307.12 203.834V210.799L307.049 212.623L307.019 213.194L313.006 203.834H315.096V214.817H313.531V208.103L313.561 206.78L313.612 205.477L307.635 214.817H305.545V203.834H307.12Z" fill="#56CCF2"/>
<path d="M318.074 208.233C318.074 205.828 318.431 203.954 319.144 202.611C319.858 201.262 320.988 200.42 322.537 200.086C324.462 199.679 326.158 199.348 327.625 199.094L327.938 200.557C325.602 200.945 323.933 201.252 322.93 201.479C321.954 201.699 321.221 202.221 320.729 203.042C320.245 203.864 319.979 204.983 319.932 206.399H320.053C320.47 205.838 321.009 205.397 321.668 205.077C322.328 204.756 323.018 204.596 323.738 204.596C325.098 204.596 326.158 205.033 326.918 205.908C327.679 206.784 328.059 207.996 328.059 209.546C328.059 211.263 327.618 212.606 326.737 213.575C325.855 214.537 324.626 215.018 323.051 215.018C321.497 215.018 320.278 214.426 319.397 213.244C318.515 212.061 318.074 210.391 318.074 208.233ZM323.203 213.625C325.256 213.625 326.282 212.325 326.282 209.726C326.282 207.248 325.35 206.009 323.486 206.009C322.974 206.009 322.479 206.115 322.001 206.329C321.53 206.536 321.096 206.814 320.699 207.161C320.309 207.508 320.006 207.866 319.79 208.233C319.79 209.99 320.07 211.33 320.628 212.252C321.187 213.167 322.045 213.625 323.203 213.625Z" fill="#56CCF2"/>
<path d="M337.438 203.834H339.276L334.5 209.135L339.67 214.817H337.711L332.663 209.255V214.817H330.987V203.834H332.663V209.175L337.438 203.834Z" fill="#56CCF2"/>
<path d="M343.304 203.834V210.799L343.233 212.623L343.203 213.194L349.19 203.834H351.28V214.817H349.715V208.103L349.745 206.78L349.796 205.477L343.819 214.817H341.729V203.834H343.304Z" fill="#56CCF2"/>
<path d="M356.409 203.834V210.799L356.338 212.623L356.308 213.194L362.295 203.834H364.385V214.817H362.82V208.103L362.85 206.78L362.901 205.477L356.924 214.817H354.834V203.834H356.409ZM359.569 202.381C358.324 202.381 357.415 202.144 356.843 201.669C356.271 201.188 355.951 200.4 355.884 199.304H357.459C357.519 199.999 357.701 200.484 358.004 200.757C358.314 201.031 358.849 201.168 359.609 201.168C360.303 201.168 360.814 201.021 361.144 200.727C361.48 200.433 361.686 199.959 361.76 199.304H363.345C363.264 200.36 362.924 201.138 362.325 201.639C361.726 202.134 360.807 202.381 359.569 202.381Z" fill="#56CCF2"/>
<path d="M374.885 203.834V210.799L374.814 212.623L374.784 213.194L380.771 203.834H382.86V214.817H381.296V208.103L381.326 206.78L381.376 205.477L375.4 214.817H373.31V203.834H374.885Z" fill="#56CCF2"/>
<path d="M396.207 215.018C394.606 215.018 393.364 214.53 392.482 213.555C391.607 212.572 391.17 211.186 391.17 209.396C391.17 207.559 391.614 206.139 392.502 205.137C393.397 204.135 394.67 203.634 396.319 203.634C396.85 203.634 397.382 203.69 397.914 203.804C398.445 203.917 398.863 204.051 399.166 204.205L398.651 205.618C398.281 205.471 397.877 205.351 397.439 205.257C397.002 205.157 396.615 205.107 396.278 205.107C394.03 205.107 392.906 206.53 392.906 209.376C392.906 210.725 393.179 211.761 393.724 212.482C394.276 213.204 395.09 213.565 396.167 213.565C397.089 213.565 398.035 213.368 399.004 212.973V214.446C398.264 214.827 397.332 215.018 396.207 215.018Z" fill="#56CCF2"/>
<path d="M411.19 209.316C411.19 211.106 410.736 212.506 409.827 213.514C408.918 214.517 407.663 215.018 406.061 215.018C405.072 215.018 404.193 214.787 403.426 214.326C402.659 213.865 402.067 213.204 401.649 212.342C401.232 211.48 401.023 210.471 401.023 209.316C401.023 207.525 401.474 206.132 402.376 205.137C403.278 204.135 404.53 203.634 406.132 203.634C407.68 203.634 408.908 204.145 409.817 205.167C410.732 206.189 411.19 207.572 411.19 209.316ZM402.76 209.316C402.76 210.719 403.043 211.787 403.608 212.522C404.173 213.257 405.005 213.625 406.102 213.625C407.199 213.625 408.03 213.261 408.595 212.532C409.167 211.798 409.454 210.725 409.454 209.316C409.454 207.919 409.167 206.86 408.595 206.139C408.03 205.411 407.192 205.047 406.081 205.047C404.984 205.047 404.156 205.404 403.598 206.119C403.039 206.834 402.76 207.899 402.76 209.316Z" fill="#56CCF2"/>
<path d="M423.113 206.59C423.113 207.305 422.905 207.849 422.488 208.223C422.077 208.591 421.498 208.838 420.751 208.965V209.055C421.693 209.182 422.38 209.456 422.811 209.877C423.248 210.298 423.467 210.879 423.467 211.62C423.467 212.643 423.087 213.431 422.326 213.985C421.572 214.54 420.468 214.817 419.014 214.817H414.138V203.834H418.994C421.74 203.834 423.113 204.753 423.113 206.59ZM421.791 211.51C421.791 210.916 421.562 210.485 421.104 210.217C420.653 209.944 419.903 209.807 418.853 209.807H415.814V213.424H418.893C420.825 213.424 421.791 212.786 421.791 211.51ZM421.478 206.75C421.478 206.216 421.269 205.838 420.852 205.618C420.441 205.391 419.815 205.277 418.974 205.277H415.814V208.374H418.651C419.688 208.374 420.418 208.247 420.842 207.993C421.266 207.739 421.478 207.325 421.478 206.75Z" fill="#56CCF2"/>
<path d="M431.059 215.018C430.339 215.018 429.679 214.887 429.08 214.627C428.488 214.36 427.99 213.952 427.586 213.404H427.465C427.546 214.046 427.586 214.654 427.586 215.228V219.748H425.91V203.834H427.273L427.505 205.337H427.586C428.017 204.736 428.518 204.302 429.09 204.034C429.662 203.767 430.319 203.634 431.059 203.634C432.526 203.634 433.657 204.131 434.451 205.127C435.252 206.122 435.653 207.518 435.653 209.316C435.653 211.119 435.246 212.522 434.431 213.525C433.623 214.52 432.499 215.018 431.059 215.018ZM430.817 205.047C429.686 205.047 428.868 205.357 428.363 205.979C427.859 206.6 427.599 207.589 427.586 208.945V209.316C427.586 210.859 427.845 211.965 428.363 212.633C428.882 213.294 429.713 213.625 430.857 213.625C431.813 213.625 432.56 213.241 433.098 212.472C433.644 211.704 433.916 210.645 433.916 209.296C433.916 207.926 433.644 206.877 433.098 206.149C432.56 205.414 431.799 205.047 430.817 205.047Z" fill="#56CCF2"/>
<path d="M443.265 215.018C441.63 215.018 440.337 214.523 439.388 213.535C438.446 212.546 437.975 211.173 437.975 209.416C437.975 207.645 438.412 206.239 439.287 205.197C440.169 204.155 441.35 203.634 442.831 203.634C444.218 203.634 445.315 204.088 446.122 204.996C446.93 205.898 447.334 207.091 447.334 208.574V209.626H439.711C439.745 210.916 440.071 211.894 440.691 212.562C441.317 213.231 442.195 213.565 443.326 213.565C444.517 213.565 445.695 213.317 446.859 212.823V214.306C446.267 214.56 445.705 214.74 445.173 214.847C444.648 214.961 444.012 215.018 443.265 215.018ZM442.811 205.027C441.922 205.027 441.212 205.314 440.681 205.888C440.156 206.463 439.846 207.258 439.752 208.273H445.537C445.537 207.224 445.301 206.423 444.83 205.868C444.359 205.307 443.686 205.027 442.811 205.027Z" fill="#56CCF2"/>
<path d="M455.946 213.214L456.259 212.282L456.693 211.099L459.691 203.854H461.822V214.817H460.338V205.748L460.136 206.329L459.55 207.863L456.693 214.817H455.29L452.432 207.842C452.076 206.947 451.83 206.249 451.695 205.748V214.817H450.201V203.854H452.251L455.148 210.819C455.438 211.554 455.704 212.352 455.946 213.214Z" fill="#56CCF2"/>
<path d="M470.08 215.018C468.445 215.018 467.152 214.523 466.203 213.535C465.261 212.546 464.79 211.173 464.79 209.416C464.79 207.645 465.228 206.239 466.102 205.197C466.984 204.155 468.165 203.634 469.646 203.634C471.033 203.634 472.13 204.088 472.938 204.996C473.745 205.898 474.149 207.091 474.149 208.574V209.626H466.527C466.56 210.916 466.887 211.894 467.506 212.562C468.132 213.231 469.01 213.565 470.141 213.565C471.332 213.565 472.51 213.317 473.675 212.823V214.306C473.082 214.56 472.52 214.74 471.988 214.847C471.464 214.961 470.827 215.018 470.08 215.018ZM469.626 205.027C468.738 205.027 468.027 205.314 467.496 205.888C466.971 206.463 466.661 207.258 466.567 208.273H472.352C472.352 207.224 472.116 206.423 471.645 205.868C471.174 205.307 470.501 205.027 469.626 205.027Z" fill="#56CCF2"/>
<path d="M478.692 203.834V208.434H484.891V203.834H486.567V214.817H484.891V209.867H478.692V214.817H477.016V203.834H478.692Z" fill="#56CCF2"/>
<path d="M491.797 203.834V208.434H497.996V203.834H499.672V214.817H497.996V209.867H491.797V214.817H490.121V203.834H491.797Z" fill="#56CCF2"/>
<path d="M504.902 208.374H507.92C509.327 208.374 510.367 208.634 511.04 209.155C511.72 209.67 512.06 210.441 512.06 211.47C512.06 212.572 511.7 213.408 510.979 213.975C510.266 214.537 509.213 214.817 507.819 214.817H503.226V203.834H504.902V208.374ZM515.593 214.817H513.917V203.834H515.593V214.817ZM504.902 209.807V213.424H507.739C509.516 213.424 510.404 212.806 510.404 211.57C510.404 210.956 510.199 210.508 509.788 210.228C509.378 209.947 508.678 209.807 507.688 209.807H504.902Z" fill="#56CCF2"/>
<path d="M520.732 203.834V210.799L520.662 212.623L520.631 213.194L526.618 203.834H528.708V214.817H527.143V208.103L527.174 206.78L527.224 205.477L521.247 214.817H519.157V203.834H520.732ZM523.892 202.381C522.647 202.381 521.739 202.144 521.166 201.669C520.594 201.188 520.275 200.4 520.207 199.304H521.782C521.843 199.999 522.025 200.484 522.327 200.757C522.637 201.031 523.172 201.168 523.933 201.168C524.626 201.168 525.138 201.021 525.467 200.727C525.804 200.433 526.009 199.959 526.083 199.304H527.668C527.587 200.36 527.248 201.138 526.649 201.639C526.05 202.134 525.131 202.381 523.892 202.381Z" fill="#56CCF2"/>
<path d="M542.055 215.018C540.453 215.018 539.211 214.53 538.33 213.555C537.455 212.572 537.017 211.186 537.017 209.396C537.017 207.559 537.461 206.139 538.35 205.137C539.245 204.135 540.517 203.634 542.166 203.634C542.698 203.634 543.23 203.69 543.761 203.804C544.293 203.917 544.71 204.051 545.013 204.205L544.498 205.618C544.128 205.471 543.724 205.351 543.287 205.257C542.849 205.157 542.462 205.107 542.126 205.107C539.878 205.107 538.754 206.53 538.754 209.376C538.754 210.725 539.026 211.761 539.572 212.482C540.123 213.204 540.938 213.565 542.015 213.565C542.937 213.565 543.883 213.368 544.852 212.973V214.446C544.111 214.827 543.179 215.018 542.055 215.018Z" fill="#56CCF2"/>
<path d="M552.161 215.018C550.526 215.018 549.233 214.523 548.284 213.535C547.342 212.546 546.871 211.173 546.871 209.416C546.871 207.645 547.308 206.239 548.183 205.197C549.065 204.155 550.246 203.634 551.727 203.634C553.114 203.634 554.211 204.088 555.018 204.996C555.826 205.898 556.23 207.091 556.23 208.574V209.626H548.607C548.641 210.916 548.968 211.894 549.587 212.562C550.213 213.231 551.091 213.565 552.222 213.565C553.413 213.565 554.591 213.317 555.755 212.823V214.306C555.163 214.56 554.601 214.74 554.069 214.847C553.544 214.961 552.908 215.018 552.161 215.018ZM551.707 205.027C550.819 205.027 550.108 205.314 549.577 205.888C549.052 206.463 548.742 207.258 548.648 208.273H554.433C554.433 207.224 554.197 206.423 553.726 205.868C553.255 205.307 552.582 205.027 551.707 205.027Z" fill="#56CCF2"/>
<path d="M564.246 215.018C563.526 215.018 562.866 214.887 562.267 214.627C561.675 214.36 561.177 213.952 560.773 213.404H560.652C560.733 214.046 560.773 214.654 560.773 215.228V219.748H559.097V203.834H560.46L560.692 205.337H560.773C561.204 204.736 561.705 204.302 562.278 204.034C562.85 203.767 563.506 203.634 564.246 203.634C565.714 203.634 566.844 204.131 567.639 205.127C568.44 206.122 568.84 207.518 568.84 209.316C568.84 211.119 568.433 212.522 567.618 213.525C566.811 214.52 565.687 215.018 564.246 215.018ZM564.004 205.047C562.873 205.047 562.055 205.357 561.551 205.979C561.046 206.6 560.787 207.589 560.773 208.945V209.316C560.773 210.859 561.032 211.965 561.551 212.633C562.069 213.294 562.9 213.625 564.044 213.625C565 213.625 565.747 213.241 566.286 212.472C566.831 211.704 567.103 210.645 567.103 209.296C567.103 207.926 566.831 206.877 566.286 206.149C565.747 205.414 564.987 205.047 564.004 205.047Z" fill="#56CCF2"/>
<path d="M580.753 206.59C580.753 207.305 580.545 207.849 580.127 208.223C579.717 208.591 579.138 208.838 578.391 208.965V209.055C579.333 209.182 580.02 209.456 580.45 209.877C580.888 210.298 581.107 210.879 581.107 211.62C581.107 212.643 580.726 213.431 579.966 213.985C579.212 214.54 578.108 214.817 576.654 214.817H571.778V203.834H576.634C579.38 203.834 580.753 204.753 580.753 206.59ZM579.431 211.51C579.431 210.916 579.202 210.485 578.744 210.217C578.293 209.944 577.543 209.807 576.493 209.807H573.454V213.424H576.533C578.465 213.424 579.431 212.786 579.431 211.51ZM579.118 206.75C579.118 206.216 578.909 205.838 578.492 205.618C578.081 205.391 577.455 205.277 576.614 205.277H573.454V208.374H576.291C577.327 208.374 578.058 208.247 578.482 207.993C578.906 207.739 579.118 207.325 579.118 206.75Z" fill="#56CCF2"/>
<path d="M588.224 215.018C586.589 215.018 585.297 214.523 584.348 213.535C583.405 212.546 582.934 211.173 582.934 209.416C582.934 207.645 583.372 206.239 584.247 205.197C585.128 204.155 586.31 203.634 587.79 203.634C589.177 203.634 590.274 204.088 591.082 204.996C591.889 205.898 592.293 207.091 592.293 208.574V209.626H584.671C584.704 210.916 585.031 211.894 585.65 212.562C586.276 213.231 587.154 213.565 588.285 213.565C589.476 213.565 590.654 213.317 591.819 212.823V214.306C591.226 214.56 590.664 214.74 590.133 214.847C589.608 214.961 588.972 215.018 588.224 215.018ZM587.77 205.027C586.882 205.027 586.172 205.314 585.64 205.888C585.115 206.463 584.805 207.258 584.711 208.273H590.496C590.496 207.224 590.26 206.423 589.789 205.868C589.318 205.307 588.645 205.027 587.77 205.027Z" fill="#56CCF2"/>
<path d="M600.309 215.018C599.589 215.018 598.93 214.887 598.331 214.627C597.738 214.36 597.24 213.952 596.836 213.404H596.715C596.796 214.046 596.836 214.654 596.836 215.228V219.748H595.16V203.834H596.523L596.756 205.337H596.836C597.267 204.736 597.769 204.302 598.341 204.034C598.913 203.767 599.569 203.634 600.309 203.634C601.777 203.634 602.907 204.131 603.702 205.127C604.503 206.122 604.903 207.518 604.903 209.316C604.903 211.119 604.496 212.522 603.681 213.525C602.874 214.52 601.75 215.018 600.309 215.018ZM600.067 205.047C598.936 205.047 598.119 205.357 597.614 205.979C597.109 206.6 596.85 207.589 596.836 208.945V209.316C596.836 210.859 597.095 211.965 597.614 212.633C598.132 213.294 598.963 213.625 600.107 213.625C601.063 213.625 601.81 213.241 602.349 212.472C602.894 211.704 603.167 210.645 603.167 209.296C603.167 207.926 602.894 206.877 602.349 206.149C601.81 205.414 601.05 205.047 600.067 205.047Z" fill="#56CCF2"/>
<path d="M620.017 214.817L619.684 213.254H619.603C619.051 213.942 618.499 214.41 617.947 214.657C617.402 214.897 616.719 215.018 615.898 215.018C614.801 215.018 613.939 214.737 613.313 214.176C612.694 213.615 612.384 212.816 612.384 211.781C612.384 209.563 614.171 208.4 617.745 208.293L619.623 208.233V207.552C619.623 206.69 619.435 206.055 619.058 205.648C618.688 205.234 618.092 205.027 617.271 205.027C616.349 205.027 615.305 205.307 614.141 205.868L613.626 204.596C614.171 204.302 614.767 204.071 615.413 203.904C616.066 203.737 616.719 203.654 617.372 203.654C618.691 203.654 619.667 203.944 620.3 204.525C620.939 205.107 621.259 206.039 621.259 207.321V214.817H620.017ZM616.231 213.645C617.274 213.645 618.092 213.361 618.684 212.793C619.283 212.225 619.583 211.43 619.583 210.408V209.416L617.907 209.486C616.574 209.533 615.612 209.74 615.019 210.107C614.434 210.468 614.141 211.033 614.141 211.801C614.141 212.402 614.323 212.86 614.686 213.174C615.056 213.488 615.571 213.645 616.231 213.645Z" fill="#56CCF2"/>
<path d="M622.965 203.834H624.762L627.185 210.097C627.717 211.527 628.047 212.559 628.175 213.194H628.255C628.343 212.853 628.525 212.272 628.8 211.45C629.083 210.622 629.999 208.083 631.547 203.834H633.344L628.588 216.34C628.117 217.576 627.565 218.452 626.933 218.966C626.307 219.487 625.536 219.748 624.621 219.748C624.109 219.748 623.604 219.691 623.106 219.577V218.245C623.476 218.325 623.89 218.365 624.348 218.365C625.499 218.365 626.32 217.723 626.812 216.441L627.427 214.877L622.965 203.834Z" fill="#56CCF2"/>
<path d="M642.602 205.257H639.008V214.817H637.332V205.257H633.778V203.834H642.602V205.257Z" fill="#56CCF2"/>
<path d="M649.467 215.018C647.832 215.018 646.539 214.523 645.59 213.535C644.648 212.546 644.177 211.173 644.177 209.416C644.177 207.645 644.614 206.239 645.489 205.197C646.371 204.155 647.552 203.634 649.033 203.634C650.42 203.634 651.517 204.088 652.324 204.996C653.132 205.898 653.536 207.091 653.536 208.574V209.626H645.913C645.947 210.916 646.273 211.894 646.893 212.562C647.519 213.231 648.397 213.565 649.528 213.565C650.719 213.565 651.897 213.317 653.061 212.823V214.306C652.469 214.56 651.907 214.74 651.375 214.847C650.85 214.961 650.214 215.018 649.467 215.018ZM649.013 205.027C648.124 205.027 647.414 205.314 646.883 205.888C646.358 206.463 646.048 207.258 645.954 208.273H651.739C651.739 207.224 651.503 206.423 651.032 205.868C650.561 205.307 649.888 205.027 649.013 205.027Z" fill="#56CCF2"/>
<path d="M658.079 203.834V208.434H664.278V203.834H665.954V214.817H664.278V209.867H658.079V214.817H656.403V203.834H658.079Z" fill="#56CCF2"/>
<path d="M676.969 205.257H673.375V214.817H671.699V205.257H668.145V203.834H676.969V205.257Z" fill="#56CCF2"/>
<path d="M680.735 203.834V210.799L680.664 212.623L680.634 213.194L686.621 203.834H688.71V214.817H687.146V208.103L687.176 206.78L687.226 205.477L681.249 214.817H679.16V203.834H680.735Z" fill="#56CCF2"/>
<path d="M704.117 209.316C704.117 210.979 703.639 212.305 702.683 213.294C701.734 214.276 700.405 214.837 698.695 214.978V219.748H697.04V214.978C695.371 214.851 694.051 214.283 693.082 213.274C692.113 212.265 691.628 210.946 691.628 209.316C691.628 207.652 692.109 206.329 693.072 205.347C694.041 204.365 695.384 203.807 697.1 203.674V199.224H698.695V203.674C700.385 203.827 701.711 204.405 702.673 205.407C703.636 206.409 704.117 207.712 704.117 209.316ZM693.385 209.316C693.385 210.598 693.681 211.604 694.273 212.332C694.866 213.06 695.808 213.484 697.1 213.605V205.067C695.855 205.18 694.923 205.584 694.304 206.279C693.691 206.967 693.385 207.979 693.385 209.316ZM702.381 209.316C702.381 206.757 701.152 205.347 698.695 205.087V213.605C699.974 213.478 700.907 213.05 701.492 212.322C702.084 211.594 702.381 210.592 702.381 209.316Z" fill="#56CCF2"/>
<path d="M708.62 203.834V210.799L708.549 212.623L708.519 213.194L714.506 203.834H716.596V214.817H715.031V208.103L715.061 206.78L715.112 205.477L709.135 214.817H707.045V203.834H708.62Z" fill="#56CCF2"/>
<path d="M726.601 203.834H728.438L723.663 209.135L728.832 214.817H726.874L721.826 209.255V214.817H720.15V203.834H721.826V209.175L726.601 203.834Z" fill="#56CCF2"/>
<path d="M737.697 214.817L737.363 213.254H737.283C736.731 213.942 736.179 214.41 735.627 214.657C735.082 214.897 734.399 215.018 733.577 215.018C732.48 215.018 731.619 214.737 730.993 214.176C730.374 213.615 730.064 212.816 730.064 211.781C730.064 209.563 731.851 208.4 735.425 208.293L737.303 208.233V207.552C737.303 206.69 737.114 206.055 736.737 205.648C736.367 205.234 735.772 205.027 734.95 205.027C734.028 205.027 732.985 205.307 731.821 205.868L731.306 204.596C731.851 204.302 732.447 204.071 733.093 203.904C733.746 203.737 734.399 203.654 735.051 203.654C736.371 203.654 737.347 203.944 737.979 204.525C738.619 205.107 738.938 206.039 738.938 207.321V214.817H737.697ZM733.911 213.645C734.954 213.645 735.772 213.361 736.364 212.793C736.963 212.225 737.262 211.43 737.262 210.408V209.416L735.586 209.486C734.254 209.533 733.291 209.74 732.699 210.107C732.113 210.468 731.821 211.033 731.821 211.801C731.821 212.402 732.002 212.86 732.366 213.174C732.736 213.488 733.251 213.645 733.911 213.645Z" fill="#56CCF2"/>
<path d="M753.194 218.615H751.518V214.817H742.401V203.834H744.077V213.384H749.953V203.834H751.629V213.384H753.194V218.615Z" fill="#56CCF2"/>
<path d="M756.919 203.834V210.799L756.849 212.623L756.818 213.194L762.805 203.834H764.895V214.817H763.33V208.103L763.361 206.78L763.411 205.477L757.434 214.817H755.344V203.834H756.919Z" fill="#56CCF2"/>
<path d="M770.024 203.834V210.799L769.953 212.623L769.923 213.194L775.91 203.834H778V214.817H776.435V208.103L776.465 206.78L776.516 205.477L770.539 214.817H768.449V203.834H770.024Z" fill="#56CCF2"/>
<path d="M359.68 241.955C358.078 241.955 356.836 241.467 355.955 240.492C355.08 239.51 354.642 238.123 354.642 236.333C354.642 234.496 355.086 233.076 355.975 232.074C356.87 231.072 358.142 230.571 359.791 230.571C360.323 230.571 360.854 230.627 361.386 230.741C361.918 230.855 362.335 230.988 362.638 231.142L362.123 232.555C361.753 232.408 361.349 232.288 360.912 232.194C360.474 232.094 360.087 232.044 359.751 232.044C357.503 232.044 356.379 233.467 356.379 236.313C356.379 237.662 356.651 238.698 357.196 239.419C357.748 240.141 358.563 240.502 359.64 240.502C360.562 240.502 361.507 240.305 362.477 239.91V241.384C361.736 241.764 360.804 241.955 359.68 241.955Z" fill="#56CCF2"/>
<path d="M380.034 236.253C380.034 238.043 379.579 239.443 378.671 240.452C377.762 241.454 376.507 241.955 374.905 241.955C373.915 241.955 373.037 241.724 372.27 241.263C371.502 240.802 370.91 240.141 370.493 239.279C370.076 238.417 369.867 237.408 369.867 236.253C369.867 234.462 370.318 233.069 371.22 232.074C372.122 231.072 373.374 230.571 374.975 230.571C376.524 230.571 377.752 231.082 378.661 232.104C379.576 233.126 380.034 234.509 380.034 236.253ZM371.603 236.253C371.603 237.656 371.886 238.725 372.451 239.459C373.017 240.194 373.848 240.562 374.945 240.562C376.042 240.562 376.874 240.198 377.439 239.469C378.011 238.735 378.297 237.662 378.297 236.253C378.297 234.856 378.011 233.797 377.439 233.076C376.874 232.348 376.036 231.984 374.925 231.984C373.828 231.984 373 232.341 372.441 233.056C371.883 233.771 371.603 234.836 371.603 236.253Z" fill="#56CCF2"/>
<path d="M390.443 232.194H386.848V241.754H385.172V232.194H381.619V230.771H390.443V232.194Z" fill="#56CCF2"/>
<path d="M399.085 230.771H400.922L396.147 236.072L401.316 241.754H399.357L394.309 236.193V241.754H392.633V230.771H394.309V236.112L399.085 230.771Z" fill="#56CCF2"/>
<path d="M408.525 241.955C407.804 241.955 407.145 241.824 406.546 241.564C405.954 241.297 405.455 240.889 405.052 240.341H404.93C405.011 240.983 405.052 241.591 405.052 242.165V246.685H403.376V230.771H404.739L404.971 232.274H405.052C405.482 231.673 405.984 231.239 406.556 230.971C407.128 230.704 407.784 230.571 408.525 230.571C409.992 230.571 411.123 231.068 411.917 232.064C412.718 233.059 413.118 234.456 413.118 236.253C413.118 238.056 412.711 239.459 411.897 240.462C411.089 241.457 409.965 241.955 408.525 241.955ZM408.282 231.984C407.152 231.984 406.334 232.294 405.829 232.916C405.324 233.537 405.065 234.526 405.052 235.882V236.253C405.052 237.796 405.311 238.902 405.829 239.57C406.347 240.231 407.179 240.562 408.323 240.562C409.279 240.562 410.026 240.178 410.564 239.409C411.109 238.641 411.382 237.582 411.382 236.233C411.382 234.863 411.109 233.814 410.564 233.086C410.026 232.351 409.265 231.984 408.282 231.984Z" fill="#56CCF2"/>
<path d="M417.732 235.311H420.751C422.158 235.311 423.198 235.571 423.871 236.092C424.55 236.607 424.89 237.378 424.89 238.407C424.89 239.51 424.53 240.345 423.81 240.913C423.097 241.474 422.043 241.754 420.65 241.754H416.056V230.771H417.732V235.311ZM428.424 241.754H426.748V230.771H428.424V241.754ZM417.732 236.744V240.361H420.569C422.346 240.361 423.235 239.743 423.235 238.507C423.235 237.893 423.029 237.445 422.619 237.165C422.208 236.884 421.508 236.744 420.519 236.744H417.732Z" fill="#56CCF2"/>
<path d="M439.449 232.194H435.855V241.754H434.179V232.194H430.625V230.771H439.449V232.194Z" fill="#56CCF2"/>
<path d="M443.316 235.311H446.334C447.741 235.311 448.781 235.571 449.454 236.092C450.134 236.607 450.474 237.378 450.474 238.407C450.474 239.51 450.114 240.345 449.394 240.913C448.68 241.474 447.627 241.754 446.233 241.754H441.64V230.771H443.316V235.311ZM454.007 241.754H452.331V230.771H454.007V241.754ZM443.316 236.744V240.361H446.153C447.93 240.361 448.818 239.743 448.818 238.507C448.818 237.893 448.613 237.445 448.202 237.165C447.792 236.884 447.092 236.744 446.102 236.744H443.316Z" fill="#56CCF2"/>
<path d="M463.316 240.151L463.629 239.219L464.063 238.036L467.062 230.791H469.192V241.754H467.708V232.685L467.506 233.266L466.92 234.8L464.063 241.754H462.66L459.803 234.78C459.446 233.884 459.2 233.186 459.066 232.685V241.754H457.571V230.791H459.621L462.518 237.756C462.808 238.491 463.074 239.289 463.316 240.151Z" fill="#56CCF2"/>
<path d="M479.722 230.771V237.736L479.651 239.56L479.621 240.131L485.608 230.771H487.698V241.754H486.133V235.04L486.163 233.717L486.214 232.415L480.237 241.754H478.147V230.771H479.722Z" fill="#56CCF2"/>
<path d="M495.674 241.955C494.072 241.955 492.83 241.467 491.948 240.492C491.073 239.51 490.636 238.123 490.636 236.333C490.636 234.496 491.08 233.076 491.969 232.074C492.864 231.072 494.136 230.571 495.785 230.571C496.317 230.571 496.848 230.627 497.38 230.741C497.912 230.855 498.329 230.988 498.632 231.142L498.117 232.555C497.747 232.408 497.343 232.288 496.906 232.194C496.468 232.094 496.081 232.044 495.745 232.044C493.496 232.044 492.372 233.467 492.372 236.313C492.372 237.662 492.645 238.698 493.19 239.419C493.742 240.141 494.557 240.502 495.633 240.502C496.556 240.502 497.501 240.305 498.47 239.91V241.384C497.73 241.764 496.798 241.955 495.674 241.955Z" fill="#56CCF2"/>
<path d="M503.771 236.132L499.924 230.771H501.832L504.75 234.98L507.658 230.771H509.546L505.699 236.132L509.748 241.754H507.85L504.75 237.305L501.62 241.754H499.722L503.771 236.132Z" fill="#56CCF2"/>
<path d="M521.5 236.253C521.5 238.043 521.045 239.443 520.137 240.452C519.228 241.454 517.973 241.955 516.371 241.955C515.381 241.955 514.503 241.724 513.736 241.263C512.968 240.802 512.376 240.141 511.959 239.279C511.541 238.417 511.333 237.408 511.333 236.253C511.333 234.462 511.784 233.069 512.686 232.074C513.588 231.072 514.84 230.571 516.441 230.571C517.99 230.571 519.218 231.082 520.127 232.104C521.042 233.126 521.5 234.509 521.5 236.253ZM513.069 236.253C513.069 237.656 513.352 238.725 513.917 239.459C514.483 240.194 515.314 240.562 516.411 240.562C517.508 240.562 518.34 240.198 518.905 239.469C519.477 238.735 519.763 237.662 519.763 236.253C519.763 234.856 519.477 233.797 518.905 233.076C518.34 232.348 517.502 231.984 516.391 231.984C515.294 231.984 514.466 232.341 513.907 233.056C513.349 233.771 513.069 234.836 513.069 236.253Z" fill="#56CCF2"/>
<path d="M534.059 245.552H532.434V241.754H524.7V245.552H523.085V240.321H523.953C524.855 239.105 525.562 237.679 526.073 236.042C526.585 234.405 526.85 232.648 526.871 230.771H532.474V240.321H534.059V245.552ZM530.859 240.321V232.084H528.375C528.287 233.567 527.998 235.07 527.507 236.593C527.022 238.11 526.416 239.353 525.689 240.321H530.859Z" fill="#56CCF2"/>
<path d="M537.956 230.771V235.371H544.155V230.771H545.831V241.754H544.155V236.804H537.956V241.754H536.28V230.771H537.956Z" fill="#56CCF2"/>
<path d="M551.061 235.311H554.08C555.486 235.311 556.526 235.571 557.199 236.092C557.879 236.607 558.219 237.378 558.219 238.407C558.219 239.51 557.859 240.345 557.139 240.913C556.425 241.474 555.372 241.754 553.979 241.754H549.385V230.771H551.061V235.311ZM561.753 241.754H560.077V230.771H561.753V241.754ZM551.061 236.744V240.361H553.898C555.675 240.361 556.563 239.743 556.563 238.507C556.563 237.893 556.358 237.445 555.947 237.165C555.537 236.884 554.837 236.744 553.847 236.744H551.061Z" fill="#56CCF2"/>
<path d="M571.061 240.151L571.374 239.219L571.808 238.036L574.807 230.791H576.937V241.754H575.453V232.685L575.251 233.266L574.665 234.8L571.808 241.754H570.405L567.548 234.78C567.191 233.884 566.945 233.186 566.811 232.685V241.754H565.316V230.791H567.366L570.264 237.756C570.553 238.491 570.819 239.289 571.061 240.151Z" fill="#56CCF2"/>
<path d="M592.344 230.771H594.181L589.406 236.072L594.575 241.754H592.616L587.568 236.193V241.754H585.892V230.771H587.568V236.112L592.344 230.771Z" fill="#56CCF2"/>
<path d="M606.185 236.253C606.185 238.043 605.731 239.443 604.822 240.452C603.914 241.454 602.658 241.955 601.057 241.955C600.067 241.955 599.189 241.724 598.421 241.263C597.654 240.802 597.062 240.141 596.645 239.279C596.227 238.417 596.019 237.408 596.019 236.253C596.019 234.462 596.47 233.069 597.371 232.074C598.273 231.072 599.525 230.571 601.127 230.571C602.675 230.571 603.904 231.082 604.812 232.104C605.728 233.126 606.185 234.509 606.185 236.253ZM597.755 236.253C597.755 237.656 598.038 238.725 598.603 239.459C599.169 240.194 600 240.562 601.097 240.562C602.194 240.562 603.025 240.198 603.591 239.469C604.163 238.735 604.449 237.662 604.449 236.253C604.449 234.856 604.163 233.797 603.591 233.076C603.025 232.348 602.187 231.984 601.077 231.984C599.98 231.984 599.152 232.341 598.593 233.056C598.034 233.771 597.755 234.836 597.755 236.253Z" fill="#56CCF2"/>
<path d="M618.745 245.552H617.119V241.754H609.386V245.552H607.77V240.321H608.639C609.541 239.105 610.247 237.679 610.759 236.042C611.27 234.405 611.536 232.648 611.556 230.771H617.16V240.321H618.745V245.552ZM615.544 240.321V232.084H613.061C612.973 233.567 612.684 235.07 612.192 236.593C611.708 238.11 611.102 239.353 610.375 240.321H615.544Z" fill="#56CCF2"/>
<path d="M630.517 236.253C630.517 238.043 630.062 239.443 629.154 240.452C628.245 241.454 626.99 241.955 625.388 241.955C624.399 241.955 623.52 241.724 622.753 241.263C621.986 240.802 621.393 240.141 620.976 239.279C620.559 238.417 620.35 237.408 620.35 236.253C620.35 234.462 620.801 233.069 621.703 232.074C622.605 231.072 623.857 230.571 625.459 230.571C627.007 230.571 628.235 231.082 629.144 232.104C630.059 233.126 630.517 234.509 630.517 236.253ZM622.087 236.253C622.087 237.656 622.369 238.725 622.935 239.459C623.5 240.194 624.331 240.562 625.428 240.562C626.525 240.562 627.357 240.198 627.922 239.469C628.494 238.735 628.78 237.662 628.78 236.253C628.78 234.856 628.494 233.797 627.922 233.076C627.357 232.348 626.519 231.984 625.408 231.984C624.311 231.984 623.483 232.341 622.925 233.056C622.366 233.771 622.087 234.836 622.087 236.253Z" fill="#56CCF2"/>
<path d="M639.21 240.151L639.522 239.219L639.957 238.036L642.955 230.791H645.085V241.754H643.601V232.685L643.399 233.266L642.814 234.8L639.957 241.754H638.553L635.696 234.78C635.339 233.884 635.094 233.186 634.959 232.685V241.754H633.465V230.791H635.514L638.412 237.756C638.701 238.491 638.967 239.289 639.21 240.151Z" fill="#56CCF2"/>
<path d="M648.427 240.692C648.427 240.244 648.528 239.907 648.73 239.68C648.939 239.446 649.235 239.329 649.619 239.329C650.009 239.329 650.312 239.446 650.527 239.68C650.749 239.907 650.86 240.244 650.86 240.692C650.86 241.126 650.749 241.46 650.527 241.694C650.305 241.928 650.002 242.045 649.619 242.045C649.275 242.045 648.989 241.941 648.76 241.734C648.538 241.52 648.427 241.173 648.427 240.692Z" fill="#56CCF2"/>
</g>
<defs>
<filter id="filter0_d" x="448.367" y="35.2344" width="98.6637" height="90.9005" filterUnits="userSpaceOnUse" color-interpolation-filters="sRGB">
<feFlood flood-opacity="0" result="BackgroundImageFix"/>
<feColorMatrix in="SourceAlpha" type="matrix" values="0 0 0 0 0 0 0 0 0 0 0 0 0 0 0 0 0 0 127 0" result="hardAlpha"/>
<feOffset dy="4.59487"/>
<feGaussianBlur stdDeviation="2.29744"/>
<feColorMatrix type="matrix" values="0 0 0 0 0 0 0 0 0 0 0 0 0 0 0 0 0 0 0.25 0"/>
<feBlend mode="normal" in2="BackgroundImageFix" result="effect1_dropShadow"/>
<feBlend mode="normal" in="SourceGraphic" in2="effect1_dropShadow" result="shape"/>
</filter>
<filter id="filter1_d" x="437.097" y="38.3281" width="102.432" height="91.3388" filterUnits="userSpaceOnUse" color-interpolation-filters="sRGB">
<feFlood flood-opacity="0" result="BackgroundImageFix"/>
<feColorMatrix in="SourceAlpha" type="matrix" values="0 0 0 0 0 0 0 0 0 0 0 0 0 0 0 0 0 0 127 0" result="hardAlpha"/>
<feOffset dy="4.59487"/>
<feGaussianBlur stdDeviation="2.29744"/>
<feColorMatrix type="matrix" values="0 0 0 0 0 0 0 0 0 0 0 0 0 0 0 0 0 0 0.25 0"/>
<feBlend mode="normal" in2="BackgroundImageFix" result="effect1_dropShadow"/>
<feBlend mode="normal" in="SourceGraphic" in2="effect1_dropShadow" result="shape"/>
</filter>
<linearGradient id="paint0_linear" x1="433.298" y1="157.862" x2="415.046" y2="142.552" gradientUnits="userSpaceOnUse">
<stop stop-color="#471AC6" stop-opacity="0"/>
<stop offset="0.23462" stop-color="#471AC6" stop-opacity="0.29264"/>
<stop offset="0.52244" stop-color="#471AC6" stop-opacity="0.65165"/>
<stop offset="0.72155" stop-color="#471AC6" stop-opacity="0.9"/>
</linearGradient>
<linearGradient id="paint1_linear" x1="498.571" y1="62.7547" x2="516.547" y2="86.406" gradientUnits="userSpaceOnUse">
<stop stop-color="#6130EE"/>
<stop offset="1" stop-color="#1FD6E3"/>
</linearGradient>
<linearGradient id="paint2_linear" x1="503.857" y1="65.5401" x2="534.136" y2="107.613" gradientUnits="userSpaceOnUse">
<stop/>
<stop offset="1" stop-opacity="0"/>
</linearGradient>
<linearGradient id="paint3_linear" x1="506.499" y1="58.3774" x2="536.779" y2="100.45" gradientUnits="userSpaceOnUse">
<stop/>
<stop offset="1" stop-opacity="0"/>
</linearGradient>
<linearGradient id="paint4_linear" x1="455.888" y1="99.2317" x2="491.706" y2="55.2696" gradientUnits="userSpaceOnUse">
<stop stop-color="#6130EE"/>
<stop offset="1" stop-color="#1FD6E3"/>
</linearGradient>
<linearGradient id="paint5_linear" x1="471.745" y1="95.1198" x2="508.492" y2="57.3223" gradientUnits="userSpaceOnUse">
<stop/>
<stop offset="1" stop-opacity="0"/>
</linearGradient>
<linearGradient id="paint6_linear" x1="467.385" y1="93.5279" x2="497.683" y2="42.4276" gradientUnits="userSpaceOnUse">
<stop/>
<stop offset="1" stop-opacity="0"/>
</linearGradient>
<linearGradient id="paint7_linear" x1="505.839" y1="94.7217" x2="476.056" y2="110.678" gradientUnits="userSpaceOnUse">
<stop stop-color="#6130EE"/>
<stop offset="1" stop-color="#1FD6E3"/>
</linearGradient>
<linearGradient id="paint8_linear" x1="526.982" y1="96.5789" x2="479.63" y2="114.236" gradientUnits="userSpaceOnUse">
<stop/>
<stop offset="1" stop-opacity="0"/>
</linearGradient>
</defs>
</svg>
