<svg width="1000" height="300" viewBox="0 0 1000 300" fill="none" xmlns="http://www.w3.org/2000/svg">
<rect width="1000" height="300" rx="15" fill="#1D1246"/>
<path d="M427.351 141.897L431.487 149.396L440.707 166.112H448.497L435.385 142.332L431.248 134.833L427.351 141.897Z" fill="#1FD6E3"/>
<path opacity="0.47" d="M427.351 141.897L431.487 149.396L440.707 166.112H448.497L435.385 142.332L431.248 134.833L427.351 141.897Z" fill="url(#paint0_linear)"/>
<path d="M414 166.114H422.273L431.488 149.398L435.386 142.334L431.249 134.835L427.352 141.898L414 166.114Z" fill="#6130EE"/>
<path d="M474.566 154.665C474.566 161.05 469.408 166.245 463.068 166.245C456.728 166.245 451.57 161.05 451.57 154.665L451.57 142.958H457.455V154.665C457.455 157.782 459.973 160.318 463.068 160.318C466.163 160.318 468.681 157.782 468.681 154.665V142.958H474.566V154.665Z" fill="#1FD6E3"/>
<path d="M490.341 142.579V148.568C487.939 148.568 485.986 150.535 485.986 152.953V165.979H480.041V152.953H480.04C480.04 147.233 484.661 142.579 490.341 142.579Z" fill="#1FD6E3"/>
<path d="M517.247 156.825C517.393 156.09 517.467 155.332 517.467 154.555C517.467 153.829 517.403 153.121 517.274 152.432C516.282 146.838 511.412 142.579 505.577 142.579C499.021 142.579 493.687 147.952 493.687 154.555C493.687 161.157 499.021 166.53 505.577 166.53C510.732 166.53 515.13 163.206 516.778 158.577H509.947C508.864 159.77 507.308 160.519 505.577 160.519C503.112 160.519 500.99 158.989 500.105 156.825H511.054H517.247ZM500.045 152.432C500.894 150.19 503.056 148.59 505.577 148.59C508.102 148.59 510.26 150.19 511.113 152.432H500.045Z" fill="#1FD6E3"/>
<path d="M556.109 166.112H550.133V134.833H556.109V166.112Z" fill="#1FD6E3"/>
<path d="M584.636 156.825C584.782 156.09 584.856 155.332 584.856 154.555C584.856 153.829 584.792 153.121 584.663 152.432C583.672 146.838 578.801 142.579 572.966 142.579C566.41 142.579 561.076 147.952 561.076 154.555C561.076 161.157 566.41 166.53 572.966 166.53C578.121 166.53 582.519 163.206 584.168 158.577H577.337C576.253 159.77 574.697 160.519 572.966 160.519C570.501 160.519 568.38 158.989 567.494 156.825H578.443H584.636ZM567.434 152.432C568.283 150.19 570.446 148.59 572.966 148.59C575.491 148.59 577.649 150.19 578.502 152.432H567.434Z" fill="#1FD6E3"/>
<path d="M533.232 166.83C526.531 166.83 521.08 161.314 521.08 154.536C521.08 147.756 526.531 142.241 533.232 142.241C539.933 142.241 545.385 147.756 545.385 154.536C545.385 161.314 539.933 166.83 533.232 166.83ZM533.232 148.412C529.894 148.412 527.18 151.159 527.18 154.536C527.18 157.912 529.894 160.658 533.232 160.658C536.569 160.658 539.284 157.912 539.284 154.536C539.284 151.159 536.569 148.412 533.232 148.412Z" fill="#1FD6E3"/>
<mask id="mask0" mask-type="alpha" maskUnits="userSpaceOnUse" x="471" y="67" width="58" height="58">
<path fill-rule="evenodd" clip-rule="evenodd" d="M500.066 124.594C515.91 124.594 528.754 111.701 528.754 95.7971C528.754 79.8929 515.91 67 500.066 67C484.221 67 471.377 79.8929 471.377 95.7971C471.377 111.701 484.221 124.594 500.066 124.594ZM499.77 108.642C507 108.642 512.862 102.758 512.862 95.5C512.862 88.2422 507 82.3585 499.77 82.3585C492.539 82.3585 486.678 88.2422 486.678 95.5C486.678 102.758 492.539 108.642 499.77 108.642Z" fill="#C4C4C4"/>
</mask>
<g mask="url(#mask0)">
<mask id="mask1" mask-type="alpha" maskUnits="userSpaceOnUse" x="471" y="67" width="58" height="58">
<ellipse rx="28.6885" ry="28.7971" transform="matrix(1 0 0 -1 500.066 95.7972)" fill="black"/>
</mask>
<g mask="url(#mask1)">
<path d="M520.785 101.168C522.485 111.181 513.271 121.585 507.807 123.68L520.785 128.708L533.308 117.167L535.016 78.9989L512.019 66.2002L496.65 75.4564L480.826 85.6268C481.699 92.9785 487.998 105.396 487.998 96.8257C487.998 88.2551 494.373 84.2555 499.952 84.1412C505.53 84.027 519.028 90.8141 520.785 101.168Z" fill="#504444"/>
<path d="M520.785 101.168C522.485 111.181 513.271 121.585 507.807 123.68L520.785 128.708L533.308 117.167L535.016 78.9989L512.019 66.2002L496.65 75.4564L480.826 85.6268C481.699 92.9785 487.998 105.396 487.998 96.8257C487.998 88.2551 494.373 84.2555 499.952 84.1412C505.53 84.027 519.028 90.8141 520.785 101.168Z" fill="url(#paint1_linear)"/>
<path opacity="0.1" d="M523.358 100.04C524.058 113.653 510.125 126.058 502.5 127.985L519.04 136.74L537.571 123.342L545.836 72.7499L517.136 52.0541L495.164 61.9562L472.44 73.0044C472.452 82.9394 478.917 100.485 480.26 89.0634C481.604 77.6422 490.744 73.3215 498.21 74.0522C505.677 74.7829 522.635 85.964 523.358 100.04Z" fill="url(#paint2_linear)"/>
<path opacity="0.1" d="M525.635 93.8693C526.335 107.482 512.401 119.888 504.776 121.815L521.317 130.569L539.848 117.171L548.112 66.5791L519.413 45.8833L497.44 55.7853L474.716 66.8336C474.729 76.7686 481.193 94.3138 482.537 82.8926C483.881 71.4714 493.021 67.1507 500.487 67.8814C507.953 68.6121 524.912 79.7932 525.635 93.8693Z" fill="url(#paint3_linear)"/>
<path d="M496.195 78.0846C484.241 87.4551 486.017 111.156 503.253 108.596C520.49 106.036 501.09 115.681 501.09 115.681L476.614 110.196L468.872 98.654L465.457 69.3998L513.044 59.2294L524.883 73.2851L522.152 77.399C518.205 71.3805 504.187 71.8197 496.195 78.0846Z" fill="#E9CBCB"/>
<path d="M496.195 78.0846C484.241 87.4551 486.017 111.156 503.253 108.596C520.49 106.036 501.09 115.681 501.09 115.681L476.614 110.196L468.872 98.654L465.457 69.3998L513.044 59.2294L524.883 73.2851L522.152 77.399C518.205 71.3805 504.187 71.8197 496.195 78.0846Z" fill="url(#paint4_linear)"/>
<g opacity="0.1" filter="url(#filter0_d)">
<path d="M501.228 74.8292C483.015 80.4693 471.496 103.573 493.653 112.963C515.81 122.352 490.23 121.181 490.23 121.181L463.927 103.754L459.976 86.7239L468.996 50.8333L529.415 60.2468L537.059 82.0686L532.018 85.6741C530.064 76.8343 513.405 71.0583 501.228 74.8292Z" fill="url(#paint5_linear)"/>
</g>
<g opacity="0.1" filter="url(#filter1_d)">
<path d="M491.891 73.9996C473.57 82.5743 464.819 108.511 489.466 115.142C514.113 121.774 487.061 124.271 487.061 124.271L456.89 109.803L450.267 92.4971L454.537 53.4985L519.396 54.5828L530.596 76.3822L525.822 80.9021C522.485 71.9051 504.14 68.2667 491.891 73.9996Z" fill="url(#paint6_linear)"/>
</g>
<path d="M520.557 99.1111C524.874 113.807 512.854 121.928 506.782 124.023L508.945 135.565L486.632 129.737L457.943 117.281L454.414 81.2843C458.437 80.5606 467.392 82.1756 471.035 94.4258C475.589 109.739 500.065 112.824 508.376 105.739C516.687 98.654 511.814 83.7755 504.528 84.9182C497.242 86.061 499.838 82.6556 499.838 82.6556C506.744 80.9415 517.939 90.1977 520.557 99.1111Z" fill="url(#paint7_linear)"/>
<path opacity="0.15" d="M521.127 101.625C522.834 117.478 510.122 123.071 504.05 125.166L510.425 136.053L488.112 130.225L459.423 117.769L455.894 81.7729C459.917 81.0491 462.611 89.3751 466.254 101.625C470.808 116.938 496.041 126.896 506.668 114.196C513.516 106.012 515.662 85.7412 508.376 86.8839C501.09 88.0267 501.318 83.1442 501.318 83.1442C508.224 81.43 520.131 92.3863 521.127 101.625Z" fill="url(#paint8_linear)"/>
</g>
</g>
<g opacity="0.7">
<path d="M267.106 194.055C265.708 194.055 264.604 194.518 263.792 195.445C262.986 196.366 262.583 197.629 262.583 199.235C262.583 200.887 262.972 202.164 263.749 203.068C264.531 203.966 265.645 204.415 267.089 204.415C267.976 204.415 268.988 204.257 270.124 203.94V205.226C269.243 205.554 268.155 205.718 266.862 205.718C264.989 205.718 263.543 205.154 262.522 204.026C261.507 202.898 261 201.295 261 199.218C261 197.917 261.244 196.777 261.731 195.799C262.223 194.82 262.931 194.066 263.853 193.537C264.781 193.007 265.871 192.742 267.123 192.742C268.457 192.742 269.622 192.984 270.62 193.468L269.994 194.728C269.031 194.279 268.068 194.055 267.106 194.055Z" fill="#56CCF2"/>
<path d="M278.544 205.546L278.257 204.199H278.187C277.711 204.792 277.236 205.195 276.761 205.408C276.291 205.615 275.702 205.718 274.995 205.718C274.05 205.718 273.307 205.477 272.768 204.993C272.235 204.51 271.968 203.822 271.968 202.93C271.968 201.019 273.508 200.018 276.587 199.925L278.204 199.874V199.287C278.204 198.544 278.042 197.997 277.717 197.646C277.398 197.289 276.885 197.111 276.178 197.111C275.383 197.111 274.485 197.353 273.481 197.836L273.038 196.74C273.508 196.486 274.021 196.288 274.577 196.144C275.14 196 275.702 195.928 276.265 195.928C277.401 195.928 278.242 196.179 278.787 196.679C279.338 197.18 279.613 197.983 279.613 199.088V205.546H278.544ZM275.282 204.536C276.181 204.536 276.885 204.291 277.395 203.802C277.912 203.313 278.17 202.628 278.17 201.747V200.892L276.726 200.953C275.578 200.993 274.748 201.172 274.238 201.488C273.734 201.799 273.481 202.285 273.481 202.947C273.481 203.465 273.638 203.859 273.951 204.13C274.27 204.4 274.714 204.536 275.282 204.536Z" fill="#56CCF2"/>
<path d="M287.546 204.164L287.816 203.362L288.19 202.343L290.773 196.101H292.608V205.546H291.329V197.733L291.155 198.233L290.651 199.554L288.19 205.546H286.981L284.519 199.537C284.212 198.766 284 198.164 283.884 197.733V205.546H282.597V196.101H284.362L286.859 202.101C287.108 202.734 287.337 203.422 287.546 204.164Z" fill="#56CCF2"/>
<path d="M297.14 199.995H299.74C300.952 199.995 301.848 200.219 302.428 200.668C303.014 201.111 303.306 201.776 303.306 202.662C303.306 203.612 302.996 204.331 302.376 204.821C301.761 205.304 300.854 205.546 299.653 205.546H295.696V196.084H297.14V199.995ZM306.351 205.546H304.907V196.084H306.351V205.546ZM297.14 201.229V204.346H299.584C301.115 204.346 301.88 203.813 301.88 202.749C301.88 202.219 301.703 201.833 301.349 201.592C300.996 201.35 300.393 201.229 299.54 201.229H297.14Z" fill="#56CCF2"/>
<path d="M310.778 196.084V202.084L310.717 203.655L310.691 204.147L315.849 196.084H317.649V205.546H316.301V199.761L316.327 198.622L316.371 197.499L311.221 205.546H309.421V196.084H310.778ZM313.5 194.832C312.428 194.832 311.645 194.627 311.152 194.219C310.659 193.804 310.384 193.125 310.326 192.181H311.682C311.735 192.78 311.891 193.197 312.152 193.433C312.419 193.669 312.88 193.787 313.535 193.787C314.132 193.787 314.573 193.66 314.857 193.407C315.147 193.154 315.324 192.745 315.388 192.181H316.753C316.684 193.091 316.391 193.761 315.875 194.193C315.359 194.619 314.567 194.832 313.5 194.832Z" fill="#56CCF2"/>
<path d="M331.079 197.31H326.782V205.546H325.338V196.084H331.079V197.31Z" fill="#56CCF2"/>
<path d="M334.332 196.084V202.084L334.271 203.655L334.245 204.147L339.403 196.084H341.203V205.546H339.855V199.761L339.881 198.622L339.924 197.499L334.775 205.546H332.975V196.084H334.332Z" fill="#56CCF2"/>
<path d="M343.769 199.874C343.769 197.802 344.076 196.187 344.691 195.03C345.305 193.868 346.28 193.142 347.613 192.855C349.272 192.504 350.733 192.219 351.997 192L352.267 193.26C350.255 193.594 348.817 193.859 347.953 194.055C347.112 194.245 346.48 194.694 346.056 195.402C345.639 196.109 345.41 197.074 345.369 198.294H345.474C345.833 197.81 346.297 197.43 346.865 197.154C347.434 196.878 348.028 196.74 348.648 196.74C349.82 196.74 350.733 197.117 351.388 197.871C352.043 198.625 352.371 199.669 352.371 201.005C352.371 202.484 351.991 203.641 351.232 204.475C350.472 205.304 349.414 205.718 348.057 205.718C346.717 205.718 345.668 205.209 344.908 204.19C344.149 203.172 343.769 201.733 343.769 199.874ZM348.187 204.518C349.956 204.518 350.84 203.399 350.84 201.16C350.84 199.025 350.037 197.957 348.431 197.957C347.99 197.957 347.564 198.049 347.152 198.233C346.746 198.412 346.372 198.651 346.03 198.95C345.694 199.249 345.433 199.557 345.247 199.874C345.247 201.387 345.488 202.541 345.969 203.336C346.451 204.124 347.19 204.518 348.187 204.518Z" fill="#56CCF2"/>
<path d="M360.451 196.084H362.034L357.92 200.651L362.374 205.546H360.686L356.337 200.754V205.546H354.893V196.084H356.337V200.685L360.451 196.084Z" fill="#56CCF2"/>
<path d="M365.505 196.084V202.084L365.444 203.655L365.418 204.147L370.576 196.084H372.376V205.546H371.028V199.761L371.054 198.622L371.098 197.499L365.948 205.546H364.148V196.084H365.505Z" fill="#56CCF2"/>
<path d="M376.795 196.084V202.084L376.734 203.655L376.708 204.147L381.866 196.084H383.666V205.546H382.318V199.761L382.344 198.622L382.387 197.499L377.238 205.546H375.438V196.084H376.795ZM379.517 194.832C378.444 194.832 377.662 194.627 377.169 194.219C376.676 193.804 376.4 193.125 376.342 192.181H377.699C377.751 192.78 377.908 193.197 378.169 193.433C378.436 193.669 378.897 193.787 379.552 193.787C380.149 193.787 380.59 193.66 380.874 193.407C381.164 193.154 381.341 192.745 381.405 192.181H382.77C382.7 193.091 382.408 193.761 381.892 194.193C381.376 194.619 380.584 194.832 379.517 194.832Z" fill="#56CCF2"/>
<path d="M392.712 196.084V202.084L392.651 203.655L392.625 204.147L397.783 196.084H399.583V205.546H398.235V199.761L398.261 198.622L398.304 197.499L393.155 205.546H391.355V196.084H392.712Z" fill="#56CCF2"/>
<path d="M411.082 205.718C409.702 205.718 408.632 205.298 407.872 204.458C407.118 203.612 406.741 202.418 406.741 200.875C406.741 199.292 407.124 198.069 407.89 197.206C408.661 196.343 409.757 195.911 411.177 195.911C411.635 195.911 412.093 195.96 412.552 196.058C413.01 196.156 413.369 196.271 413.63 196.403L413.187 197.62C412.868 197.494 412.52 197.39 412.143 197.31C411.766 197.223 411.432 197.18 411.143 197.18C409.206 197.18 408.237 198.406 408.237 200.858C408.237 202.02 408.472 202.913 408.942 203.534C409.417 204.156 410.119 204.467 411.047 204.467C411.841 204.467 412.656 204.297 413.491 203.957V205.226C412.853 205.554 412.05 205.718 411.082 205.718Z" fill="#56CCF2"/>
<path d="M423.989 200.806C423.989 202.349 423.598 203.554 422.815 204.423C422.032 205.287 420.951 205.718 419.571 205.718C418.718 205.718 417.962 205.52 417.301 205.123C416.64 204.726 416.129 204.156 415.77 203.413C415.41 202.671 415.231 201.802 415.231 200.806C415.231 199.264 415.619 198.064 416.396 197.206C417.173 196.343 418.252 195.911 419.632 195.911C420.965 195.911 422.024 196.351 422.806 197.232C423.595 198.112 423.989 199.304 423.989 200.806ZM416.727 200.806C416.727 202.015 416.97 202.936 417.457 203.569C417.944 204.202 418.66 204.518 419.606 204.518C420.551 204.518 421.267 204.205 421.754 203.577C422.247 202.944 422.493 202.02 422.493 200.806C422.493 199.603 422.247 198.691 421.754 198.069C421.267 197.442 420.545 197.128 419.588 197.128C418.643 197.128 417.93 197.436 417.448 198.052C416.967 198.668 416.727 199.586 416.727 200.806Z" fill="#56CCF2"/>
<path d="M434.261 198.458C434.261 199.074 434.082 199.543 433.722 199.865C433.368 200.182 432.87 200.395 432.226 200.504V200.582C433.038 200.691 433.629 200.927 434 201.29C434.377 201.652 434.566 202.153 434.566 202.792C434.566 203.672 434.238 204.352 433.583 204.829C432.934 205.307 431.983 205.546 430.73 205.546H426.529V196.084H430.713C433.079 196.084 434.261 196.875 434.261 198.458ZM433.122 202.697C433.122 202.185 432.925 201.813 432.531 201.583C432.142 201.347 431.496 201.229 430.591 201.229H427.973V204.346H430.626C432.29 204.346 433.122 203.796 433.122 202.697ZM432.852 198.596C432.852 198.135 432.673 197.81 432.313 197.62C431.959 197.425 431.42 197.327 430.695 197.327H427.973V199.995H430.417C431.31 199.995 431.939 199.885 432.304 199.666C432.67 199.448 432.852 199.091 432.852 198.596Z" fill="#56CCF2"/>
<path d="M441.107 205.718C440.486 205.718 439.918 205.606 439.402 205.382C438.892 205.152 438.462 204.8 438.115 204.328H438.01C438.08 204.881 438.115 205.405 438.115 205.9V209.793H436.671V196.084H437.845L438.045 197.379H438.115C438.486 196.861 438.918 196.486 439.411 196.256C439.903 196.026 440.469 195.911 441.107 195.911C442.371 195.911 443.345 196.34 444.029 197.197C444.719 198.055 445.064 199.258 445.064 200.806C445.064 202.36 444.713 203.569 444.012 204.432C443.316 205.29 442.348 205.718 441.107 205.718ZM440.898 197.128C439.924 197.128 439.219 197.396 438.784 197.931C438.349 198.466 438.126 199.318 438.115 200.487V200.806C438.115 202.136 438.338 203.088 438.784 203.664C439.231 204.234 439.947 204.518 440.933 204.518C441.756 204.518 442.4 204.187 442.864 203.526C443.333 202.864 443.568 201.951 443.568 200.789C443.568 199.609 443.333 198.705 442.864 198.078C442.4 197.445 441.744 197.128 440.898 197.128Z" fill="#56CCF2"/>
<path d="M451.622 205.718C450.213 205.718 449.1 205.293 448.282 204.441C447.471 203.589 447.065 202.406 447.065 200.892C447.065 199.367 447.442 198.156 448.195 197.258C448.955 196.36 449.973 195.911 451.248 195.911C452.443 195.911 453.388 196.302 454.084 197.085C454.78 197.862 455.128 198.889 455.128 200.167V201.074H448.561C448.59 202.185 448.871 203.028 449.404 203.603C449.944 204.179 450.7 204.467 451.675 204.467C452.701 204.467 453.716 204.254 454.719 203.828V205.105C454.209 205.324 453.724 205.48 453.266 205.572C452.814 205.67 452.266 205.718 451.622 205.718ZM451.231 197.111C450.466 197.111 449.854 197.358 449.396 197.853C448.943 198.348 448.677 199.033 448.596 199.908H453.579C453.579 199.005 453.376 198.314 452.971 197.836C452.565 197.353 451.985 197.111 451.231 197.111Z" fill="#56CCF2"/>
<path d="M462.547 204.164L462.817 203.362L463.191 202.343L465.774 196.101H467.609V205.546H466.33V197.733L466.156 198.233L465.652 199.554L463.191 205.546H461.982L459.52 199.537C459.213 198.766 459.001 198.164 458.885 197.733V205.546H457.598V196.101H459.363L461.86 202.101C462.109 202.734 462.338 203.422 462.547 204.164Z" fill="#56CCF2"/>
<path d="M474.724 205.718C473.315 205.718 472.202 205.293 471.384 204.441C470.572 203.589 470.166 202.406 470.166 200.892C470.166 199.367 470.543 198.156 471.297 197.258C472.057 196.36 473.074 195.911 474.35 195.911C475.544 195.911 476.49 196.302 477.185 197.085C477.881 197.862 478.229 198.889 478.229 200.167V201.074H471.662C471.691 202.185 471.972 203.028 472.506 203.603C473.045 204.179 473.802 204.467 474.776 204.467C475.802 204.467 476.817 204.254 477.82 203.828V205.105C477.31 205.324 476.826 205.48 476.368 205.572C475.915 205.67 475.368 205.718 474.724 205.718ZM474.332 197.111C473.567 197.111 472.955 197.358 472.497 197.853C472.045 198.348 471.778 199.033 471.697 199.908H476.681C476.681 199.005 476.478 198.314 476.072 197.836C475.666 197.353 475.086 197.111 474.332 197.111Z" fill="#56CCF2"/>
<path d="M482.143 196.084V200.046H487.484V196.084H488.927V205.546H487.484V201.281H482.143V205.546H480.699V196.084H482.143Z" fill="#56CCF2"/>
<path d="M493.433 196.084V200.046H498.773V196.084H500.217V205.546H498.773V201.281H493.433V205.546H491.989V196.084H493.433Z" fill="#56CCF2"/>
<path d="M504.723 199.995H507.323C508.535 199.995 509.431 200.219 510.011 200.668C510.597 201.111 510.89 201.776 510.89 202.662C510.89 203.612 510.579 204.331 509.959 204.821C509.344 205.304 508.437 205.546 507.236 205.546H503.279V196.084H504.723V199.995ZM513.934 205.546H512.49V196.084H513.934V205.546ZM504.723 201.229V204.346H507.167C508.698 204.346 509.463 203.813 509.463 202.749C509.463 202.219 509.286 201.833 508.933 201.592C508.579 201.35 507.976 201.229 507.123 201.229H504.723Z" fill="#56CCF2"/>
<path d="M518.361 196.084V202.084L518.3 203.655L518.274 204.147L523.432 196.084H525.232V205.546H523.884V199.761L523.91 198.622L523.954 197.499L518.805 205.546H517.004V196.084H518.361ZM521.083 194.832C520.011 194.832 519.228 194.627 518.735 194.219C518.242 193.804 517.967 193.125 517.909 192.181H519.266C519.318 192.78 519.474 193.197 519.735 193.433C520.002 193.669 520.463 193.787 521.118 193.787C521.716 193.787 522.156 193.66 522.44 193.407C522.73 193.154 522.907 192.745 522.971 192.181H524.336C524.267 193.091 523.974 193.761 523.458 194.193C522.942 194.619 522.15 194.832 521.083 194.832Z" fill="#56CCF2"/>
<path d="M536.731 205.718C535.351 205.718 534.281 205.298 533.521 204.458C532.768 203.612 532.391 202.418 532.391 200.875C532.391 199.292 532.773 198.069 533.539 197.206C534.31 196.343 535.406 195.911 536.827 195.911C537.285 195.911 537.743 195.96 538.201 196.058C538.659 196.156 539.018 196.271 539.279 196.403L538.836 197.62C538.517 197.494 538.169 197.39 537.792 197.31C537.415 197.223 537.082 197.18 536.792 197.18C534.855 197.18 533.887 198.406 533.887 200.858C533.887 202.02 534.122 202.913 534.591 203.534C535.067 204.156 535.768 204.467 536.696 204.467C537.491 204.467 538.305 204.297 539.14 203.957V205.226C538.502 205.554 537.699 205.718 536.731 205.718Z" fill="#56CCF2"/>
<path d="M545.438 205.718C544.028 205.718 542.915 205.293 542.098 204.441C541.286 203.589 540.88 202.406 540.88 200.892C540.88 199.367 541.257 198.156 542.011 197.258C542.77 196.36 543.788 195.911 545.063 195.911C546.258 195.911 547.203 196.302 547.899 197.085C548.595 197.862 548.943 198.889 548.943 200.167V201.074H542.376C542.405 202.185 542.686 203.028 543.22 203.603C543.759 204.179 544.516 204.467 545.49 204.467C546.516 204.467 547.531 204.254 548.534 203.828V205.105C548.024 205.324 547.539 205.48 547.081 205.572C546.629 205.67 546.081 205.718 545.438 205.718ZM545.046 197.111C544.281 197.111 543.669 197.358 543.211 197.853C542.759 198.348 542.492 199.033 542.411 199.908H547.395C547.395 199.005 547.192 198.314 546.786 197.836C546.38 197.353 545.8 197.111 545.046 197.111Z" fill="#56CCF2"/>
<path d="M555.849 205.718C555.228 205.718 554.66 205.606 554.144 205.382C553.634 205.152 553.205 204.8 552.857 204.328H552.752C552.822 204.881 552.857 205.405 552.857 205.9V209.793H551.413V196.084H552.587L552.787 197.379H552.857C553.228 196.861 553.66 196.486 554.153 196.256C554.646 196.026 555.211 195.911 555.849 195.911C557.113 195.911 558.087 196.34 558.771 197.197C559.461 198.055 559.806 199.258 559.806 200.806C559.806 202.36 559.456 203.569 558.754 204.432C558.058 205.29 557.09 205.718 555.849 205.718ZM555.64 197.128C554.666 197.128 553.961 197.396 553.527 197.931C553.092 198.466 552.868 199.318 552.857 200.487V200.806C552.857 202.136 553.08 203.088 553.527 203.664C553.973 204.234 554.689 204.518 555.675 204.518C556.498 204.518 557.142 204.187 557.606 203.526C558.076 202.864 558.31 201.951 558.31 200.789C558.31 199.609 558.076 198.705 557.606 198.078C557.142 197.445 556.487 197.128 555.64 197.128Z" fill="#56CCF2"/>
<path d="M570.07 198.458C570.07 199.074 569.89 199.543 569.531 199.865C569.177 200.182 568.678 200.395 568.035 200.504V200.582C568.846 200.691 569.438 200.927 569.809 201.29C570.186 201.652 570.374 202.153 570.374 202.792C570.374 203.672 570.047 204.352 569.391 204.829C568.742 205.307 567.791 205.546 566.539 205.546H562.337V196.084H566.521C568.887 196.084 570.07 196.875 570.07 198.458ZM568.93 202.697C568.93 202.185 568.733 201.813 568.339 201.583C567.95 201.347 567.304 201.229 566.399 201.229H563.781V204.346H566.434C568.098 204.346 568.93 203.796 568.93 202.697ZM568.661 198.596C568.661 198.135 568.481 197.81 568.122 197.62C567.768 197.425 567.229 197.327 566.504 197.327H563.781V199.995H566.225C567.118 199.995 567.748 199.885 568.113 199.666C568.478 199.448 568.661 199.091 568.661 198.596Z" fill="#56CCF2"/>
<path d="M576.506 205.718C575.097 205.718 573.984 205.293 573.166 204.441C572.354 203.589 571.949 202.406 571.949 200.892C571.949 199.367 572.326 198.156 573.079 197.258C573.839 196.36 574.857 195.911 576.132 195.911C577.327 195.911 578.272 196.302 578.968 197.085C579.664 197.862 580.012 198.889 580.012 200.167V201.074H573.445C573.474 202.185 573.755 203.028 574.288 203.603C574.828 204.179 575.584 204.467 576.558 204.467C577.585 204.467 578.6 204.254 579.603 203.828V205.105C579.092 205.324 578.608 205.48 578.15 205.572C577.698 205.67 577.15 205.718 576.506 205.718ZM576.115 197.111C575.349 197.111 574.738 197.358 574.28 197.853C573.827 198.348 573.561 199.033 573.479 199.908H578.463C578.463 199.005 578.26 198.314 577.854 197.836C577.449 197.353 576.869 197.111 576.115 197.111Z" fill="#56CCF2"/>
<path d="M586.918 205.718C586.297 205.718 585.729 205.606 585.213 205.382C584.703 205.152 584.273 204.8 583.926 204.328H583.821C583.891 204.881 583.926 205.405 583.926 205.9V209.793H582.482V196.084H583.656L583.856 197.379H583.926C584.297 196.861 584.729 196.486 585.222 196.256C585.714 196.026 586.28 195.911 586.918 195.911C588.182 195.911 589.156 196.34 589.84 197.197C590.53 198.055 590.875 199.258 590.875 200.806C590.875 202.36 590.524 203.569 589.823 204.432C589.127 205.29 588.159 205.718 586.918 205.718ZM586.709 197.128C585.735 197.128 585.03 197.396 584.595 197.931C584.16 198.466 583.937 199.318 583.926 200.487V200.806C583.926 202.136 584.149 203.088 584.595 203.664C585.042 204.234 585.758 204.518 586.744 204.518C587.567 204.518 588.211 204.187 588.675 203.526C589.144 202.864 589.379 201.951 589.379 200.789C589.379 199.609 589.144 198.705 588.675 198.078C588.211 197.445 587.555 197.128 586.709 197.128Z" fill="#56CCF2"/>
<path d="M603.896 205.546L603.609 204.199H603.539C603.064 204.792 602.588 205.195 602.113 205.408C601.643 205.615 601.055 205.718 600.347 205.718C599.402 205.718 598.66 205.477 598.12 204.993C597.587 204.51 597.32 203.822 597.32 202.93C597.32 201.019 598.86 200.018 601.939 199.925L603.557 199.874V199.287C603.557 198.544 603.394 197.997 603.07 197.646C602.751 197.289 602.237 197.111 601.53 197.111C600.736 197.111 599.837 197.353 598.834 197.836L598.39 196.74C598.86 196.486 599.373 196.288 599.93 196.144C600.492 196 601.055 195.928 601.617 195.928C602.754 195.928 603.594 196.179 604.139 196.679C604.69 197.18 604.966 197.983 604.966 199.088V205.546H603.896ZM600.634 204.536C601.533 204.536 602.237 204.291 602.748 203.802C603.264 203.313 603.522 202.628 603.522 201.747V200.892L602.078 200.953C600.93 200.993 600.101 201.172 599.59 201.488C599.086 201.799 598.834 202.285 598.834 202.947C598.834 203.465 598.99 203.859 599.303 204.13C599.622 204.4 600.066 204.536 600.634 204.536Z" fill="#56CCF2"/>
<path d="M606.436 196.084H607.984L610.071 201.479C610.529 202.711 610.814 203.6 610.924 204.147H610.993C611.069 203.854 611.225 203.353 611.463 202.645C611.707 201.931 612.495 199.744 613.829 196.084H615.377L611.28 206.858C610.874 207.923 610.399 208.677 609.854 209.12C609.315 209.569 608.651 209.793 607.862 209.793C607.421 209.793 606.986 209.745 606.557 209.647V208.498C606.876 208.567 607.233 208.602 607.627 208.602C608.619 208.602 609.326 208.049 609.75 206.944L610.28 205.598L606.436 196.084Z" fill="#56CCF2"/>
<path d="M623.353 197.31H620.257V205.546H618.813V197.31H615.751V196.084H623.353V197.31Z" fill="#56CCF2"/>
<path d="M629.268 205.718C627.858 205.718 626.745 205.293 625.928 204.441C625.116 203.589 624.71 202.406 624.71 200.892C624.71 199.367 625.087 198.156 625.841 197.258C626.6 196.36 627.618 195.911 628.894 195.911C630.088 195.911 631.033 196.302 631.729 197.085C632.425 197.862 632.773 198.889 632.773 200.167V201.074H626.206C626.235 202.185 626.516 203.028 627.05 203.603C627.589 204.179 628.346 204.467 629.32 204.467C630.346 204.467 631.361 204.254 632.364 203.828V205.105C631.854 205.324 631.369 205.48 630.911 205.572C630.459 205.67 629.911 205.718 629.268 205.718ZM628.876 197.111C628.111 197.111 627.499 197.358 627.041 197.853C626.589 198.348 626.322 199.033 626.241 199.908H631.225C631.225 199.005 631.022 198.314 630.616 197.836C630.21 197.353 629.63 197.111 628.876 197.111Z" fill="#56CCF2"/>
<path d="M636.687 196.084V200.046H642.027V196.084H643.471V205.546H642.027V201.281H636.687V205.546H635.243V196.084H636.687Z" fill="#56CCF2"/>
<path d="M652.96 197.31H649.864V205.546H648.42V197.31H645.359V196.084H652.96V197.31Z" fill="#56CCF2"/>
<path d="M656.205 196.084V202.084L656.144 203.655L656.118 204.147L661.276 196.084H663.076V205.546H661.728V199.761L661.754 198.622L661.798 197.499L656.648 205.546H654.848V196.084H656.205Z" fill="#56CCF2"/>
<path d="M676.349 200.806C676.349 202.239 675.937 203.382 675.114 204.234C674.296 205.08 673.151 205.563 671.678 205.684V209.793H670.252V205.684C668.814 205.575 667.677 205.085 666.842 204.216C666.007 203.347 665.59 202.21 665.59 200.806C665.59 199.373 666.004 198.233 666.834 197.387C667.669 196.541 668.825 196.061 670.304 195.945V192.112H671.678V195.945C673.134 196.078 674.276 196.576 675.105 197.439C675.934 198.302 676.349 199.425 676.349 200.806ZM667.103 200.806C667.103 201.911 667.358 202.777 667.869 203.405C668.379 204.032 669.191 204.398 670.304 204.501V197.146C669.231 197.243 668.428 197.592 667.895 198.19C667.367 198.783 667.103 199.655 667.103 200.806ZM674.853 200.806C674.853 198.602 673.795 197.387 671.678 197.163V204.501C672.78 204.392 673.583 204.023 674.088 203.396C674.598 202.769 674.853 201.905 674.853 200.806Z" fill="#56CCF2"/>
<path d="M680.228 196.084V202.084L680.167 203.655L680.141 204.147L685.299 196.084H687.1V205.546H685.751V199.761L685.778 198.622L685.821 197.499L680.672 205.546H678.871V196.084H680.228Z" fill="#56CCF2"/>
<path d="M695.719 196.084H697.302L693.188 200.651L697.641 205.546H695.954L691.605 200.754V205.546H690.161V196.084H691.605V200.685L695.719 196.084Z" fill="#56CCF2"/>
<path d="M705.278 205.546L704.991 204.199H704.922C704.446 204.792 703.971 205.195 703.495 205.408C703.025 205.615 702.437 205.718 701.729 205.718C700.784 205.718 700.042 205.477 699.503 204.993C698.969 204.51 698.703 203.822 698.703 202.93C698.703 201.019 700.242 200.018 703.321 199.925L704.939 199.874V199.287C704.939 198.544 704.777 197.997 704.452 197.646C704.133 197.289 703.62 197.111 702.912 197.111C702.118 197.111 701.219 197.353 700.216 197.836L699.772 196.74C700.242 196.486 700.755 196.288 701.312 196.144C701.874 196 702.437 195.928 702.999 195.928C704.136 195.928 704.977 196.179 705.522 196.679C706.073 197.18 706.348 197.983 706.348 199.088V205.546H705.278ZM702.016 204.536C702.915 204.536 703.62 204.291 704.13 203.802C704.646 203.313 704.904 202.628 704.904 201.747V200.892L703.46 200.953C702.312 200.993 701.483 201.172 700.973 201.488C700.468 201.799 700.216 202.285 700.216 202.947C700.216 203.465 700.373 203.859 700.686 204.13C701.005 204.4 701.448 204.536 702.016 204.536Z" fill="#56CCF2"/>
<path d="M718.629 208.818H717.186V205.546H709.331V196.084H710.775V204.311H715.837V196.084H717.281V204.311H718.629V208.818Z" fill="#56CCF2"/>
<path d="M721.839 196.084V202.084L721.778 203.655L721.752 204.147L726.91 196.084H728.71V205.546H727.362V199.761L727.388 198.622L727.432 197.499L722.282 205.546H720.482V196.084H721.839Z" fill="#56CCF2"/>
<path d="M733.129 196.084V202.084L733.068 203.655L733.042 204.147L738.2 196.084H740V205.546H738.652V199.761L738.678 198.622L738.721 197.499L733.572 205.546H731.772V196.084H733.129Z" fill="#56CCF2"/>
<path d="M379.613 228.925C378.233 228.925 377.163 228.505 376.403 227.665C375.649 226.818 375.273 225.624 375.273 224.082C375.273 222.499 375.655 221.276 376.421 220.413C377.192 219.549 378.288 219.117 379.708 219.117C380.167 219.117 380.625 219.166 381.083 219.264C381.541 219.362 381.9 219.477 382.161 219.61L381.718 220.827C381.399 220.7 381.051 220.597 380.674 220.516C380.297 220.43 379.964 220.387 379.674 220.387C377.737 220.387 376.769 221.613 376.769 224.064C376.769 225.227 377.003 226.119 377.473 226.741C377.949 227.362 378.65 227.673 379.578 227.673C380.372 227.673 381.187 227.503 382.022 227.164V228.433C381.384 228.761 380.581 228.925 379.613 228.925Z" fill="#56CCF2"/>
<path d="M397.148 224.013C397.148 225.555 396.756 226.761 395.973 227.63C395.191 228.493 394.109 228.925 392.729 228.925C391.877 228.925 391.12 228.726 390.459 228.329C389.798 227.932 389.288 227.362 388.928 226.62C388.569 225.877 388.389 225.008 388.389 224.013C388.389 222.47 388.777 221.27 389.554 220.413C390.331 219.549 391.41 219.117 392.79 219.117C394.124 219.117 395.182 219.558 395.965 220.438C396.753 221.319 397.148 222.51 397.148 224.013ZM389.885 224.013C389.885 225.221 390.128 226.142 390.616 226.775C391.103 227.408 391.819 227.725 392.764 227.725C393.709 227.725 394.425 227.411 394.912 226.784C395.405 226.151 395.652 225.227 395.652 224.013C395.652 222.81 395.405 221.897 394.912 221.276C394.425 220.648 393.703 220.335 392.747 220.335C391.801 220.335 391.088 220.643 390.607 221.259C390.126 221.874 389.885 222.792 389.885 224.013Z" fill="#56CCF2"/>
<path d="M406.115 220.516H403.019V228.752H401.575V220.516H398.513V219.29H406.115V220.516Z" fill="#56CCF2"/>
<path d="M413.561 219.29H415.144L411.029 223.857L415.483 228.752H413.795L409.446 223.961V228.752H408.003V219.29H409.446V223.892L413.561 219.29Z" fill="#56CCF2"/>
<path d="M421.693 228.925C421.073 228.925 420.504 228.813 419.988 228.588C419.478 228.358 419.049 228.007 418.701 227.535H418.597C418.666 228.088 418.701 228.611 418.701 229.106V233H417.257V219.29H418.431L418.631 220.585H418.701C419.072 220.067 419.504 219.693 419.997 219.463C420.49 219.233 421.055 219.117 421.693 219.117C422.957 219.117 423.931 219.546 424.615 220.404C425.306 221.261 425.651 222.464 425.651 224.013C425.651 225.567 425.3 226.775 424.598 227.639C423.902 228.496 422.934 228.925 421.693 228.925ZM421.484 220.335C420.51 220.335 419.806 220.602 419.371 221.138C418.936 221.673 418.713 222.525 418.701 223.693V224.013C418.701 225.342 418.924 226.295 419.371 226.87C419.817 227.44 420.533 227.725 421.519 227.725C422.342 227.725 422.986 227.394 423.45 226.732C423.92 226.07 424.155 225.158 424.155 223.995C424.155 222.815 423.92 221.912 423.45 221.284C422.986 220.651 422.331 220.335 421.484 220.335Z" fill="#56CCF2"/>
<path d="M429.625 223.201H432.226C433.438 223.201 434.334 223.426 434.914 223.875C435.499 224.318 435.792 224.982 435.792 225.869C435.792 226.818 435.482 227.538 434.862 228.027C434.247 228.511 433.339 228.752 432.139 228.752H428.182V219.29H429.625V223.201ZM438.837 228.752H437.393V219.29H438.837V228.752ZM429.625 224.436V227.552H432.07C433.6 227.552 434.366 227.02 434.366 225.955C434.366 225.426 434.189 225.04 433.835 224.798C433.482 224.557 432.878 224.436 432.026 224.436H429.625Z" fill="#56CCF2"/>
<path d="M448.335 220.516H445.238V228.752H443.794V220.516H440.733V219.29H448.335V220.516Z" fill="#56CCF2"/>
<path d="M451.666 223.201H454.267C455.478 223.201 456.374 223.426 456.954 223.875C457.54 224.318 457.833 224.982 457.833 225.869C457.833 226.818 457.522 227.538 456.902 228.027C456.287 228.511 455.38 228.752 454.18 228.752H450.222V219.29H451.666V223.201ZM460.877 228.752H459.433V219.29H460.877V228.752ZM451.666 224.436V227.552H454.11C455.641 227.552 456.406 227.02 456.406 225.955C456.406 225.426 456.229 225.04 455.876 224.798C455.522 224.557 454.919 224.436 454.066 224.436H451.666Z" fill="#56CCF2"/>
<path d="M468.896 227.371L469.166 226.568L469.54 225.549L472.123 219.307H473.958V228.752H472.68V220.939L472.506 221.44L472.001 222.761L469.54 228.752H468.331L465.869 222.744C465.562 221.972 465.35 221.371 465.235 220.939V228.752H463.947V219.307H465.713L468.209 225.308C468.459 225.941 468.688 226.629 468.896 227.371Z" fill="#56CCF2"/>
<path d="M483.03 219.29V225.29L482.969 226.862L482.943 227.354L488.101 219.29H489.902V228.752H488.553V222.968L488.58 221.828L488.623 220.706L483.474 228.752H481.673V219.29H483.03Z" fill="#56CCF2"/>
<path d="M496.773 228.925C495.393 228.925 494.323 228.505 493.563 227.665C492.81 226.818 492.433 225.624 492.433 224.082C492.433 222.499 492.815 221.276 493.581 220.413C494.352 219.549 495.448 219.117 496.869 219.117C497.327 219.117 497.785 219.166 498.243 219.264C498.701 219.362 499.061 219.477 499.321 219.61L498.878 220.827C498.559 220.7 498.211 220.597 497.834 220.516C497.457 220.43 497.124 220.387 496.834 220.387C494.897 220.387 493.929 221.613 493.929 224.064C493.929 225.227 494.164 226.119 494.633 226.741C495.109 227.362 495.81 227.673 496.738 227.673C497.533 227.673 498.347 227.503 499.182 227.164V228.433C498.544 228.761 497.741 228.925 496.773 228.925Z" fill="#56CCF2"/>
<path d="M503.749 223.909L500.435 219.29H502.079L504.592 222.916L507.097 219.29H508.724L505.41 223.909L508.898 228.752H507.263L504.592 224.919L501.896 228.752H500.261L503.749 223.909Z" fill="#56CCF2"/>
<path d="M519.022 224.013C519.022 225.555 518.631 226.761 517.848 227.63C517.065 228.493 515.984 228.925 514.604 228.925C513.751 228.925 512.994 228.726 512.333 228.329C511.672 227.932 511.162 227.362 510.803 226.62C510.443 225.877 510.263 225.008 510.263 224.013C510.263 222.47 510.652 221.27 511.429 220.413C512.206 219.549 513.284 219.117 514.664 219.117C515.998 219.117 517.056 219.558 517.839 220.438C518.628 221.319 519.022 222.51 519.022 224.013ZM511.759 224.013C511.759 225.221 512.003 226.142 512.49 226.775C512.977 227.408 513.693 227.725 514.638 227.725C515.584 227.725 516.3 227.411 516.787 226.784C517.28 226.151 517.526 225.227 517.526 224.013C517.526 222.81 517.28 221.897 516.787 221.276C516.3 220.648 515.578 220.335 514.621 220.335C513.676 220.335 512.963 220.643 512.481 221.259C512 221.874 511.759 222.792 511.759 224.013Z" fill="#56CCF2"/>
<path d="M529.842 232.024H528.442V228.752H521.779V232.024H520.388V227.518H521.136C521.913 226.47 522.522 225.241 522.962 223.831C523.403 222.421 523.632 220.907 523.649 219.29H528.477V227.518H529.842V232.024ZM527.085 227.518V220.421H524.945C524.87 221.699 524.621 222.994 524.197 224.306C523.78 225.613 523.258 226.683 522.632 227.518H527.085Z" fill="#56CCF2"/>
<path d="M533.2 219.29V223.253H538.54V219.29H539.984V228.752H538.54V224.487H533.2V228.752H531.756V219.29H533.2Z" fill="#56CCF2"/>
<path d="M544.489 223.201H547.09C548.302 223.201 549.198 223.426 549.778 223.875C550.363 224.318 550.656 224.982 550.656 225.869C550.656 226.818 550.346 227.538 549.726 228.027C549.111 228.511 548.203 228.752 547.003 228.752H543.046V219.29H544.489V223.201ZM553.7 228.752H552.257V219.29H553.7V228.752ZM544.489 224.436V227.552H546.934C548.464 227.552 549.23 227.02 549.23 225.955C549.23 225.426 549.053 225.04 548.699 224.798C548.345 224.557 547.742 224.436 546.89 224.436H544.489Z" fill="#56CCF2"/>
<path d="M561.72 227.371L561.99 226.568L562.364 225.549L564.947 219.307H566.782V228.752H565.503V220.939L565.33 221.44L564.825 222.761L562.364 228.752H561.155L558.693 222.744C558.386 221.972 558.174 221.371 558.058 220.939V228.752H556.771V219.307H558.536L561.033 225.308C561.282 225.941 561.511 226.629 561.72 227.371Z" fill="#56CCF2"/>
<path d="M580.055 219.29H581.638L577.524 223.857L581.977 228.752H580.29L575.941 223.961V228.752H574.497V219.29H575.941V223.892L580.055 219.29Z" fill="#56CCF2"/>
<path d="M591.98 224.013C591.98 225.555 591.588 226.761 590.806 227.63C590.023 228.493 588.941 228.925 587.561 228.925C586.709 228.925 585.952 228.726 585.291 228.329C584.63 227.932 584.12 227.362 583.76 226.62C583.401 225.877 583.221 225.008 583.221 224.013C583.221 222.47 583.61 221.27 584.387 220.413C585.164 219.549 586.242 219.117 587.622 219.117C588.956 219.117 590.014 219.558 590.797 220.438C591.585 221.319 591.98 222.51 591.98 224.013ZM584.717 224.013C584.717 225.221 584.961 226.142 585.448 226.775C585.935 227.408 586.651 227.725 587.596 227.725C588.541 227.725 589.257 227.411 589.744 226.784C590.237 226.151 590.484 225.227 590.484 224.013C590.484 222.81 590.237 221.897 589.744 221.276C589.257 220.648 588.535 220.335 587.579 220.335C586.633 220.335 585.92 220.643 585.439 221.259C584.958 221.874 584.717 222.792 584.717 224.013Z" fill="#56CCF2"/>
<path d="M602.8 232.024H601.4V228.752H594.737V232.024H593.345V227.518H594.093C594.87 226.47 595.479 225.241 595.92 223.831C596.361 222.421 596.59 220.907 596.607 219.29H601.434V227.518H602.8V232.024ZM600.043 227.518V220.421H597.903C597.828 221.699 597.578 222.994 597.155 224.306C596.738 225.613 596.216 226.683 595.589 227.518H600.043Z" fill="#56CCF2"/>
<path d="M612.942 224.013C612.942 225.555 612.55 226.761 611.767 227.63C610.985 228.493 609.903 228.925 608.523 228.925C607.671 228.925 606.914 228.726 606.253 228.329C605.592 227.932 605.082 227.362 604.722 226.62C604.363 225.877 604.183 225.008 604.183 224.013C604.183 222.47 604.571 221.27 605.348 220.413C606.125 219.549 607.204 219.117 608.584 219.117C609.918 219.117 610.976 219.558 611.759 220.438C612.547 221.319 612.942 222.51 612.942 224.013ZM605.679 224.013C605.679 225.221 605.922 226.142 606.41 226.775C606.897 227.408 607.613 227.725 608.558 227.725C609.503 227.725 610.219 227.411 610.706 226.784C611.199 226.151 611.446 225.227 611.446 224.013C611.446 222.81 611.199 221.897 610.706 221.276C610.219 220.648 609.497 220.335 608.541 220.335C607.595 220.335 606.882 220.643 606.401 221.259C605.92 221.874 605.679 222.792 605.679 224.013Z" fill="#56CCF2"/>
<path d="M620.43 227.371L620.7 226.568L621.074 225.549L623.657 219.307H625.493V228.752H624.214V220.939L624.04 221.44L623.536 222.761L621.074 228.752H619.865L617.404 222.744C617.096 221.972 616.885 221.371 616.769 220.939V228.752H615.481V219.307H617.247L619.743 225.308C619.993 225.941 620.222 226.629 620.43 227.371Z" fill="#56CCF2"/>
<path d="M628.372 227.837C628.372 227.452 628.459 227.161 628.633 226.965C628.812 226.764 629.067 226.663 629.398 226.663C629.734 226.663 629.995 226.764 630.181 226.965C630.372 227.161 630.468 227.452 630.468 227.837C630.468 228.211 630.372 228.499 630.181 228.701C629.989 228.902 629.728 229.003 629.398 229.003C629.102 229.003 628.856 228.914 628.659 228.735C628.467 228.551 628.372 228.252 628.372 227.837Z" fill="#56CCF2"/>
</g>
<defs>
<filter id="filter0_d" x="455.381" y="50.8333" width="86.2725" height="79.5845" filterUnits="userSpaceOnUse" color-interpolation-filters="sRGB">
<feFlood flood-opacity="0" result="BackgroundImageFix"/>
<feColorMatrix in="SourceAlpha" type="matrix" values="0 0 0 0 0 0 0 0 0 0 0 0 0 0 0 0 0 0 127 0" result="hardAlpha"/>
<feOffset dy="4.59487"/>
<feGaussianBlur stdDeviation="2.29744"/>
<feColorMatrix type="matrix" values="0 0 0 0 0 0 0 0 0 0 0 0 0 0 0 0 0 0 0.25 0"/>
<feBlend mode="normal" in2="BackgroundImageFix" result="effect1_dropShadow"/>
<feBlend mode="normal" in="SourceGraphic" in2="effect1_dropShadow" result="shape"/>
</filter>
<filter id="filter1_d" x="445.672" y="53.4985" width="89.519" height="79.962" filterUnits="userSpaceOnUse" color-interpolation-filters="sRGB">
<feFlood flood-opacity="0" result="BackgroundImageFix"/>
<feColorMatrix in="SourceAlpha" type="matrix" values="0 0 0 0 0 0 0 0 0 0 0 0 0 0 0 0 0 0 127 0" result="hardAlpha"/>
<feOffset dy="4.59487"/>
<feGaussianBlur stdDeviation="2.29744"/>
<feColorMatrix type="matrix" values="0 0 0 0 0 0 0 0 0 0 0 0 0 0 0 0 0 0 0.25 0"/>
<feBlend mode="normal" in2="BackgroundImageFix" result="effect1_dropShadow"/>
<feBlend mode="normal" in="SourceGraphic" in2="effect1_dropShadow" result="shape"/>
</filter>
<linearGradient id="paint0_linear" x1="443.036" y1="156.478" x2="427.311" y2="143.288" gradientUnits="userSpaceOnUse">
<stop stop-color="#471AC6" stop-opacity="0"/>
<stop offset="0.23462" stop-color="#471AC6" stop-opacity="0.29264"/>
<stop offset="0.52244" stop-color="#471AC6" stop-opacity="0.65165"/>
<stop offset="0.72155" stop-color="#471AC6" stop-opacity="0.9"/>
</linearGradient>
<linearGradient id="paint1_linear" x1="499.269" y1="74.5422" x2="514.755" y2="94.9181" gradientUnits="userSpaceOnUse">
<stop stop-color="#6130EE"/>
<stop offset="1" stop-color="#1FD6E3"/>
</linearGradient>
<linearGradient id="paint2_linear" x1="503.822" y1="76.942" x2="529.908" y2="113.188" gradientUnits="userSpaceOnUse">
<stop/>
<stop offset="1" stop-opacity="0"/>
</linearGradient>
<linearGradient id="paint3_linear" x1="506.099" y1="70.7712" x2="532.185" y2="107.017" gradientUnits="userSpaceOnUse">
<stop/>
<stop offset="1" stop-opacity="0"/>
</linearGradient>
<linearGradient id="paint4_linear" x1="462.497" y1="105.968" x2="493.355" y2="68.0937" gradientUnits="userSpaceOnUse">
<stop stop-color="#6130EE"/>
<stop offset="1" stop-color="#1FD6E3"/>
</linearGradient>
<linearGradient id="paint5_linear" x1="476.158" y1="102.425" x2="507.816" y2="69.8622" gradientUnits="userSpaceOnUse">
<stop/>
<stop offset="1" stop-opacity="0"/>
</linearGradient>
<linearGradient id="paint6_linear" x1="472.402" y1="101.054" x2="498.504" y2="57.0303" gradientUnits="userSpaceOnUse">
<stop/>
<stop offset="1" stop-opacity="0"/>
</linearGradient>
<linearGradient id="paint7_linear" x1="505.53" y1="102.082" x2="479.872" y2="115.829" gradientUnits="userSpaceOnUse">
<stop stop-color="#6130EE"/>
<stop offset="1" stop-color="#1FD6E3"/>
</linearGradient>
<linearGradient id="paint8_linear" x1="523.745" y1="103.682" x2="482.951" y2="118.894" gradientUnits="userSpaceOnUse">
<stop/>
<stop offset="1" stop-opacity="0"/>
</linearGradient>
</defs>
</svg>
