<svg width="1000" height="300" viewBox="0 0 1000 300" fill="none" xmlns="http://www.w3.org/2000/svg">
<rect width="1000" height="300" rx="15" fill="#1D1246"/>
<path d="M441.68 134.918L444.99 140.917L452.365 154.29H458.598L448.108 135.266L444.799 129.267L441.68 134.918Z" fill="#1FD6E3"/>
<path opacity="0.47" d="M441.68 134.918L444.99 140.917L452.365 154.29H458.598L448.108 135.266L444.799 129.267L441.68 134.918Z" fill="url(#paint0_linear)"/>
<path d="M431 154.291H437.618L444.991 140.918L448.109 135.267L444.799 129.268L441.681 134.919L431 154.291Z" fill="#6130EE"/>
<path d="M479.453 145.132C479.453 150.24 475.326 154.396 470.254 154.396C465.182 154.396 461.056 150.24 461.056 145.132L461.056 135.766H465.764V145.132C465.764 147.626 467.778 149.654 470.254 149.654C472.73 149.654 474.745 147.626 474.745 145.132V135.766H479.453V145.132Z" fill="#1FD6E3"/>
<path d="M492.072 135.463V140.254C490.152 140.254 488.589 141.828 488.589 143.763V154.183H483.833V143.763H483.832C483.832 139.186 487.529 135.463 492.072 135.463Z" fill="#1FD6E3"/>
<path d="M513.597 146.86C513.715 146.272 513.773 145.665 513.773 145.044C513.773 144.463 513.722 143.897 513.619 143.346C512.826 138.87 508.929 135.463 504.261 135.463C499.017 135.463 494.75 139.762 494.75 145.044C494.75 150.326 499.017 154.624 504.261 154.624C508.386 154.624 511.904 151.964 513.223 148.262H507.758C506.891 149.216 505.646 149.815 504.261 149.815C502.289 149.815 500.592 148.591 499.884 146.86H508.643H513.597ZM499.836 143.346C500.515 141.552 502.245 140.272 504.261 140.272C506.281 140.272 508.008 141.552 508.691 143.346H499.836Z" fill="#1FD6E3"/>
<path d="M544.687 154.29H539.907V129.267H544.687V154.29Z" fill="#1FD6E3"/>
<path d="M567.508 146.86C567.626 146.272 567.685 145.665 567.685 145.044C567.685 144.463 567.633 143.897 567.531 143.346C566.737 138.87 562.841 135.463 558.172 135.463C552.928 135.463 548.661 139.762 548.661 145.044C548.661 150.326 552.928 154.624 558.172 154.624C562.297 154.624 565.815 151.964 567.134 148.262H561.669C560.802 149.216 559.557 149.815 558.172 149.815C556.2 149.815 554.504 148.591 553.795 146.86H562.554H567.508ZM553.747 143.346C554.427 141.552 556.157 140.272 558.172 140.272C560.193 140.272 561.919 141.552 562.602 143.346H553.747Z" fill="#1FD6E3"/>
<path d="M526.385 154.864C521.025 154.864 516.664 150.452 516.664 145.029C516.664 139.605 521.025 135.193 526.385 135.193C531.746 135.193 536.108 139.605 536.108 145.029C536.108 150.452 531.746 154.864 526.385 154.864ZM526.385 140.13C523.715 140.13 521.544 142.327 521.544 145.029C521.544 147.73 523.715 149.927 526.385 149.927C529.055 149.927 531.227 147.73 531.227 145.029C531.227 142.327 529.055 140.13 526.385 140.13Z" fill="#1FD6E3"/>
<mask id="mask0" mask-type="alpha" maskUnits="userSpaceOnUse" x="476" y="75" width="47" height="47">
<path fill-rule="evenodd" clip-rule="evenodd" d="M499.852 121.075C512.528 121.075 522.803 110.761 522.803 98.0377C522.803 85.3143 512.528 75 499.852 75C487.177 75 476.902 85.3143 476.902 98.0377C476.902 110.761 487.177 121.075 499.852 121.075ZM499.616 108.313C505.4 108.313 510.089 103.606 510.089 97.8C510.089 91.9937 505.4 87.2868 499.616 87.2868C493.831 87.2868 489.142 91.9937 489.142 97.8C489.142 103.606 493.831 108.313 499.616 108.313Z" fill="#C4C4C4"/>
</mask>
<g mask="url(#mask0)">
<mask id="mask1" mask-type="alpha" maskUnits="userSpaceOnUse" x="476" y="75" width="47" height="47">
<ellipse rx="22.9508" ry="23.0377" transform="matrix(1 0 0 -1 499.852 98.0378)" fill="black"/>
</mask>
<g mask="url(#mask1)">
<path d="M516.428 102.335C517.788 110.345 510.417 118.668 506.046 120.344L516.428 124.367L526.446 115.133L527.812 84.5992L509.415 74.3602L497.12 81.7652L484.461 89.9015C485.159 95.7828 490.199 105.717 490.199 98.8606C490.199 92.0041 495.299 88.8045 499.761 88.713C504.224 88.6216 515.022 94.0513 516.428 102.335Z" fill="#504444"/>
<path d="M516.428 102.335C517.788 110.345 510.417 118.668 506.046 120.344L516.428 124.367L526.446 115.133L527.812 84.5992L509.415 74.3602L497.12 81.7652L484.461 89.9015C485.159 95.7828 490.199 105.717 490.199 98.8606C490.199 92.0041 495.299 88.8045 499.761 88.713C504.224 88.6216 515.022 94.0513 516.428 102.335Z" fill="url(#paint1_linear)"/>
<path opacity="0.1" d="M518.487 101.432C519.046 112.322 507.9 122.247 501.8 123.788L515.032 130.792L529.857 120.074L536.469 79.6L513.509 63.0433L495.931 70.965L477.752 79.8036C477.762 87.7516 482.933 101.788 484.008 92.6508C485.083 83.5138 492.395 80.0572 498.368 80.6418C504.341 81.2264 517.908 90.1713 518.487 101.432Z" fill="url(#paint2_linear)"/>
<path opacity="0.1" d="M520.308 96.4954C520.868 107.385 509.721 117.31 503.621 118.852L516.854 125.855L531.678 115.137L538.29 74.6632L515.331 58.1066L497.752 66.0282L479.573 74.8668C479.583 82.8148 484.755 96.851 485.83 87.714C486.905 78.5771 494.217 75.1205 500.19 75.7051C506.163 76.2897 519.73 85.2346 520.308 96.4954Z" fill="url(#paint3_linear)"/>
<path d="M496.756 83.8677C487.193 91.3641 488.614 110.325 502.403 108.277C516.192 106.229 500.672 113.945 500.672 113.945L481.091 109.557L474.898 100.323L472.166 76.9199L510.235 68.7835L519.707 80.0281L517.521 83.3192C514.364 78.5045 503.149 78.8558 496.756 83.8677Z" fill="#E9CBCB"/>
<path d="M496.756 83.8677C487.193 91.3641 488.614 110.325 502.403 108.277C516.192 106.229 500.672 113.945 500.672 113.945L481.091 109.557L474.898 100.323L472.166 76.9199L510.235 68.7835L519.707 80.0281L517.521 83.3192C514.364 78.5045 503.149 78.8558 496.756 83.8677Z" fill="url(#paint4_linear)"/>
<g opacity="0.1" filter="url(#filter0_d)">
<path d="M500.782 81.2633C486.212 85.7754 476.997 104.258 494.723 111.77C512.448 119.282 491.984 118.345 491.984 118.345L470.942 104.403L467.781 90.7791L474.997 62.0666L523.332 69.5974L529.447 87.0548L525.415 89.9392C523.851 82.8674 510.524 78.2466 500.782 81.2633Z" fill="url(#paint5_linear)"/>
</g>
<g opacity="0.1" filter="url(#filter1_d)">
<path d="M493.313 80.5997C478.656 87.4594 471.655 108.209 491.373 113.514C511.09 118.819 489.449 120.817 489.449 120.817L465.312 109.242L460.014 95.3976L463.429 64.1988L515.317 65.0663L524.277 82.5057L520.458 86.1217C517.788 78.9241 503.112 76.0133 493.313 80.5997Z" fill="url(#paint6_linear)"/>
</g>
<path d="M516.246 100.689C519.7 112.446 510.083 118.942 505.226 120.618L506.956 129.852L489.106 125.189L466.155 115.225L463.331 86.4275C466.549 85.8485 473.714 87.1405 476.628 96.9407C480.271 109.191 499.852 111.659 506.501 105.991C513.149 100.323 509.251 88.4204 503.423 89.3346C497.594 90.2488 499.67 87.5245 499.67 87.5245C505.195 86.1532 514.151 93.5582 516.246 100.689Z" fill="url(#paint7_linear)"/>
<path opacity="0.15" d="M516.701 102.7C518.067 115.383 507.897 119.857 503.04 121.533L508.14 130.243L490.29 125.58L467.339 115.615L464.516 86.8183C467.733 86.2393 469.889 92.9001 472.803 102.7C476.446 114.95 496.633 122.916 505.135 112.756C510.613 106.21 512.33 89.9929 506.501 90.9071C500.672 91.8213 500.854 87.9153 500.854 87.9153C506.38 86.544 515.905 95.309 516.701 102.7Z" fill="url(#paint8_linear)"/>
</g>
</g>
<g opacity="0.7">
<path d="M288.586 176.602C287.331 176.602 286.339 177.021 285.609 177.859C284.885 178.693 284.523 179.836 284.523 181.289C284.523 182.784 284.872 183.94 285.57 184.758C286.273 185.57 287.273 185.977 288.57 185.977C289.367 185.977 290.276 185.833 291.297 185.547V186.711C290.505 187.008 289.529 187.156 288.367 187.156C286.685 187.156 285.385 186.646 284.469 185.625C283.557 184.604 283.102 183.154 283.102 181.273C283.102 180.096 283.32 179.065 283.758 178.18C284.201 177.294 284.836 176.612 285.664 176.133C286.497 175.654 287.477 175.414 288.602 175.414C289.799 175.414 290.846 175.633 291.742 176.07L291.18 177.211C290.315 176.805 289.451 176.602 288.586 176.602Z" fill="#56CCF2"/>
<path d="M298.859 187L298.602 185.781H298.539C298.112 186.318 297.685 186.682 297.258 186.875C296.836 187.062 296.307 187.156 295.672 187.156C294.823 187.156 294.156 186.938 293.672 186.5C293.193 186.062 292.953 185.44 292.953 184.633C292.953 182.904 294.336 181.997 297.102 181.914L298.555 181.867V181.336C298.555 180.664 298.409 180.169 298.117 179.852C297.831 179.529 297.37 179.367 296.734 179.367C296.021 179.367 295.214 179.586 294.312 180.023L293.914 179.031C294.336 178.802 294.797 178.622 295.297 178.492C295.802 178.362 296.307 178.297 296.812 178.297C297.833 178.297 298.589 178.523 299.078 178.977C299.573 179.43 299.82 180.156 299.82 181.156V187H298.859ZM295.93 186.086C296.737 186.086 297.37 185.865 297.828 185.422C298.292 184.979 298.523 184.359 298.523 183.562V182.789L297.227 182.844C296.195 182.88 295.451 183.042 294.992 183.328C294.539 183.609 294.312 184.049 294.312 184.648C294.312 185.117 294.453 185.474 294.734 185.719C295.021 185.964 295.419 186.086 295.93 186.086Z" fill="#56CCF2"/>
<path d="M306.945 185.75L307.188 185.023L307.523 184.102L309.844 178.453H311.492V187H310.344V179.93L310.188 180.383L309.734 181.578L307.523 187H306.438L304.227 181.562C303.951 180.865 303.76 180.32 303.656 179.93V187H302.5V178.453H304.086L306.328 183.883C306.552 184.456 306.758 185.078 306.945 185.75Z" fill="#56CCF2"/>
<path d="M315.562 181.977H317.898C318.987 181.977 319.792 182.18 320.312 182.586C320.839 182.987 321.102 183.589 321.102 184.391C321.102 185.25 320.823 185.901 320.266 186.344C319.714 186.781 318.898 187 317.82 187H314.266V178.438H315.562V181.977ZM323.836 187H322.539V178.438H323.836V187ZM315.562 183.094V185.914H317.758C319.133 185.914 319.82 185.432 319.82 184.469C319.82 183.99 319.661 183.641 319.344 183.422C319.026 183.203 318.484 183.094 317.719 183.094H315.562Z" fill="#56CCF2"/>
<path d="M327.812 178.438V183.867L327.758 185.289L327.734 185.734L332.367 178.438H333.984V187H332.773V181.766L332.797 180.734L332.836 179.719L328.211 187H326.594V178.438H327.812ZM330.258 177.305C329.294 177.305 328.591 177.12 328.148 176.75C327.706 176.375 327.458 175.76 327.406 174.906H328.625C328.672 175.448 328.812 175.826 329.047 176.039C329.286 176.253 329.701 176.359 330.289 176.359C330.826 176.359 331.221 176.245 331.477 176.016C331.737 175.786 331.896 175.417 331.953 174.906H333.18C333.117 175.729 332.854 176.336 332.391 176.727C331.927 177.112 331.216 177.305 330.258 177.305Z" fill="#56CCF2"/>
<path d="M346.047 179.547H342.188V187H340.891V178.438H346.047V179.547Z" fill="#56CCF2"/>
<path d="M348.969 178.438V183.867L348.914 185.289L348.891 185.734L353.523 178.438H355.141V187H353.93V181.766L353.953 180.734L353.992 179.719L349.367 187H347.75V178.438H348.969Z" fill="#56CCF2"/>
<path d="M357.445 181.867C357.445 179.992 357.721 178.531 358.273 177.484C358.826 176.432 359.701 175.776 360.898 175.516C362.388 175.198 363.701 174.94 364.836 174.742L365.078 175.883C363.271 176.185 361.979 176.424 361.203 176.602C360.448 176.773 359.88 177.18 359.5 177.82C359.125 178.461 358.919 179.333 358.883 180.438H358.977C359.299 180 359.716 179.656 360.227 179.406C360.737 179.156 361.271 179.031 361.828 179.031C362.88 179.031 363.701 179.372 364.289 180.055C364.878 180.737 365.172 181.682 365.172 182.891C365.172 184.229 364.831 185.276 364.148 186.031C363.466 186.781 362.516 187.156 361.297 187.156C360.094 187.156 359.151 186.695 358.469 185.773C357.786 184.852 357.445 183.549 357.445 181.867ZM361.414 186.07C363.003 186.07 363.797 185.057 363.797 183.031C363.797 181.099 363.076 180.133 361.633 180.133C361.237 180.133 360.854 180.216 360.484 180.383C360.12 180.544 359.784 180.76 359.477 181.031C359.174 181.302 358.94 181.581 358.773 181.867C358.773 183.237 358.99 184.281 359.422 185C359.854 185.714 360.518 186.07 361.414 186.07Z" fill="#56CCF2"/>
<path d="M372.43 178.438H373.852L370.156 182.57L374.156 187H372.641L368.734 182.664V187H367.438V178.438H368.734V182.602L372.43 178.438Z" fill="#56CCF2"/>
<path d="M376.969 178.438V183.867L376.914 185.289L376.891 185.734L381.523 178.438H383.141V187H381.93V181.766L381.953 180.734L381.992 179.719L377.367 187H375.75V178.438H376.969Z" fill="#56CCF2"/>
<path d="M387.109 178.438V183.867L387.055 185.289L387.031 185.734L391.664 178.438H393.281V187H392.07V181.766L392.094 180.734L392.133 179.719L387.508 187H385.891V178.438H387.109ZM389.555 177.305C388.591 177.305 387.888 177.12 387.445 176.75C387.003 176.375 386.755 175.76 386.703 174.906H387.922C387.969 175.448 388.109 175.826 388.344 176.039C388.583 176.253 388.997 176.359 389.586 176.359C390.122 176.359 390.518 176.245 390.773 176.016C391.034 175.786 391.193 175.417 391.25 174.906H392.477C392.414 175.729 392.151 176.336 391.688 176.727C391.224 177.112 390.513 177.305 389.555 177.305Z" fill="#56CCF2"/>
<path d="M401.406 178.438V183.867L401.352 185.289L401.328 185.734L405.961 178.438H407.578V187H406.367V181.766L406.391 180.734L406.43 179.719L401.805 187H400.188V178.438H401.406Z" fill="#56CCF2"/>
<path d="M417.906 187.156C416.667 187.156 415.706 186.776 415.023 186.016C414.346 185.25 414.008 184.169 414.008 182.773C414.008 181.341 414.352 180.234 415.039 179.453C415.732 178.672 416.716 178.281 417.992 178.281C418.404 178.281 418.815 178.326 419.227 178.414C419.638 178.503 419.961 178.607 420.195 178.727L419.797 179.828C419.51 179.714 419.198 179.62 418.859 179.547C418.521 179.469 418.221 179.43 417.961 179.43C416.221 179.43 415.352 180.539 415.352 182.758C415.352 183.81 415.562 184.617 415.984 185.18C416.411 185.742 417.042 186.023 417.875 186.023C418.589 186.023 419.32 185.87 420.07 185.562V186.711C419.497 187.008 418.776 187.156 417.906 187.156Z" fill="#56CCF2"/>
<path d="M429.5 182.711C429.5 184.107 429.148 185.198 428.445 185.984C427.742 186.766 426.771 187.156 425.531 187.156C424.766 187.156 424.086 186.977 423.492 186.617C422.898 186.258 422.44 185.742 422.117 185.07C421.794 184.398 421.633 183.612 421.633 182.711C421.633 181.315 421.982 180.229 422.68 179.453C423.378 178.672 424.346 178.281 425.586 178.281C426.784 178.281 427.734 178.68 428.438 179.477C429.146 180.273 429.5 181.352 429.5 182.711ZM422.977 182.711C422.977 183.805 423.195 184.638 423.633 185.211C424.07 185.784 424.714 186.07 425.562 186.07C426.411 186.07 427.055 185.786 427.492 185.219C427.935 184.646 428.156 183.81 428.156 182.711C428.156 181.622 427.935 180.797 427.492 180.234C427.055 179.667 426.406 179.383 425.547 179.383C424.698 179.383 424.057 179.661 423.625 180.219C423.193 180.776 422.977 181.607 422.977 182.711Z" fill="#56CCF2"/>
<path d="M438.727 180.586C438.727 181.143 438.565 181.568 438.242 181.859C437.924 182.146 437.477 182.339 436.898 182.438V182.508C437.628 182.607 438.159 182.82 438.492 183.148C438.831 183.477 439 183.93 439 184.508C439 185.305 438.706 185.919 438.117 186.352C437.534 186.784 436.68 187 435.555 187H431.781V178.438H435.539C437.664 178.438 438.727 179.154 438.727 180.586ZM437.703 184.422C437.703 183.958 437.526 183.622 437.172 183.414C436.823 183.201 436.242 183.094 435.43 183.094H433.078V185.914H435.461C436.956 185.914 437.703 185.417 437.703 184.422ZM437.461 180.711C437.461 180.294 437.299 180 436.977 179.828C436.659 179.651 436.174 179.562 435.523 179.562H433.078V181.977H435.273C436.076 181.977 436.641 181.878 436.969 181.68C437.297 181.482 437.461 181.159 437.461 180.711Z" fill="#56CCF2"/>
<path d="M444.875 187.156C444.318 187.156 443.807 187.055 443.344 186.852C442.885 186.643 442.5 186.326 442.188 185.898H442.094C442.156 186.398 442.188 186.872 442.188 187.32V190.844H440.891V178.438H441.945L442.125 179.609H442.188C442.521 179.141 442.909 178.802 443.352 178.594C443.794 178.385 444.302 178.281 444.875 178.281C446.01 178.281 446.885 178.669 447.5 179.445C448.12 180.221 448.43 181.31 448.43 182.711C448.43 184.117 448.115 185.211 447.484 185.992C446.859 186.768 445.99 187.156 444.875 187.156ZM444.688 179.383C443.812 179.383 443.18 179.625 442.789 180.109C442.398 180.594 442.198 181.365 442.188 182.422V182.711C442.188 183.914 442.388 184.776 442.789 185.297C443.19 185.812 443.833 186.07 444.719 186.07C445.458 186.07 446.036 185.771 446.453 185.172C446.875 184.573 447.086 183.747 447.086 182.695C447.086 181.628 446.875 180.81 446.453 180.242C446.036 179.669 445.448 179.383 444.688 179.383Z" fill="#56CCF2"/>
<path d="M454.32 187.156C453.055 187.156 452.055 186.771 451.32 186C450.591 185.229 450.227 184.159 450.227 182.789C450.227 181.409 450.565 180.312 451.242 179.5C451.924 178.688 452.839 178.281 453.984 178.281C455.057 178.281 455.906 178.635 456.531 179.344C457.156 180.047 457.469 180.977 457.469 182.133V182.953H451.57C451.596 183.958 451.849 184.721 452.328 185.242C452.812 185.763 453.492 186.023 454.367 186.023C455.289 186.023 456.201 185.831 457.102 185.445V186.602C456.643 186.799 456.208 186.94 455.797 187.023C455.391 187.112 454.898 187.156 454.32 187.156ZM453.969 179.367C453.281 179.367 452.732 179.591 452.32 180.039C451.914 180.487 451.674 181.107 451.602 181.898H456.078C456.078 181.081 455.896 180.456 455.531 180.023C455.167 179.586 454.646 179.367 453.969 179.367Z" fill="#56CCF2"/>
<path d="M464.133 185.75L464.375 185.023L464.711 184.102L467.031 178.453H468.68V187H467.531V179.93L467.375 180.383L466.922 181.578L464.711 187H463.625L461.414 181.562C461.138 180.865 460.948 180.32 460.844 179.93V187H459.688V178.453H461.273L463.516 183.883C463.74 184.456 463.945 185.078 464.133 185.75Z" fill="#56CCF2"/>
<path d="M475.07 187.156C473.805 187.156 472.805 186.771 472.07 186C471.341 185.229 470.977 184.159 470.977 182.789C470.977 181.409 471.315 180.312 471.992 179.5C472.674 178.688 473.589 178.281 474.734 178.281C475.807 178.281 476.656 178.635 477.281 179.344C477.906 180.047 478.219 180.977 478.219 182.133V182.953H472.32C472.346 183.958 472.599 184.721 473.078 185.242C473.562 185.763 474.242 186.023 475.117 186.023C476.039 186.023 476.951 185.831 477.852 185.445V186.602C477.393 186.799 476.958 186.94 476.547 187.023C476.141 187.112 475.648 187.156 475.07 187.156ZM474.719 179.367C474.031 179.367 473.482 179.591 473.07 180.039C472.664 180.487 472.424 181.107 472.352 181.898H476.828C476.828 181.081 476.646 180.456 476.281 180.023C475.917 179.586 475.396 179.367 474.719 179.367Z" fill="#56CCF2"/>
<path d="M481.734 178.438V182.023H486.531V178.438H487.828V187H486.531V183.141H481.734V187H480.438V178.438H481.734Z" fill="#56CCF2"/>
<path d="M491.875 178.438V182.023H496.672V178.438H497.969V187H496.672V183.141H491.875V187H490.578V178.438H491.875Z" fill="#56CCF2"/>
<path d="M502.016 181.977H504.352C505.44 181.977 506.245 182.18 506.766 182.586C507.292 182.987 507.555 183.589 507.555 184.391C507.555 185.25 507.276 185.901 506.719 186.344C506.167 186.781 505.352 187 504.273 187H500.719V178.438H502.016V181.977ZM510.289 187H508.992V178.438H510.289V187ZM502.016 183.094V185.914H504.211C505.586 185.914 506.273 185.432 506.273 184.469C506.273 183.99 506.115 183.641 505.797 183.422C505.479 183.203 504.938 183.094 504.172 183.094H502.016Z" fill="#56CCF2"/>
<path d="M514.266 178.438V183.867L514.211 185.289L514.188 185.734L518.82 178.438H520.438V187H519.227V181.766L519.25 180.734L519.289 179.719L514.664 187H513.047V178.438H514.266ZM516.711 177.305C515.747 177.305 515.044 177.12 514.602 176.75C514.159 176.375 513.911 175.76 513.859 174.906H515.078C515.125 175.448 515.266 175.826 515.5 176.039C515.74 176.253 516.154 176.359 516.742 176.359C517.279 176.359 517.674 176.245 517.93 176.016C518.19 175.786 518.349 175.417 518.406 174.906H519.633C519.57 175.729 519.307 176.336 518.844 176.727C518.38 177.112 517.669 177.305 516.711 177.305Z" fill="#56CCF2"/>
<path d="M530.766 187.156C529.526 187.156 528.565 186.776 527.883 186.016C527.206 185.25 526.867 184.169 526.867 182.773C526.867 181.341 527.211 180.234 527.898 179.453C528.591 178.672 529.576 178.281 530.852 178.281C531.263 178.281 531.674 178.326 532.086 178.414C532.497 178.503 532.82 178.607 533.055 178.727L532.656 179.828C532.37 179.714 532.057 179.62 531.719 179.547C531.38 179.469 531.081 179.43 530.82 179.43C529.081 179.43 528.211 180.539 528.211 182.758C528.211 183.81 528.422 184.617 528.844 185.18C529.271 185.742 529.901 186.023 530.734 186.023C531.448 186.023 532.18 185.87 532.93 185.562V186.711C532.357 187.008 531.635 187.156 530.766 187.156Z" fill="#56CCF2"/>
<path d="M538.586 187.156C537.32 187.156 536.32 186.771 535.586 186C534.857 185.229 534.492 184.159 534.492 182.789C534.492 181.409 534.831 180.312 535.508 179.5C536.19 178.688 537.104 178.281 538.25 178.281C539.323 178.281 540.172 178.635 540.797 179.344C541.422 180.047 541.734 180.977 541.734 182.133V182.953H535.836C535.862 183.958 536.115 184.721 536.594 185.242C537.078 185.763 537.758 186.023 538.633 186.023C539.555 186.023 540.466 185.831 541.367 185.445V186.602C540.909 186.799 540.474 186.94 540.062 187.023C539.656 187.112 539.164 187.156 538.586 187.156ZM538.234 179.367C537.547 179.367 536.997 179.591 536.586 180.039C536.18 180.487 535.94 181.107 535.867 181.898H540.344C540.344 181.081 540.161 180.456 539.797 180.023C539.432 179.586 538.911 179.367 538.234 179.367Z" fill="#56CCF2"/>
<path d="M547.938 187.156C547.38 187.156 546.87 187.055 546.406 186.852C545.948 186.643 545.562 186.326 545.25 185.898H545.156C545.219 186.398 545.25 186.872 545.25 187.32V190.844H543.953V178.438H545.008L545.188 179.609H545.25C545.583 179.141 545.971 178.802 546.414 178.594C546.857 178.385 547.365 178.281 547.938 178.281C549.073 178.281 549.948 178.669 550.562 179.445C551.182 180.221 551.492 181.31 551.492 182.711C551.492 184.117 551.177 185.211 550.547 185.992C549.922 186.768 549.052 187.156 547.938 187.156ZM547.75 179.383C546.875 179.383 546.242 179.625 545.852 180.109C545.461 180.594 545.26 181.365 545.25 182.422V182.711C545.25 183.914 545.451 184.776 545.852 185.297C546.253 185.812 546.896 186.07 547.781 186.07C548.521 186.07 549.099 185.771 549.516 185.172C549.938 184.573 550.148 183.747 550.148 182.695C550.148 181.628 549.938 180.81 549.516 180.242C549.099 179.669 548.51 179.383 547.75 179.383Z" fill="#56CCF2"/>
<path d="M560.711 180.586C560.711 181.143 560.549 181.568 560.227 181.859C559.909 182.146 559.461 182.339 558.883 182.438V182.508C559.612 182.607 560.143 182.82 560.477 183.148C560.815 183.477 560.984 183.93 560.984 184.508C560.984 185.305 560.69 185.919 560.102 186.352C559.518 186.784 558.664 187 557.539 187H553.766V178.438H557.523C559.648 178.438 560.711 179.154 560.711 180.586ZM559.688 184.422C559.688 183.958 559.51 183.622 559.156 183.414C558.807 183.201 558.227 183.094 557.414 183.094H555.062V185.914H557.445C558.94 185.914 559.688 185.417 559.688 184.422ZM559.445 180.711C559.445 180.294 559.284 180 558.961 179.828C558.643 179.651 558.159 179.562 557.508 179.562H555.062V181.977H557.258C558.06 181.977 558.625 181.878 558.953 181.68C559.281 181.482 559.445 181.159 559.445 180.711Z" fill="#56CCF2"/>
<path d="M566.492 187.156C565.227 187.156 564.227 186.771 563.492 186C562.763 185.229 562.398 184.159 562.398 182.789C562.398 181.409 562.737 180.312 563.414 179.5C564.096 178.688 565.01 178.281 566.156 178.281C567.229 178.281 568.078 178.635 568.703 179.344C569.328 180.047 569.641 180.977 569.641 182.133V182.953H563.742C563.768 183.958 564.021 184.721 564.5 185.242C564.984 185.763 565.664 186.023 566.539 186.023C567.461 186.023 568.372 185.831 569.273 185.445V186.602C568.815 186.799 568.38 186.94 567.969 187.023C567.562 187.112 567.07 187.156 566.492 187.156ZM566.141 179.367C565.453 179.367 564.904 179.591 564.492 180.039C564.086 180.487 563.846 181.107 563.773 181.898H568.25C568.25 181.081 568.068 180.456 567.703 180.023C567.339 179.586 566.818 179.367 566.141 179.367Z" fill="#56CCF2"/>
<path d="M575.844 187.156C575.286 187.156 574.776 187.055 574.312 186.852C573.854 186.643 573.469 186.326 573.156 185.898H573.062C573.125 186.398 573.156 186.872 573.156 187.32V190.844H571.859V178.438H572.914L573.094 179.609H573.156C573.49 179.141 573.878 178.802 574.32 178.594C574.763 178.385 575.271 178.281 575.844 178.281C576.979 178.281 577.854 178.669 578.469 179.445C579.089 180.221 579.398 181.31 579.398 182.711C579.398 184.117 579.083 185.211 578.453 185.992C577.828 186.768 576.958 187.156 575.844 187.156ZM575.656 179.383C574.781 179.383 574.148 179.625 573.758 180.109C573.367 180.594 573.167 181.365 573.156 182.422V182.711C573.156 183.914 573.357 184.776 573.758 185.297C574.159 185.812 574.802 186.07 575.688 186.07C576.427 186.07 577.005 185.771 577.422 185.172C577.844 184.573 578.055 183.747 578.055 182.695C578.055 181.628 577.844 180.81 577.422 180.242C577.005 179.669 576.417 179.383 575.656 179.383Z" fill="#56CCF2"/>
<path d="M591.094 187L590.836 185.781H590.773C590.346 186.318 589.919 186.682 589.492 186.875C589.07 187.062 588.542 187.156 587.906 187.156C587.057 187.156 586.391 186.938 585.906 186.5C585.427 186.062 585.188 185.44 585.188 184.633C585.188 182.904 586.57 181.997 589.336 181.914L590.789 181.867V181.336C590.789 180.664 590.643 180.169 590.352 179.852C590.065 179.529 589.604 179.367 588.969 179.367C588.255 179.367 587.448 179.586 586.547 180.023L586.148 179.031C586.57 178.802 587.031 178.622 587.531 178.492C588.036 178.362 588.542 178.297 589.047 178.297C590.068 178.297 590.823 178.523 591.312 178.977C591.807 179.43 592.055 180.156 592.055 181.156V187H591.094ZM588.164 186.086C588.971 186.086 589.604 185.865 590.062 185.422C590.526 184.979 590.758 184.359 590.758 183.562V182.789L589.461 182.844C588.43 182.88 587.685 183.042 587.227 183.328C586.773 183.609 586.547 184.049 586.547 184.648C586.547 185.117 586.688 185.474 586.969 185.719C587.255 185.964 587.654 186.086 588.164 186.086Z" fill="#56CCF2"/>
<path d="M593.375 178.438H594.766L596.641 183.32C597.052 184.435 597.307 185.24 597.406 185.734H597.469C597.536 185.469 597.677 185.016 597.891 184.375C598.109 183.729 598.818 181.75 600.016 178.438H601.406L597.727 188.188C597.362 189.151 596.935 189.833 596.445 190.234C595.961 190.641 595.365 190.844 594.656 190.844C594.26 190.844 593.87 190.799 593.484 190.711V189.672C593.771 189.734 594.091 189.766 594.445 189.766C595.336 189.766 595.971 189.266 596.352 188.266L596.828 187.047L593.375 178.438Z" fill="#56CCF2"/>
<path d="M608.57 179.547H605.789V187H604.492V179.547H601.742V178.438H608.57V179.547Z" fill="#56CCF2"/>
<path d="M613.883 187.156C612.617 187.156 611.617 186.771 610.883 186C610.154 185.229 609.789 184.159 609.789 182.789C609.789 181.409 610.128 180.312 610.805 179.5C611.487 178.688 612.401 178.281 613.547 178.281C614.62 178.281 615.469 178.635 616.094 179.344C616.719 180.047 617.031 180.977 617.031 182.133V182.953H611.133C611.159 183.958 611.411 184.721 611.891 185.242C612.375 185.763 613.055 186.023 613.93 186.023C614.852 186.023 615.763 185.831 616.664 185.445V186.602C616.206 186.799 615.771 186.94 615.359 187.023C614.953 187.112 614.461 187.156 613.883 187.156ZM613.531 179.367C612.844 179.367 612.294 179.591 611.883 180.039C611.477 180.487 611.237 181.107 611.164 181.898H615.641C615.641 181.081 615.458 180.456 615.094 180.023C614.729 179.586 614.208 179.367 613.531 179.367Z" fill="#56CCF2"/>
<path d="M620.547 178.438V182.023H625.344V178.438H626.641V187H625.344V183.141H620.547V187H619.25V178.438H620.547Z" fill="#56CCF2"/>
<path d="M635.164 179.547H632.383V187H631.086V179.547H628.336V178.438H635.164V179.547Z" fill="#56CCF2"/>
<path d="M638.078 178.438V183.867L638.023 185.289L638 185.734L642.633 178.438H644.25V187H643.039V181.766L643.062 180.734L643.102 179.719L638.477 187H636.859V178.438H638.078Z" fill="#56CCF2"/>
<path d="M656.172 182.711C656.172 184.008 655.802 185.042 655.062 185.812C654.328 186.578 653.299 187.016 651.977 187.125V190.844H650.695V187.125C649.404 187.026 648.383 186.583 647.633 185.797C646.883 185.01 646.508 183.982 646.508 182.711C646.508 181.414 646.88 180.383 647.625 179.617C648.375 178.852 649.414 178.417 650.742 178.312V174.844H651.977V178.312C653.284 178.432 654.31 178.883 655.055 179.664C655.799 180.445 656.172 181.461 656.172 182.711ZM647.867 182.711C647.867 183.711 648.096 184.495 648.555 185.062C649.013 185.63 649.742 185.961 650.742 186.055V179.398C649.779 179.487 649.057 179.802 648.578 180.344C648.104 180.88 647.867 181.669 647.867 182.711ZM654.828 182.711C654.828 180.716 653.878 179.617 651.977 179.414V186.055C652.966 185.956 653.688 185.622 654.141 185.055C654.599 184.487 654.828 183.706 654.828 182.711Z" fill="#56CCF2"/>
<path d="M659.656 178.438V183.867L659.602 185.289L659.578 185.734L664.211 178.438H665.828V187H664.617V181.766L664.641 180.734L664.68 179.719L660.055 187H658.438V178.438H659.656Z" fill="#56CCF2"/>
<path d="M673.57 178.438H674.992L671.297 182.57L675.297 187H673.781L669.875 182.664V187H668.578V178.438H669.875V182.602L673.57 178.438Z" fill="#56CCF2"/>
<path d="M682.156 187L681.898 185.781H681.836C681.409 186.318 680.982 186.682 680.555 186.875C680.133 187.062 679.604 187.156 678.969 187.156C678.12 187.156 677.453 186.938 676.969 186.5C676.49 186.062 676.25 185.44 676.25 184.633C676.25 182.904 677.633 181.997 680.398 181.914L681.852 181.867V181.336C681.852 180.664 681.706 180.169 681.414 179.852C681.128 179.529 680.667 179.367 680.031 179.367C679.318 179.367 678.51 179.586 677.609 180.023L677.211 179.031C677.633 178.802 678.094 178.622 678.594 178.492C679.099 178.362 679.604 178.297 680.109 178.297C681.13 178.297 681.885 178.523 682.375 178.977C682.87 179.43 683.117 180.156 683.117 181.156V187H682.156ZM679.227 186.086C680.034 186.086 680.667 185.865 681.125 185.422C681.589 184.979 681.82 184.359 681.82 183.562V182.789L680.523 182.844C679.492 182.88 678.747 183.042 678.289 183.328C677.836 183.609 677.609 184.049 677.609 184.648C677.609 185.117 677.75 185.474 678.031 185.719C678.318 185.964 678.716 186.086 679.227 186.086Z" fill="#56CCF2"/>
<path d="M694.148 189.961H692.852V187H685.797V178.438H687.094V185.883H691.641V178.438H692.938V185.883H694.148V189.961Z" fill="#56CCF2"/>
<path d="M697.031 178.438V183.867L696.977 185.289L696.953 185.734L701.586 178.438H703.203V187H701.992V181.766L702.016 180.734L702.055 179.719L697.43 187H695.812V178.438H697.031Z" fill="#56CCF2"/>
<path d="M707.172 178.438V183.867L707.117 185.289L707.094 185.734L711.727 178.438H713.344V187H712.133V181.766L712.156 180.734L712.195 179.719L707.57 187H705.953V178.438H707.172Z" fill="#56CCF2"/>
<path d="M389.641 208.156C388.401 208.156 387.44 207.776 386.758 207.016C386.081 206.25 385.742 205.169 385.742 203.773C385.742 202.341 386.086 201.234 386.773 200.453C387.466 199.672 388.451 199.281 389.727 199.281C390.138 199.281 390.549 199.326 390.961 199.414C391.372 199.503 391.695 199.607 391.93 199.727L391.531 200.828C391.245 200.714 390.932 200.62 390.594 200.547C390.255 200.469 389.956 200.43 389.695 200.43C387.956 200.43 387.086 201.539 387.086 203.758C387.086 204.81 387.297 205.617 387.719 206.18C388.146 206.742 388.776 207.023 389.609 207.023C390.323 207.023 391.055 206.87 391.805 206.562V207.711C391.232 208.008 390.51 208.156 389.641 208.156Z" fill="#56CCF2"/>
<path d="M405.391 203.711C405.391 205.107 405.039 206.198 404.336 206.984C403.633 207.766 402.661 208.156 401.422 208.156C400.656 208.156 399.977 207.977 399.383 207.617C398.789 207.258 398.331 206.742 398.008 206.07C397.685 205.398 397.523 204.612 397.523 203.711C397.523 202.315 397.872 201.229 398.57 200.453C399.268 199.672 400.237 199.281 401.477 199.281C402.674 199.281 403.625 199.68 404.328 200.477C405.036 201.273 405.391 202.352 405.391 203.711ZM398.867 203.711C398.867 204.805 399.086 205.638 399.523 206.211C399.961 206.784 400.604 207.07 401.453 207.07C402.302 207.07 402.945 206.786 403.383 206.219C403.826 205.646 404.047 204.81 404.047 203.711C404.047 202.622 403.826 201.797 403.383 201.234C402.945 200.667 402.297 200.383 401.438 200.383C400.589 200.383 399.948 200.661 399.516 201.219C399.083 201.776 398.867 202.607 398.867 203.711Z" fill="#56CCF2"/>
<path d="M413.445 200.547H410.664V208H409.367V200.547H406.617V199.438H413.445V200.547Z" fill="#56CCF2"/>
<path d="M420.133 199.438H421.555L417.859 203.57L421.859 208H420.344L416.438 203.664V208H415.141V199.438H416.438V203.602L420.133 199.438Z" fill="#56CCF2"/>
<path d="M427.438 208.156C426.88 208.156 426.37 208.055 425.906 207.852C425.448 207.643 425.062 207.326 424.75 206.898H424.656C424.719 207.398 424.75 207.872 424.75 208.32V211.844H423.453V199.438H424.508L424.688 200.609H424.75C425.083 200.141 425.471 199.802 425.914 199.594C426.357 199.385 426.865 199.281 427.438 199.281C428.573 199.281 429.448 199.669 430.062 200.445C430.682 201.221 430.992 202.31 430.992 203.711C430.992 205.117 430.677 206.211 430.047 206.992C429.422 207.768 428.552 208.156 427.438 208.156ZM427.25 200.383C426.375 200.383 425.742 200.625 425.352 201.109C424.961 201.594 424.76 202.365 424.75 203.422V203.711C424.75 204.914 424.951 205.776 425.352 206.297C425.753 206.812 426.396 207.07 427.281 207.07C428.021 207.07 428.599 206.771 429.016 206.172C429.438 205.573 429.648 204.747 429.648 203.695C429.648 202.628 429.438 201.81 429.016 201.242C428.599 200.669 428.01 200.383 427.25 200.383Z" fill="#56CCF2"/>
<path d="M434.562 202.977H436.898C437.987 202.977 438.792 203.18 439.312 203.586C439.839 203.987 440.102 204.589 440.102 205.391C440.102 206.25 439.823 206.901 439.266 207.344C438.714 207.781 437.898 208 436.82 208H433.266V199.438H434.562V202.977ZM442.836 208H441.539V199.438H442.836V208ZM434.562 204.094V206.914H436.758C438.133 206.914 438.82 206.432 438.82 205.469C438.82 204.99 438.661 204.641 438.344 204.422C438.026 204.203 437.484 204.094 436.719 204.094H434.562Z" fill="#56CCF2"/>
<path d="M451.367 200.547H448.586V208H447.289V200.547H444.539V199.438H451.367V200.547Z" fill="#56CCF2"/>
<path d="M454.359 202.977H456.695C457.784 202.977 458.589 203.18 459.109 203.586C459.635 203.987 459.898 204.589 459.898 205.391C459.898 206.25 459.62 206.901 459.062 207.344C458.51 207.781 457.695 208 456.617 208H453.062V199.438H454.359V202.977ZM462.633 208H461.336V199.438H462.633V208ZM454.359 204.094V206.914H456.555C457.93 206.914 458.617 206.432 458.617 205.469C458.617 204.99 458.458 204.641 458.141 204.422C457.823 204.203 457.281 204.094 456.516 204.094H454.359Z" fill="#56CCF2"/>
<path d="M469.836 206.75L470.078 206.023L470.414 205.102L472.734 199.453H474.383V208H473.234V200.93L473.078 201.383L472.625 202.578L470.414 208H469.328L467.117 202.562C466.841 201.865 466.651 201.32 466.547 200.93V208H465.391V199.453H466.977L469.219 204.883C469.443 205.456 469.648 206.078 469.836 206.75Z" fill="#56CCF2"/>
<path d="M482.531 199.438V204.867L482.477 206.289L482.453 206.734L487.086 199.438H488.703V208H487.492V202.766L487.516 201.734L487.555 200.719L482.93 208H481.312V199.438H482.531Z" fill="#56CCF2"/>
<path d="M494.875 208.156C493.635 208.156 492.674 207.776 491.992 207.016C491.315 206.25 490.977 205.169 490.977 203.773C490.977 202.341 491.32 201.234 492.008 200.453C492.701 199.672 493.685 199.281 494.961 199.281C495.372 199.281 495.784 199.326 496.195 199.414C496.607 199.503 496.93 199.607 497.164 199.727L496.766 200.828C496.479 200.714 496.167 200.62 495.828 200.547C495.49 200.469 495.19 200.43 494.93 200.43C493.19 200.43 492.32 201.539 492.32 203.758C492.32 204.81 492.531 205.617 492.953 206.18C493.38 206.742 494.01 207.023 494.844 207.023C495.557 207.023 496.289 206.87 497.039 206.562V207.711C496.466 208.008 495.745 208.156 494.875 208.156Z" fill="#56CCF2"/>
<path d="M501.141 203.617L498.164 199.438H499.641L501.898 202.719L504.148 199.438H505.609L502.633 203.617L505.766 208H504.297L501.898 204.531L499.477 208H498.008L501.141 203.617Z" fill="#56CCF2"/>
<path d="M514.859 203.711C514.859 205.107 514.508 206.198 513.805 206.984C513.102 207.766 512.13 208.156 510.891 208.156C510.125 208.156 509.445 207.977 508.852 207.617C508.258 207.258 507.799 206.742 507.477 206.07C507.154 205.398 506.992 204.612 506.992 203.711C506.992 202.315 507.341 201.229 508.039 200.453C508.737 199.672 509.706 199.281 510.945 199.281C512.143 199.281 513.094 199.68 513.797 200.477C514.505 201.273 514.859 202.352 514.859 203.711ZM508.336 203.711C508.336 204.805 508.555 205.638 508.992 206.211C509.43 206.784 510.073 207.07 510.922 207.07C511.771 207.07 512.414 206.786 512.852 206.219C513.294 205.646 513.516 204.81 513.516 203.711C513.516 202.622 513.294 201.797 512.852 201.234C512.414 200.667 511.766 200.383 510.906 200.383C510.057 200.383 509.417 200.661 508.984 201.219C508.552 201.776 508.336 202.607 508.336 203.711Z" fill="#56CCF2"/>
<path d="M524.578 210.961H523.32V208H517.336V210.961H516.086V206.883H516.758C517.456 205.935 518.003 204.823 518.398 203.547C518.794 202.271 519 200.901 519.016 199.438H523.352V206.883H524.578V210.961ZM522.102 206.883V200.461H520.18C520.112 201.617 519.888 202.789 519.508 203.977C519.133 205.159 518.664 206.128 518.102 206.883H522.102Z" fill="#56CCF2"/>
<path d="M527.594 199.438V203.023H532.391V199.438H533.688V208H532.391V204.141H527.594V208H526.297V199.438H527.594Z" fill="#56CCF2"/>
<path d="M537.734 202.977H540.07C541.159 202.977 541.964 203.18 542.484 203.586C543.01 203.987 543.273 204.589 543.273 205.391C543.273 206.25 542.995 206.901 542.438 207.344C541.885 207.781 541.07 208 539.992 208H536.438V199.438H537.734V202.977ZM546.008 208H544.711V199.438H546.008V208ZM537.734 204.094V206.914H539.93C541.305 206.914 541.992 206.432 541.992 205.469C541.992 204.99 541.833 204.641 541.516 204.422C541.198 204.203 540.656 204.094 539.891 204.094H537.734Z" fill="#56CCF2"/>
<path d="M553.211 206.75L553.453 206.023L553.789 205.102L556.109 199.453H557.758V208H556.609V200.93L556.453 201.383L556 202.578L553.789 208H552.703L550.492 202.562C550.216 201.865 550.026 201.32 549.922 200.93V208H548.766V199.453H550.352L552.594 204.883C552.818 205.456 553.023 206.078 553.211 206.75Z" fill="#56CCF2"/>
<path d="M569.68 199.438H571.102L567.406 203.57L571.406 208H569.891L565.984 203.664V208H564.688V199.438H565.984V203.602L569.68 199.438Z" fill="#56CCF2"/>
<path d="M580.391 203.711C580.391 205.107 580.039 206.198 579.336 206.984C578.633 207.766 577.661 208.156 576.422 208.156C575.656 208.156 574.977 207.977 574.383 207.617C573.789 207.258 573.331 206.742 573.008 206.07C572.685 205.398 572.523 204.612 572.523 203.711C572.523 202.315 572.872 201.229 573.57 200.453C574.268 199.672 575.237 199.281 576.477 199.281C577.674 199.281 578.625 199.68 579.328 200.477C580.036 201.273 580.391 202.352 580.391 203.711ZM573.867 203.711C573.867 204.805 574.086 205.638 574.523 206.211C574.961 206.784 575.604 207.07 576.453 207.07C577.302 207.07 577.945 206.786 578.383 206.219C578.826 205.646 579.047 204.81 579.047 203.711C579.047 202.622 578.826 201.797 578.383 201.234C577.945 200.667 577.297 200.383 576.438 200.383C575.589 200.383 574.948 200.661 574.516 201.219C574.083 201.776 573.867 202.607 573.867 203.711Z" fill="#56CCF2"/>
<path d="M590.109 210.961H588.852V208H582.867V210.961H581.617V206.883H582.289C582.987 205.935 583.534 204.823 583.93 203.547C584.326 202.271 584.531 200.901 584.547 199.438H588.883V206.883H590.109V210.961ZM587.633 206.883V200.461H585.711C585.643 201.617 585.419 202.789 585.039 203.977C584.664 205.159 584.195 206.128 583.633 206.883H587.633Z" fill="#56CCF2"/>
<path d="M599.219 203.711C599.219 205.107 598.867 206.198 598.164 206.984C597.461 207.766 596.49 208.156 595.25 208.156C594.484 208.156 593.805 207.977 593.211 207.617C592.617 207.258 592.159 206.742 591.836 206.07C591.513 205.398 591.352 204.612 591.352 203.711C591.352 202.315 591.701 201.229 592.398 200.453C593.096 199.672 594.065 199.281 595.305 199.281C596.503 199.281 597.453 199.68 598.156 200.477C598.865 201.273 599.219 202.352 599.219 203.711ZM592.695 203.711C592.695 204.805 592.914 205.638 593.352 206.211C593.789 206.784 594.432 207.07 595.281 207.07C596.13 207.07 596.773 206.786 597.211 206.219C597.654 205.646 597.875 204.81 597.875 203.711C597.875 202.622 597.654 201.797 597.211 201.234C596.773 200.667 596.125 200.383 595.266 200.383C594.417 200.383 593.776 200.661 593.344 201.219C592.911 201.776 592.695 202.607 592.695 203.711Z" fill="#56CCF2"/>
<path d="M605.945 206.75L606.188 206.023L606.523 205.102L608.844 199.453H610.492V208H609.344V200.93L609.188 201.383L608.734 202.578L606.523 208H605.438L603.227 202.562C602.951 201.865 602.76 201.32 602.656 200.93V208H601.5V199.453H603.086L605.328 204.883C605.552 205.456 605.758 206.078 605.945 206.75Z" fill="#56CCF2"/>
<path d="M613.078 207.172C613.078 206.823 613.156 206.56 613.312 206.383C613.474 206.201 613.703 206.109 614 206.109C614.302 206.109 614.536 206.201 614.703 206.383C614.875 206.56 614.961 206.823 614.961 207.172C614.961 207.51 614.875 207.771 614.703 207.953C614.531 208.135 614.297 208.227 614 208.227C613.734 208.227 613.513 208.146 613.336 207.984C613.164 207.818 613.078 207.547 613.078 207.172Z" fill="#56CCF2"/>
</g>
<defs>
<filter id="filter0_d" x="463.186" y="62.0666" width="70.8559" height="65.5055" filterUnits="userSpaceOnUse" color-interpolation-filters="sRGB">
<feFlood flood-opacity="0" result="BackgroundImageFix"/>
<feColorMatrix in="SourceAlpha" type="matrix" values="0 0 0 0 0 0 0 0 0 0 0 0 0 0 0 0 0 0 127 0" result="hardAlpha"/>
<feOffset dy="4.59487"/>
<feGaussianBlur stdDeviation="2.29744"/>
<feColorMatrix type="matrix" values="0 0 0 0 0 0 0 0 0 0 0 0 0 0 0 0 0 0 0.25 0"/>
<feBlend mode="normal" in2="BackgroundImageFix" result="effect1_dropShadow"/>
<feBlend mode="normal" in="SourceGraphic" in2="effect1_dropShadow" result="shape"/>
</filter>
<filter id="filter1_d" x="455.419" y="64.1988" width="73.4531" height="65.8076" filterUnits="userSpaceOnUse" color-interpolation-filters="sRGB">
<feFlood flood-opacity="0" result="BackgroundImageFix"/>
<feColorMatrix in="SourceAlpha" type="matrix" values="0 0 0 0 0 0 0 0 0 0 0 0 0 0 0 0 0 0 127 0" result="hardAlpha"/>
<feOffset dy="4.59487"/>
<feGaussianBlur stdDeviation="2.29744"/>
<feColorMatrix type="matrix" values="0 0 0 0 0 0 0 0 0 0 0 0 0 0 0 0 0 0 0.25 0"/>
<feBlend mode="normal" in2="BackgroundImageFix" result="effect1_dropShadow"/>
<feBlend mode="normal" in="SourceGraphic" in2="effect1_dropShadow" result="shape"/>
</filter>
<linearGradient id="paint0_linear" x1="454.229" y1="146.583" x2="441.649" y2="136.031" gradientUnits="userSpaceOnUse">
<stop stop-color="#471AC6" stop-opacity="0"/>
<stop offset="0.23462" stop-color="#471AC6" stop-opacity="0.29264"/>
<stop offset="0.52244" stop-color="#471AC6" stop-opacity="0.65165"/>
<stop offset="0.72155" stop-color="#471AC6" stop-opacity="0.9"/>
</linearGradient>
<linearGradient id="paint1_linear" x1="499.215" y1="81.0338" x2="511.604" y2="97.3345" gradientUnits="userSpaceOnUse">
<stop stop-color="#6130EE"/>
<stop offset="1" stop-color="#1FD6E3"/>
</linearGradient>
<linearGradient id="paint2_linear" x1="502.858" y1="82.9536" x2="523.727" y2="111.95" gradientUnits="userSpaceOnUse">
<stop/>
<stop offset="1" stop-opacity="0"/>
</linearGradient>
<linearGradient id="paint3_linear" x1="504.679" y1="78.0169" x2="525.548" y2="107.014" gradientUnits="userSpaceOnUse">
<stop/>
<stop offset="1" stop-opacity="0"/>
</linearGradient>
<linearGradient id="paint4_linear" x1="469.798" y1="106.174" x2="494.484" y2="75.875" gradientUnits="userSpaceOnUse">
<stop stop-color="#6130EE"/>
<stop offset="1" stop-color="#1FD6E3"/>
</linearGradient>
<linearGradient id="paint5_linear" x1="480.727" y1="103.34" x2="506.053" y2="77.2898" gradientUnits="userSpaceOnUse">
<stop/>
<stop offset="1" stop-opacity="0"/>
</linearGradient>
<linearGradient id="paint6_linear" x1="477.721" y1="102.243" x2="498.603" y2="67.0242" gradientUnits="userSpaceOnUse">
<stop/>
<stop offset="1" stop-opacity="0"/>
</linearGradient>
<linearGradient id="paint7_linear" x1="504.224" y1="103.066" x2="483.698" y2="114.063" gradientUnits="userSpaceOnUse">
<stop stop-color="#6130EE"/>
<stop offset="1" stop-color="#1FD6E3"/>
</linearGradient>
<linearGradient id="paint8_linear" x1="518.796" y1="104.346" x2="486.161" y2="116.515" gradientUnits="userSpaceOnUse">
<stop/>
<stop offset="1" stop-opacity="0"/>
</linearGradient>
</defs>
</svg>
