<svg xmlns="http://www.w3.org/2000/svg" xmlns:xlink="http://www.w3.org/1999/xlink" width="114.998" height="255" viewBox="0 0 114.998 255">
  <defs>
    <linearGradient id="linear-gradient" x1="72.994" y1="0.5" x2="71.994" y2="0.5" gradientUnits="objectBoundingBox">
      <stop offset="0" stop-color="#efa08b"/>
      <stop offset="0.64" stop-color="#e48c78"/>
      <stop offset="0.995" stop-color="#dd7f6c"/>
    </linearGradient>
    <linearGradient id="linear-gradient-2" x1="50.318" y1="0.5" x2="49.319" y2="0.5" gradientUnits="objectBoundingBox">
      <stop offset="0" stop-color="#fdbb90"/>
      <stop offset="1" stop-color="#e85d7c"/>
    </linearGradient>
    <linearGradient id="linear-gradient-3" x1="28.158" y1="0" x2="28.158" y2="1" xlink:href="#linear-gradient-2"/>
    <linearGradient id="linear-gradient-4" x1="223.167" y1="1" x2="223.167" gradientUnits="objectBoundingBox">
      <stop offset="0" stop-color="#efa08b"/>
      <stop offset="0.278" stop-color="#e6917d"/>
      <stop offset="0.658" stop-color="#df8370"/>
      <stop offset="0.995" stop-color="#dd7f6c"/>
    </linearGradient>
    <linearGradient id="linear-gradient-5" x1="24.324" y1="0" x2="24.324" y2="1" xlink:href="#linear-gradient-2"/>
    <linearGradient id="linear-gradient-6" x1="0.5" x2="0.5" y2="1" gradientUnits="objectBoundingBox">
      <stop offset="0" stop-color="#6d89fc"/>
      <stop offset="1" stop-color="#8ab6fd"/>
    </linearGradient>
    <linearGradient id="linear-gradient-7" x1="20.597" x2="20.597" xlink:href="#linear-gradient-6"/>
    <linearGradient id="linear-gradient-8" x1="0.5" y1="0" x2="0.5" y2="1" xlink:href="#linear-gradient-2"/>
  </defs>
  <g id="girl-regular" transform="translate(0 0)">
    <g id="Group_901" data-name="Group 901" transform="translate(0 0)">
      <path id="Path_867" data-name="Path 867" d="M484.09,116.4s-14.542,1.862-17.678.7c-1.833-.682-1.7-4.767-3.159-6.4-2.047-2.295-1.935-1.621-4.763-1.1-3.409.625-3.409,1.771-2.886,3.57a2.585,2.585,0,0,0-.767,3.536,2.406,2.406,0,0,0,.261,4.047c4.833,3.214,6.526,2.471,12.535,4.015,3.623.93,11.946,3.693,17.383,3.1,4.473-.487,3.884-.788,4.681-2.174C491.807,122.006,484.09,116.4,484.09,116.4Z" transform="translate(-452.797 -23.329)" fill="#fcede3"/>
      <path id="Path_868" data-name="Path 868" d="M421.036,148.953s8.149,15.595,10.925,26.316c1.227,4.734,3.375,7.952,11.5,10.147s38.605,26.566,38.605,26.566l8.965.8-2.388-4.717s-15.362-19.089-23.634-28.526c-8.978-10.24-16.578-8.975-16.887-11.544-1.354-11.228,3.17-36.182,3.17-36.182Z" transform="translate(-384.236 2.117)" fill="#fcede3"/>
      <path id="Path_869" data-name="Path 869" d="M442.518,128.08s3.115,9.607,3.115,15.47a141.822,141.822,0,0,0,2.144,21.47l13.262-5.261,11.7-3.886s-6.9-9.592-6.537-14.347,5.346-17.381,5.346-17.381,5.946-18.048,5.579-23.4-10.959-11.751-18.195-6.98S442.518,128.08,442.518,128.08Z" transform="translate(-415.866 -42.334)" fill="#fcede3"/>
      <g id="Group_898" data-name="Group 898" transform="translate(19.927 0)">
        <path id="Path_870" data-name="Path 870" d="M472.769,97.1c.453-4.312,5.785-.6,6.5-9.817.8-10.226-12.126-13.726-21.25-12.489-3.683.5-4.759.2-6.2,3.786s.148,3.668-.256,8.863c-.112,1.443-2.314,3.227-3.409,4.443-.814.9-1.693,1.273-1.54,1.682.67,1.79,1.833,1.314,2.646,2.208a1.5,1.5,0,0,1,.341,2.011c-.439.674.506,1.252.555,1.585.15,1.028.468.644.678,1.523.341,1.424-1.25,2.865.072,4.316.909,1,8.465.428,10.259,1.057,3.337,1.167,1.064-.182,4.435-3.028C468.2,101.058,470.675,98.691,472.769,97.1Z" transform="translate(-446.596 -61.946)" fill="#fcede3"/>
        <path id="Path_871" data-name="Path 871" d="M462.945,82.839c-4.447,3.134-7.509,13.306-13.02,14.173,1.731,2.75,3.541,4.653,2.076,12.067-.695,3.522-5.405,11.446-5.405,11.446l21.472-9.173s-4.4-11.291-5.123-14.893C461.741,90.454,463.034,83.824,462.945,82.839Z" transform="translate(-435.355 -52.684)" fill="#fcede3"/>
        <path id="Path_872" data-name="Path 872" d="M451.049,94.342a7.992,7.992,0,0,1,3.668,1.337,2.762,2.762,0,0,1,1.176,1.519s2.473-1.2,5.225-6.318a15.46,15.46,0,0,0,1.968-5.952,44.938,44.938,0,0,1-5.49,6.528C456.308,92.7,451.049,94.342,451.049,94.342Z" transform="translate(-439.808 -50.346)" fill="url(#linear-gradient)"/>
        <path id="Path_873" data-name="Path 873" d="M455.342,81.892c-.322-4.07-3.248-3.238-5.265-8.592-2.216-5.888-8.791-6.145-9.827-1.28a23.219,23.219,0,0,0,0,9.2l6.155,6.929a15.806,15.806,0,0,0,2.132,0,10.853,10.853,0,0,0,3.159,1.112c1.708.172,4.608-2.36,4.78-3.909A7.017,7.017,0,0,0,455.342,81.892Zm-2.708,6.132a5.116,5.116,0,0,1-1.968-.176c2.248-.5,4.57-1.714,4.7-4.6.011-.22,0-.413,0-.612a5.863,5.863,0,0,1,.17,1.93C455.366,86.015,454.768,87.727,452.634,88.024Z" transform="translate(-409.352 -68.607)" fill="url(#linear-gradient-2)"/>
        <path id="Path_876" data-name="Path 876" d="M459.345,85.159s-.994-.167-.756.814a1.813,1.813,0,0,0,.64,1.066s-.786.464-.693,1.068c.151.992,1.4.714,1.4.714a8.66,8.66,0,0,0,3.348-2.153A9.6,9.6,0,0,1,459.345,85.159Z" transform="translate(-455.853 -50.1)" fill="#fdbb90"/>
        <path id="Path_882" data-name="Path 882" d="M475.081,89.171c-.765-2.532-1.756-5.6-1.935-6.246-3.611-12.972-16.879-11.819-21.059-10.668-8.9,2.456-7.8,7.079-7.8,7.079a23.482,23.482,0,0,0,7.8-.551c1.8,1.53,1.127,4.265,1.576,6.013.515,2.011,2.858,4.373,2.6,6.681,1.407-1.494,3.64-1.432,4.736,1.579.831,2.282-.3,3.371-1.176,5.07.494,4.034,4.962,5.888,4.962,5.888A9.333,9.333,0,0,0,469.119,103l.006.025s1.913-.566,4.081-4.9C474.594,95.349,475.594,90.868,475.081,89.171ZM473.7,95.04a8.317,8.317,0,0,1-2.439,4.125c.735-3.5,2.367-7.5,2.411-11.885C474.91,90.288,473.965,93.476,473.7,95.04Z" transform="translate(-437.518 -65.26)" fill="url(#linear-gradient-3)"/>
        <path id="Path_883" data-name="Path 883" d="M460.52,83.841a2.8,2.8,0,0,1,1.343.574c.447.449.1.833-.432.449A3.985,3.985,0,0,1,460.52,83.841Z" transform="translate(-458.859 -51.563)" fill="#ffa08d"/>
        <path id="Path_885" data-name="Path 885" d="M455.53,83.076s-.411-1.818-1.947-1.485-1.92,2.638-1.92,2.638,1.343-.193,1.28.894-.706,1.282-.706,1.282.449.733,1.089.589a1.333,1.333,0,0,0,.833-1.871c-.449-.831-.835-1.437-.564-1.79A1.486,1.486,0,0,1,455.53,83.076Z" transform="translate(-433.553 -54.126)" fill="url(#linear-gradient-4)"/>
      </g>
      <path id="Path_889" data-name="Path 889" d="M468.363,115.95a8.483,8.483,0,0,1-2.464-2.666c-2.276-3.638-3.324-9.548-.826-13.989,3.291-5.85,11.38-6.049,11.38-6.049s-5.789-3.954-12.226,1.532c-3.2,2.723-9.17,10.6-16.061,16.932-6.554,6.013-3.6,10.829-.362,14.448a7.7,7.7,0,0,1,2.379,3.858h27.153l3.1-11.643A18.183,18.183,0,0,1,468.363,115.95Z" transform="translate(-422.825 -42.581)" fill="url(#linear-gradient-5)"/>
      <path id="Path_890" data-name="Path 890" d="M469.557,131.818A180.742,180.742,0,0,0,456.641,149.9c-6.634,10.526-7.937,16.449-11.346,20.71-1.928,2.411-1.9,5.53,1.458,11.154,2.138,3.574,5.776,12.149,7.5,16.822,6.948,18.79,8.655,38.635,8.655,38.635l10.179,4.57s-.848-24.072-1.055-29.8a74.186,74.186,0,0,0-5.054-24.805c-2.653-6.395-6.079-8.732-6.079-8.732s12.8-10.891,22.148-18.286c6.594-5.217,13.408-13.578,13.408-13.578Z" transform="translate(-438.319 2.117)" fill="#fcede3"/>
      <path id="Path_891" data-name="Path 891" d="M457.975,157.04c1.5-8.959,4.844-19.979,1.943-27.674-11.062,6.075-18.036,22.348-20.506,29.009A29.189,29.189,0,0,0,457.975,157.04Z" transform="translate(-393.2 -0.627)" fill="url(#linear-gradient-6)"/>
      <path id="Path_892" data-name="Path 892" d="M446.147,127.111a85.626,85.626,0,0,1,11.9-3.933,69.336,69.336,0,0,1,11.967-2.293s12.016,10.334,12.025,21.2c.017,17.006-22.331,30.308-22.331,30.308s1.623-7.268-8.918-15.417a25.975,25.975,0,0,0-11-4.5s2.752-7.558,5.634-14.281C447.068,134.358,446.053,133.19,446.147,127.111Z" transform="translate(-414.979 -10.115)" fill="url(#linear-gradient-7)"/>
      <path id="Path_893" data-name="Path 893" d="M445.713,109.481s1.513,5.606,2.259,10.639a97.144,97.144,0,0,1,.672,10.177,84.128,84.128,0,0,1,12.736-2.911,48.813,48.813,0,0,1,8.927-.324s-1.174-4.994-.625-8.024c.631-3.481,3.623-8.725,3.623-8.725Z" transform="translate(-418.793 -22.875)" fill="#fcede3"/>
      <path id="Path_894" data-name="Path 894" d="M462.092,111.618s12.8,5.579,15.182,6.251c2.388,1.6,6.535,6.338,6.535,6.338s-6.766,3.291-10.056,4.723c-5.3,2.307-11.056,6.248-16.822,6.67-3.755.273-6.861-.837-10.567-3.475-2.653-1.888-4.572-3.475-6.77-1.894-3.193,2.3-5.111,3.394-4.089,5.469-.581,1.269,0,3.8,1.172,3.8-.869,2.108.911,2.149,1.386,3.295.881,2.136,4.261-1.725,7.022-.8,4.907,1.646,7.325.968,11.794,1.293,7.59.547,24.619-5.085,30.653-8.208,3.388-1.752,4.738-2.257,7.634-3.566,2.346-1.062.881-4.7-.682-9.153-1.648-4.691-6.524-7.772-10.425-17.279-3.748-9.143-7.448-12.921-12.075-12.758C464.4,92.593,457.117,102.592,462.092,111.618Z" transform="translate(-419.666 -42.075)" fill="#fcede3"/>
      <path id="Path_895" data-name="Path 895" d="M451.884,101.835c3.475,1.646,6.905,6,6.905,6s-7.367,1.074-10.836-1.25a10.691,10.691,0,0,1-3.7-3.839S448.409,100.189,451.884,101.835Z" transform="translate(-401.182 -32.047)" fill="#fcede3"/>
      <path id="Path_896" data-name="Path 896" d="M437.713,108.522a24.793,24.793,0,0,1-1.646,4.007c.862-.045,3.017-.578,2.879-2.346S437.713,108.522,437.713,108.522Z" transform="translate(-364.003 -23.95)" fill="#fcede3"/>
      <path id="Path_897" data-name="Path 897" d="M468.962,149.744c.059-.129-1.649.155-2.706,3.452a3.568,3.568,0,0,0,1.026,3.449Z" transform="translate(-457.681 22.146)" opacity="0.15"/>
      <g id="Group_899" data-name="Group 899" transform="translate(0 228.689)">
        <path id="Path_898" data-name="Path 898" d="M488.3,183.55c-1.229.155-1.229,3.072-2.61,3.689s-4.151-2.767-5.84-3.689a3.268,3.268,0,0,0-.593-.218l.089-.191a8.647,8.647,0,0,0-1.843-3.553,11.957,11.957,0,0,0-4.3-2.92c-1.879-1.006-1,4.064-.4,6.827-1.875,1.189-8.126,5.066-10.609,5.587a13.9,13.9,0,0,1-6.27-.509,31.519,31.519,0,0,0-2.151,3.227c-1.229,2.216.413,3.274,2.411,4.5s6.147,4.3,11.524,5.073,8.346-1.538,9.476-1.076,2.017,2.458,2.017,2.458,3.608.206,7.562,0c2.7-.138,5.07-4.022,4.918-4.776S489.527,183.4,488.3,183.55Z" transform="translate(-453.346 -176.538)" fill="url(#linear-gradient-8)"/>
        <path id="Path_900" data-name="Path 900" d="M462.858,182.466s1.468.979,3.85,2.613a13.61,13.61,0,0,0,3.63,1.958,28.735,28.735,0,0,0-3.63-3.553c-.6-.475-2.579-1.621-2.579-1.621Z" transform="translate(-452.154 -170.58)" fill="#fff"/>
        <path id="Path_901" data-name="Path 901" d="M461.337,181.554s2.8,1.873,3.74,2.5c1.009.674,3.223,2.691,3.223,2.691a25.2,25.2,0,0,0-2.621-3.85,23.928,23.928,0,0,0-3.3-1.949Z" transform="translate(-446.893 -171.61)" fill="#fff"/>
        <path id="Path_902" data-name="Path 902" d="M459.893,180.72s2.8,1.873,3.738,2.5c1.009.674,3.21,2.691,3.21,2.691a24.7,24.7,0,0,0-2.608-3.85,23.927,23.927,0,0,0-3.3-1.949Z" transform="translate(-442.375 -172.543)" fill="#fff"/>
      </g>
      <g id="Group_900" data-name="Group 900" transform="translate(83.101 204.581)">
        <path id="Path_903" data-name="Path 903" d="M447.934,172.3c-.667-.386-12.338-8.071-13.039-7.049s1.483,2.96,1.025,4.4-4.822,1.267-6.634,1.92a3.21,3.21,0,0,0-.557.3l-.083-.195a8.648,8.648,0,0,0-3.88-.977,11.969,11.969,0,0,0-5.041,1.28c-2,.737,2.379,3.443,4.844,4.827-.356,2.191-1.6,9.442-2.86,11.645a13.916,13.916,0,0,1-4.543,4.354,31.639,31.639,0,0,0,.987,3.75c.841,2.39,2.723,1.862,4.969,1.184s7.3-1.744,11.442-5.257,4.388-7.263,5.484-7.8,3.178.123,3.178.123,2.547-2.564,5.017-5.657C449.928,177.043,448.6,172.688,447.934,172.3Z" transform="translate(-417.166 -165.16)" fill="url(#linear-gradient-8)"/>
        <path id="Path_905" data-name="Path 905" d="M425.77,176.647s1.706-.449,4.507-1.146a13.63,13.63,0,0,0,3.875-1.415,28.616,28.616,0,0,0-5.068.356c-.75.131-2.924.856-2.924.856Z" transform="translate(-420.486 -155.181)" fill="#fff"/>
        <path id="Path_906" data-name="Path 906" d="M425.229,174.616s3.261-.856,4.348-1.14c1.174-.309,4.151-.627,4.151-.627a25.047,25.047,0,0,0-4.617-.593,24.06,24.06,0,0,0-3.649,1.174Z" transform="translate(-418.915 -157.235)" fill="#fff"/>
        <path id="Path_907" data-name="Path 907" d="M424.895,172.976s3.261-.854,4.348-1.14c1.172-.307,4.14-.615,4.14-.615a24.664,24.664,0,0,0-4.609-.6,23.9,23.9,0,0,0-3.646,1.172Z" transform="translate(-417.863 -159.068)" fill="#fff"/>
      </g>
    </g>
  </g>
</svg>
