<svg xmlns="http://www.w3.org/2000/svg" xmlns:xlink="http://www.w3.org/1999/xlink" width="61" height="173.057" viewBox="0 0 61 173.057"><defs><linearGradient id="a" x1="0.5" x2="0.5" y2="1" gradientUnits="objectBoundingBox"><stop offset="0" stop-color="#6d89fc"/><stop offset="1" stop-color="#8ab6fd"/></linearGradient><linearGradient id="c" x1="0.5" x2="0.5" y2="1.777" gradientUnits="objectBoundingBox"><stop offset="0" stop-color="#fdbb90"/><stop offset="1" stop-color="#e85d7c"/></linearGradient><linearGradient id="f" x2="0.52" y2="2.234" xlink:href="#c"/></defs><g transform="translate(-685.567 -184.367)"><g transform="translate(705.869 322.566)"><path d="M755.244,663.359h-3.565l-.147-29.951,6.638,1.428Z" transform="translate(-751.532 -633.408)" fill="#feecde"/></g><g transform="translate(685.567 230.725)"><g transform="translate(0 2.445)"><path d="M687.354,349.663,685.567,345l1.654-2.063,1.75,1.5.727,1.9,1.281.031-.062,3.467,7.338,14.9,12.691-.125-2.81,10.086L695.63,370.34l-3.818-3.669Z" transform="translate(-685.567 -342.94)" fill="#fcede3"/></g><g transform="translate(33.11)"><g transform="translate(13.94)"><path d="M838.556,341.308l-.112-3.491L841.175,335l2.246.542-1.93,8.261Z" transform="translate(-838.444 -334.996)" fill="#feecde"/></g><g transform="translate(0 6.312)"><path d="M793.149,372.032l10.161,3.711L807.2,355.5l2.719.58.839,23.1-3.2,4.956-10.122-2.905Z" transform="translate(-793.149 -355.504)" fill="#feecde"/></g></g><g transform="translate(28.174 67.502)"><path d="M777.111,559.7l16.007-5.371-4.06,27.655-8.4,2.9-3.042-22.826h0Z" transform="translate(-777.111 -554.326)" fill="url(#a)"/><g transform="translate(5.848 53.17)"><path d="M800.428,727.088l3.243.011.749,2.758-.082.022.021,0L798.91,732.9l-2.555.21-.24-2.921.7-.484Z" transform="translate(-796.114 -727.088)" fill="#19192b"/></g></g><g transform="translate(16.228 69.964)"><g transform="translate(0.851)"><path d="M741.061,565.4l3.042,21.074,7.367,1.242,6.192-25.393Z" transform="translate(-741.061 -562.325)" fill="url(#a)"/></g><g transform="translate(0 51.828)"><path d="M742.517,730.725l-4.22,2.236.333,1.971,7.453-.056v-4.151Z" transform="translate(-738.296 -730.725)" fill="#19192b"/></g></g><g transform="translate(16.228 22.097)"><path d="M738.3,458.837a10.132,10.132,0,0,0,2.517-.093c3.731-.047,7.341.026,11.074-.335,3.988-.385,7.974-.876,11.986-.908a39.182,39.182,0,0,1,5-.215c-1.774-9.409-3.845-18.3-3.844-18.3a59.518,59.518,0,0,1-1.558-8.131c-.228-1.944-5.059-24.034-4.739-24.063-3.328.293-9.744-.656-12.209,2.194-.07.082-.138.166-.2.254-1.922,2.642-2.92,7.991-3.828,11.284-1.325,4.8-1.184,9.831-1.355,14.766-.242,6.986-2.422,13.569-2.622,20.544C738.486,456.84,738.354,457.838,738.3,458.837Z" transform="translate(-738.296 -406.794)" fill="url(#c)"/></g><g transform="translate(19.979 5.602)"><g transform="translate(0 1.502)"><path d="M761.066,362.059c-1.824.21-4.146,1.6-4.705,3.477-.269.9-.026,1.764-.353,2.719-.636,1.883,1.5,4.858-.885,6.039a5.9,5.9,0,0,1-4.011-.042,1,1,0,0,1-.451-.2.7.7,0,0,1-.118-.761,2.855,2.855,0,0,1,.45-.68c1.733-2.268,1.574-5.695,2.364-8.356s2.413-5.246,5.156-6.177a5.127,5.127,0,0,1,2.355,3.51Z" transform="translate(-750.484 -358.081)" fill="url(#a)"/></g><g transform="translate(5.122 2.988)"><path d="M770.178,376.568A5.981,5.981,0,0,1,767.2,372a11.972,11.972,0,0,1,.8-5.558c2.095-5.93,9.563-3.7,10.992,1.579C780.24,372.624,775.078,379.055,770.178,376.568Z" transform="translate(-767.127 -362.908)" fill="#feecde"/></g><g transform="translate(7.678)"><path d="M783.923,374.038a5.319,5.319,0,0,1-2.043-2.214c-.693-1.65-.194-4.109-.175-5.848.02-1.833-.016-3.834-1.181-5.249a4.338,4.338,0,0,0-2.88-1.42c-.773-.13-.847.158-1.439-.357a3.386,3.386,0,0,1-.77-1.986,3.255,3.255,0,0,1,1.206-2.538,4.56,4.56,0,0,1,3.784-1.181c5.065.655,8.4,4.223,9.075,9.371.324,2.474-.583,5.037-.2,7.429.237,1.477,1,2.553,1.135,4.108.359,4.036,1.754,9.341.98,13.34a.572.572,0,0,1-.2.392c-.258.167-.561-.13-.724-.39l-2.856-4.556a7.582,7.582,0,0,1-.947-1.879c-.485-1.684.2-3.663-.732-5.148A7.048,7.048,0,0,0,783.923,374.038Z" transform="translate(-775.432 -353.199)" fill="url(#a)"/></g></g></g><g transform="translate(695.383 184.367)"><g transform="translate(0 0)"><rect width="45.904" height="45.904" rx="8.782" transform="translate(5.625 0) rotate(7.039)" fill="url(#f)"/></g><g transform="translate(15.887 5.862)"><path d="M775.295,213.87A9.642,9.642,0,0,1,784.433,215l7.515-4.435a14.535,14.535,0,0,0-22.864-2.823Z" transform="translate(-769.084 -203.413)" fill="#fff"/><g transform="translate(9.986 4.577)"><path d="M803.326,223.684l-1.794-.222,1.589-5.177Z" transform="translate(-801.531 -218.286)"/></g></g><g transform="translate(5.025 17.368)"><rect width="36.694" height="25.267" rx="5.825" transform="translate(3.096 0) rotate(7.039)" fill="#fff"/></g></g><g transform="translate(719.248 325.883)"><path d="M795,646.405l4.656,23.294,3.243.011-1.458-25.526Z" transform="translate(-795.002 -644.184)" fill="#feecde"/></g></g></svg>