<svg xmlns="http://www.w3.org/2000/svg" xmlns:xlink="http://www.w3.org/1999/xlink" width="116.507" height="254.061" viewBox="0 0 116.507 254.061">
  <defs>
    <linearGradient id="linear-gradient" x1="0.5" x2="0.5" y2="1" gradientUnits="objectBoundingBox">
      <stop offset="0" stop-color="#6d89fc"/>
      <stop offset="1" stop-color="#8ab6fd"/>
    </linearGradient>
    <linearGradient id="linear-gradient-2" x1="-13.792" y1="0.5" x2="-14.792" y2="0.5" gradientUnits="objectBoundingBox">
      <stop offset="0" stop-color="#fdbb90"/>
      <stop offset="1" stop-color="#e85d7c"/>
    </linearGradient>
    <linearGradient id="linear-gradient-3" x1="0.5" y1="0" x2="0.5" y2="1" xlink:href="#linear-gradient-2"/>
    <linearGradient id="linear-gradient-4" x1="-2.146" y1="0.5" x2="-3.146" y2="0.5" xlink:href="#linear-gradient"/>
    <linearGradient id="linear-gradient-5" x1="-3.703" y1="0" x2="-3.703" y2="1" xlink:href="#linear-gradient-2"/>
    <linearGradient id="linear-gradient-6" x1="-16.223" y1="0.5" x2="-17.223" y2="0.5" gradientUnits="objectBoundingBox">
      <stop offset="0" stop-color="#efa08b"/>
      <stop offset="0.64" stop-color="#e48c78"/>
      <stop offset="0.995" stop-color="#dd7f6c"/>
    </linearGradient>
  </defs>
  <g id="girl-bold" transform="translate(0 0)">
    <path id="Path_1045" data-name="Path 1045" d="M227.352,117.456s-14.636-.131-18.021-1.392c-1.98-.736-2.909-3.006-4.485-4.775-2.211-2.477-2.088-1.75-5.145-1.189-3.683.675-3.681,1.915-3.118,3.857a2.791,2.791,0,0,0-.827,3.819,2.6,2.6,0,0,0,.281,4.373c5.221,3.472,7.049,2.668,13.54,4.337,3.914,1,12.9,3.988,18.778,3.347,4.83-.527,4.193-.85,5.054-2.346C235.69,123.517,227.352,117.456,227.352,117.456Z" transform="translate(-193.89 -23.483)" fill="#fcede3"/>
    <path id="Path_1046" data-name="Path 1046" d="M188.329,177.69s-5.645-8.234-13.466-17.6c-2.207,3.929-8.441,7.453-12.123,9.757,9.582,6.969,18.613,14.19,18.613,14.19l9.046.812Z" transform="translate(-82.888 32.898)" fill="#fcede3"/>
    <path id="Path_1047" data-name="Path 1047" d="M168.665,155.159c1.164,2.473,12.034,24.065,16.722,30.423s9.977,6.425,17.374,10.513c5.061,2.795,21.465,11.369,21.465,11.369s5.45-.961,6.905-3.072,1.817-7.458,1.817-7.458-5.8-9.349-10.656-14.293c-6.066-6.173-16.68-12.6-16.68-12.6s7.737-20.4,2.782-37.423C205.394,122.312,168.665,155.159,168.665,155.159Z" transform="translate(-137.972 0.02)" fill="url(#linear-gradient)"/>
    <g id="Group_926" data-name="Group 926" transform="translate(19.846 0)">
      <path id="Path_1048" data-name="Path 1048" d="M198.289,131.029,223.4,117.083s-6.652-6.243-7.379-9.876c-1.214-6.061,3.377-14.744,3.286-15.74h0a14.294,14.294,0,0,0,.609-3.326c.808-10.318-12.235-13.849-21.444-12.6-3.715.5-4.8.205-6.26,3.823s.15,3.7-.258,8.943c-.112,1.458-2.336,3.258-3.44,4.483-.821.912-1.709,1.288-1.555,1.7.675,1.809,1.849,1.327,2.67,2.228a1.508,1.508,0,0,1,.345,2.029c1.585.844,3.025,1.3,3.074,1.638.152,1.037-2.042.614-1.83,1.5.345,1.439-1.872,3.8-.427,5.158,1.908,1.788,4.31,2.012,6.032,2.983,3.142,1.773,6.231,3.066,6.216,6.288-.078.7-.173,1.39-.3,2.025C202.042,121.885,198.289,131.029,198.289,131.029Z" transform="translate(-186.944 -61.693)" fill="#fcede3"/>
      <path id="Path_1049" data-name="Path 1049" d="M197.52,83.6c-.358-4.513-3.6-3.588-5.839-9.529-2.458-6.531-9.753-6.814-10.9-1.42a25.767,25.767,0,0,0,0,10.206l6.827,7.682a17.118,17.118,0,0,0,2.363,0,12.008,12.008,0,0,0,3.506,1.236c1.891.188,5.109-2.617,5.3-4.337A7.783,7.783,0,0,0,197.52,83.6Zm-3,6.8a5.647,5.647,0,0,1-2.183-.195c2.492-.554,5.067-1.9,5.211-5.105.011-.245.006-.457.006-.677a6.493,6.493,0,0,1,.186,2.139C197.546,88.175,196.883,90.075,194.518,90.4Z" transform="translate(-148.213 -68.868)" fill="url(#linear-gradient-2)"/>
      <path id="Path_1051" data-name="Path 1051" d="M219.422,91.68c-.848-2.807-1.7-4.807-1.7-4.807l-.04-.013a16.206,16.206,0,0,0-.4-2.109c-4-14.386-18.721-13.108-23.357-11.831-9.876,2.723-8.655,7.851-8.655,7.851a26.105,26.105,0,0,0,8.655-.611c2,1.7,1.248,4.731,1.745,6.671.573,2.23,3.173,4.849,2.89,7.409,1.561-1.657,4.037-1.589,5.253,1.752.92,2.53-.336,3.738-1.305,5.623.548,4.475,5.5,6.531,5.5,6.531a10.367,10.367,0,0,0,4.8-1.121l.006.027s2.124-.626,4.527-5.437C218.881,98.535,219.991,93.563,219.422,91.68Zm-1.527,6.512a9.235,9.235,0,0,1-2.7,4.574c.815-3.882,2.623-8.325,2.674-13.18C219.234,92.92,218.185,96.457,217.895,98.192Z" transform="translate(-179.462 -65.16)" fill="url(#linear-gradient-3)"/>
      <path id="Path_1052" data-name="Path 1052" d="M201.42,86.011s-1-.171-.764.819c.186.77,2.35,1.589,2.35,1.589s-1.712.544-1.872,1.665c-.144,1,1.037.779,1.037.779a20.156,20.156,0,0,0,3.252-2.188C203.652,87.35,201.42,86.011,201.42,86.011Z" transform="translate(-197.894 -49.755)" fill="#fdbb90"/>
      <path id="Path_1057" data-name="Path 1057" d="M202.646,84.678A2.829,2.829,0,0,1,204,85.26c.453.451.1.84-.436.451A4.023,4.023,0,0,1,202.646,84.678Z" transform="translate(-200.97 -51.23)" fill="#ffa08d"/>
      <path id="Path_1059" data-name="Path 1059" d="M197.277,84.763s-.415-1.834-1.965-1.5-1.938,2.661-1.938,2.661,1.356-.195,1.293.9-.711,1.293-.711,1.293.453.74,1.1.6a1.348,1.348,0,0,0,.84-1.889c-.453-.84-.842-1.449-.567-1.809A1.5,1.5,0,0,1,197.277,84.763Z" transform="translate(-174.421 -52.852)" fill="#de816e"/>
    </g>
    <path id="Path_1064" data-name="Path 1064" d="M195.105,174.494c3.734,9.429,3.931,15.118,3.931,15.118l12.916,5.031a124.131,124.131,0,0,0-2.156-23.653C206,172.827,199.167,175.654,195.105,174.494Z" transform="translate(-172.923 45.064)" fill="#fcede3"/>
    <path id="Path_1065" data-name="Path 1065" d="M250.583,142.1c-1.432-10.868-15.146-19.978-15.146-19.978a69.928,69.928,0,0,0-12.078,2.314,86.243,86.243,0,0,0-12.008,3.967c-.1,6.135-4.557,11.553-6.218,15.429-.654,1.523-3.044,3.114-4.068,4.4-1.257,1.244-11.761,12.558-15.522,17.769-2.522,3.5-6.2,11.625-5.219,17.771.658,4.117,23.2,48.162,23.2,48.162s4.553,1.908,8.073,1.2a37.234,37.234,0,0,0,6.243-2.306s-1.329-17.6-6.243-29.843c-1.379-3.434-4.326-11.071-4.326-11.071s12.785-3.874,20.56-9.275C233.563,177.4,253.169,161.7,250.583,142.1Z" transform="translate(-180.161 -9.459)" fill="url(#linear-gradient-4)"/>
    <path id="Path_1066" data-name="Path 1066" d="M229.906,147.488c-5.166-8.281-4.984-27.947-4.984-27.947a18.347,18.347,0,0,1-12.178-2.446,8.579,8.579,0,0,1-2.488-2.689c-2.3-3.675-3.355-9.637-.834-14.118,3.322-5.9,11.484-6.106,11.484-6.106s-5.843-3.99-12.338,1.547c-3.226,2.748-9.254,10.7-16.208,17.086-6.611,6.07-6.62,11.581-3.787,15.582,1.563,2.207-5.979,17.1-7.489,26.9a33.535,33.535,0,0,0,6.872,25.652s19.864-11.071,26.765-12.207c17.115-2.822,21.842,2.5,21.842,2.5S236.066,157.359,229.906,147.488Z" transform="translate(-167.051 -42.178)" fill="url(#linear-gradient-5)"/>
    <path id="Path_1067" data-name="Path 1067" d="M200.818,107.148s-.309,1.65,3.239,4.035,7.161,4.035,4.695,6.33-8.708,3.383-8.708,3.383,3.176-5.183,2.814-6.848S200.657,109.49,200.818,107.148Z" transform="translate(-180.971 -26.161)" fill="#dd4b94"/>
    <path id="Path_1068" data-name="Path 1068" d="M202.9,112.727s1.373,3.228,4.085,4.386c3.931,1.676,9.817,1.521,11.236,1.923a44.47,44.47,0,0,0,4.982,5.941s-7.288,3.11-10.61,4.557c-5.346,2.327-9.552,4.807-15.37,5.232-3.789.275-6.455,1.318-10.2-1.346-2.676-1.9-4.614-3.506-6.831-1.91-3.222,2.317-5.158,3.425-4.128,5.518-.584,1.282,0,3.84,1.185,3.84-.878,2.126.918,2.169,1.4,3.326.891,2.154,4.517,1.388,7.3,2.321,4.953,1.661,5.68-1.642,10.191-1.316,7.659.554,25.758-1.832,31.847-4.984,3.419-1.769,7.8-2.526,10.724-3.848,2.367-1.07,1.667-8.336.091-12.825-1.663-4.735-2.12-9.908-9.057-20.96-5.3-8.446-12.2-9.486-16.866-9.321C205.23,93.528,197.883,103.619,202.9,112.727Z" transform="translate(-160.351 -41.673)" fill="#fcede3"/>
    <path id="Path_1069" data-name="Path 1069" d="M193.907,102.863c3.506,1.661,6.969,6.061,6.969,6.061s-7.434,1.083-10.936-1.263a10.818,10.818,0,0,1-3.736-3.874S190.4,101.2,193.907,102.863Z" transform="translate(-143.005 -31.562)" fill="url(#linear-gradient-6)"/>
    <g id="Group_927" data-name="Group 927" transform="translate(3.225 227.51)">
      <path id="Path_1071" data-name="Path 1071" d="M229.016,183.481c-1.24.154-1.24,3.1-2.636,3.721s-4.187-2.79-5.892-3.721a3.218,3.218,0,0,0-.6-.222l.091-.193a8.7,8.7,0,0,0-1.86-3.584,12.039,12.039,0,0,0-4.343-2.945c-1.9-1.018-1,4.1-.4,6.886-1.891,1.2-8.2,5.116-10.705,5.64a14.021,14.021,0,0,1-6.328-.514,31.714,31.714,0,0,0-2.171,3.258c-1.242,2.234.417,3.3,2.433,4.542s6.2,4.343,11.63,5.118,8.422-1.551,9.561-1.085,2.037,2.482,2.037,2.482,3.641.207,7.631,0c2.719-.142,5.118-4.058,4.963-4.822S230.258,183.324,229.016,183.481Z" transform="translate(-193.746 -176.406)" fill="url(#linear-gradient-3)"/>
      <path id="Path_1073" data-name="Path 1073" d="M203.36,182.394s1.481.988,3.884,2.636a13.744,13.744,0,0,0,3.662,1.978,28.8,28.8,0,0,0-3.662-3.586c-.6-.48-2.6-1.635-2.6-1.635Z" transform="translate(-192.557 -170.402)" fill="#fff"/>
      <path id="Path_1074" data-name="Path 1074" d="M201.823,181.475l3.772,2.52c1.018.679,3.252,2.712,3.252,2.712a25.338,25.338,0,0,0-2.645-3.882,24.151,24.151,0,0,0-3.328-1.968Z" transform="translate(-187.246 -171.44)" fill="#fff"/>
      <path id="Path_1075" data-name="Path 1075" d="M200.363,180.632l3.772,2.52c1.018.679,3.239,2.712,3.239,2.712a25.008,25.008,0,0,0-2.632-3.882,24.151,24.151,0,0,0-3.328-1.967Z" transform="translate(-182.684 -172.38)" fill="#fff"/>
    </g>
    <g id="Group_928" data-name="Group 928" transform="translate(84.32 206.368)">
      <path id="Path_1076" data-name="Path 1076" d="M189.535,173.619c-.673-.389-12.451-8.143-13.157-7.113s1.5,2.987,1.035,4.443-4.866,1.28-6.694,1.938a3.266,3.266,0,0,0-.563.3l-.085-.195a8.723,8.723,0,0,0-3.916-.988,12.083,12.083,0,0,0-5.086,1.293c-2.018.745,2.4,3.474,4.889,4.872-.36,2.211-1.618,9.527-2.888,11.75a14.02,14.02,0,0,1-4.582,4.392,31.654,31.654,0,0,0,.994,3.785c.85,2.412,2.75,1.881,5.016,1.2s7.362-1.758,11.545-5.3,4.43-7.329,5.532-7.872,3.209.123,3.209.123,2.57-2.585,5.063-5.708C191.547,178.4,190.208,174.009,189.535,173.619Z" transform="translate(-158.488 -166.412)" fill="url(#linear-gradient-3)"/>
      <path id="Path_1078" data-name="Path 1078" d="M167.184,178.016s1.722-.451,4.549-1.155a13.789,13.789,0,0,0,3.91-1.428,28.93,28.93,0,0,0-5.113.36c-.757.131-2.949.861-2.949.861Z" transform="translate(-161.853 -156.355)" fill="#fff"/>
      <path id="Path_1079" data-name="Path 1079" d="M166.637,175.966l4.39-1.151c1.183-.311,4.187-.633,4.187-.633a25.391,25.391,0,0,0-4.661-.6,24.241,24.241,0,0,0-3.679,1.185Z" transform="translate(-160.267 -158.426)" fill="#fff"/>
      <path id="Path_1080" data-name="Path 1080" d="M166.3,174.31l4.39-1.151c1.183-.311,4.178-.622,4.178-.622a25.032,25.032,0,0,0-4.65-.609,24.2,24.2,0,0,0-3.681,1.185Z" transform="translate(-159.205 -160.273)" fill="#fff"/>
    </g>
  </g>
</svg>
