<svg xmlns="http://www.w3.org/2000/svg" xmlns:xlink="http://www.w3.org/1999/xlink" width="114.619" height="254.157" viewBox="0 0 114.619 254.157">
  <defs>
    <linearGradient id="linear-gradient" x1="17.633" y1="0.5" x2="16.633" y2="0.5" gradientUnits="objectBoundingBox">
      <stop offset="0" stop-color="#fdbb90"/>
      <stop offset="1" stop-color="#e85d7c"/>
    </linearGradient>
    <linearGradient id="linear-gradient-2" x1="10.538" y1="0" x2="10.538" y2="1" xlink:href="#linear-gradient"/>
    <linearGradient id="linear-gradient-3" x1="9.107" y1="0" x2="9.107" y2="1" xlink:href="#linear-gradient"/>
    <linearGradient id="linear-gradient-4" x1="0.5" y1="0" x2="0.5" y2="1" xlink:href="#linear-gradient"/>
    <linearGradient id="linear-gradient-5" x1="0.5" x2="0.5" y2="1" gradientUnits="objectBoundingBox">
      <stop offset="0" stop-color="#6d89fc"/>
      <stop offset="1" stop-color="#8ab6fd"/>
    </linearGradient>
    <linearGradient id="linear-gradient-6" x1="6.154" x2="6.154" xlink:href="#linear-gradient-5"/>
    <linearGradient id="linear-gradient-8" x1="0.682" y1="0" x2="1" y2="1" xlink:href="#linear-gradient"/>
  </defs>
  <g id="girl-medium" transform="translate(0 0)">
    <path id="Path_1004" data-name="Path 1004" d="M355.185,116.594s-13.771,1.075-16.895-.087c-1.829-.68-1.7-4.752-3.151-6.384-2.04-2.287-2.648-.834-5.47-.317-3.4.623-3.4,1.766-2.876,3.558a2.576,2.576,0,0,0-.762,3.525,2.4,2.4,0,0,0,.26,4.034c4.817,3.2,6.5,2.462,12.492,4,3.611.927,11.907,3.681,17.328,3.09,4.456-.486,3.871-.786,4.663-2.167C362.878,122.187,355.185,116.594,355.185,116.594Z" transform="translate(-323.995 -23.836)" fill="#fcede3"/>
    <path id="Path_1005" data-name="Path 1005" d="M292.232,148.9s3.78,15.216,6.549,25.9c1.221,4.718,4.224,7.347,12.141,10.118C320.147,188.143,352,211.621,352,211.621l10,.9-2.38-4.7s-12.994-19.494-21.239-28.9c-8.948-10.207-16.625-10.354-16.933-12.914-1.349-11.191.944-34.187.944-34.187Z" transform="translate(-255.552 1.674)" fill="#fcede3"/>
    <path id="Path_1006" data-name="Path 1006" d="M318.014,127.961s-4.68,17.064-4.274,22.895c.771,11.123,6.828,16.037,6.828,16.037l15.906-7.358L352.133,157s-2.819-13.824-3.381-18.544c-.8-6.686-1.8-14.415-1.8-14.415s5.926-17.989,5.563-23.323S341.59,89,334.378,93.759,318.014,127.961,318.014,127.961Z" transform="translate(-291.449 -42.499)" fill="#fcede3"/>
    <g id="Group_922" data-name="Group 922" transform="translate(19.861 0)">
      <path id="Path_1007" data-name="Path 1007" d="M328.388,129.6l22.69-10.405s-5.677-9.991-6.395-13.581a37.659,37.659,0,0,1-.253-10.673c1.73-1.159,4.79-.883,5.322-7.7.8-10.192-12.084-13.681-21.178-12.447-3.67.5-4.743.2-6.183,3.774s.146,3.656-.256,8.834c-.112,1.438-2.306,3.216-3.4,4.429-.813.9-1.687,1.269-1.537,1.677.667,1.785,1.827,1.309,2.638,2.2a1.492,1.492,0,0,1,.34,2.006c-.435.672.5,1.248.553,1.58.152,1.024.467.642.678,1.518.34,1.419-1.32,3.18,0,4.627.906.993,4.619,2.245,7.837,3.833,2.422,1.2,4.686,1.768,3.229,9.157C331.781,121.941,328.388,129.6,328.388,129.6Z" transform="translate(-317.182 -61.988)" fill="#fcede3"/>
      <path id="Path_1009" data-name="Path 1009" d="M321.25,73.285c-2.209-5.869-8.762-6.124-9.795-1.276a23.14,23.14,0,0,0,0,9.17l6.135,6.906a15.741,15.741,0,0,0,2.124,0,10.8,10.8,0,0,0,3.149,1.109c1.7.171,4.593-2.353,4.762-3.9C327.744,84.232,323.258,78.621,321.25,73.285ZM323.8,87.96a5.1,5.1,0,0,1-1.962-.175c2.239-.5,4.553-1.708,4.684-4.587.009-.22,0-.412,0-.61a5.84,5.84,0,0,1,.167,1.924C326.521,85.958,325.926,87.664,323.8,87.96Z" transform="translate(-280.658 -68.607)" fill="url(#linear-gradient)"/>
      <path id="Path_1012" data-name="Path 1012" d="M330.541,85.159s-.99-.167-.754.811a1.807,1.807,0,0,0,.638,1.062s-.784.462-.693,1.064c.152.988,1.4.712,1.4.712a8.616,8.616,0,0,0,3.335-2.146A9.556,9.556,0,0,1,330.541,85.159Z" transform="translate(-327.059 -50.216)" fill="#fdbb90"/>
      <path id="Path_1018" data-name="Path 1018" d="M346.179,89.113c-.764-2.524-1.751-5.586-1.928-6.226-3.6-12.929-16.825-11.78-20.99-10.633-8.874,2.448-7.776,7.056-7.776,7.056a23.405,23.405,0,0,0,7.776-.549c1.793,1.525,1.121,4.251,1.569,5.993.515,2,2.851,4.359,2.6,6.659,1.4-1.489,3.628-1.428,4.72,1.573.828,2.274-.3,3.36-1.17,5.054.49,4.021,4.821,7.337,4.821,7.337s4.612,1.132,8.513-7.337C345.6,95.229,346.69,90.8,346.179,89.113Zm-1.375,5.85a8.3,8.3,0,0,1-2.429,4.112c.733-3.489,2.357-7.48,2.4-11.845C346.008,90.226,345.066,93.4,344.8,94.963Z" transform="translate(-308.738 -65.281)" fill="url(#linear-gradient-2)"/>
      <path id="Path_1019" data-name="Path 1019" d="M331.716,83.841a2.8,2.8,0,0,1,1.341.572c.446.448.1.83-.431.448A4,4,0,0,1,331.716,83.841Z" transform="translate(-330.061 -51.669)" fill="#ffa08d"/>
      <path id="Path_1021" data-name="Path 1021" d="M326.715,83.071s-.412-1.812-1.943-1.48-1.913,2.629-1.913,2.629,1.339-.192,1.276.891-.7,1.278-.7,1.278.446.731,1.086.587a1.326,1.326,0,0,0,.828-1.865c-.446-.828-.832-1.432-.56-1.785A1.481,1.481,0,0,1,326.715,83.071Z" transform="translate(-304.809 -54.217)" fill="#de816e"/>
    </g>
    <path id="Path_1025" data-name="Path 1025" d="M350.165,117.829c-.429-3.1-1.677-7.389-1.138-8.363l-32.945.86c0,4.35.049,3.358-.8,11.146-.748,6.887-.1,8.773-.1,8.773s11.153-1.107,20.282-2.9a66.524,66.524,0,0,1,16.073-.807S350.875,122.946,350.165,117.829Z" transform="translate(-293.021 -23.178)" fill="#fcede3"/>
    <path id="Path_1026" data-name="Path 1026" d="M340.1,115.871a8.456,8.456,0,0,1-2.456-2.657c-2.268-3.626-3.314-9.516-.824-13.942,3.28-5.831,11.343-6.029,11.343-6.029s-5.772-3.941-12.187,1.527c-3.185,2.714-9.138,10.57-16.008,16.876-6.53,5.993-4.5,9.725-2.967,14.316,1.024,3.071.771,3.93,0,6.79l15.621,4.644,17.98-7.5,1.527-11.6A18.123,18.123,0,0,1,340.1,115.871Z" transform="translate(-294.708 -42.744)" fill="url(#linear-gradient-3)"/>
    <path id="Path_1027" data-name="Path 1027" d="M329.154,106.434s2.057,3.347,4.705,4.405,3.6,3.917,1.206,5.717a7.445,7.445,0,0,1-4.57,1.645s1.487-3.3.532-6.137C330.256,109.767,329.154,106.434,329.154,106.434Z" transform="translate(-307.966 -26.549)" fill="url(#linear-gradient-4)"/>
    <path id="Path_1028" data-name="Path 1028" d="M343.238,131.414A43.944,43.944,0,0,0,327.154,146.7a130.414,130.414,0,0,0-11.5,22.284c-1.2,2.832,0,6.574,3.2,14.306,1.586,3.837,6.581,13.486,8.3,18.143,6.925,18.726,11.957,35.887,11.957,35.887l10.147,4.555s-.845-23.993-1.052-29.705a74,74,0,0,0-5.037-24.723c-2.644-6.374-6.059-8.7-6.059-8.7s13.119-8.838,22.434-16.208c6.572-5.2,13-15.55,13-15.55Z" transform="translate(-314.602 1.225)" fill="#fcede3"/>
    <path id="Path_1029" data-name="Path 1029" d="M335.381,164.763c2.3-26.178,2.4-29.04-.494-36.71-11.024,6.055-21.621,35.382-24.084,42.022C317.13,171.616,329.514,167.245,335.381,164.763Z" transform="translate(-269.855 -2.512)" fill="url(#linear-gradient-5)"/>
    <path id="Path_1030" data-name="Path 1030" d="M327.017,133.982c2.914-3.563,7.191-6.828,14.111-9.894a26.186,26.186,0,0,1,16.983-1.708s9.007,13.208,7.611,23.281c-2.327,16.789-32.463,35.224-32.463,35.224s-.769-10.642-11.273-18.762c-4.718-3.647-11.535-4.612-11.535-4.612S322.588,139.4,327.017,133.982Z" transform="translate(-297.899 -9.589)" fill="url(#linear-gradient-6)"/>
    <path id="Path_1031" data-name="Path 1031" d="M333.2,111.555s12.764,5.56,15.134,6.23c2.38,1.6,5,5.808,5,5.808s-5.863,2.737-9.144,4.165c-5.28,2.3-10.384,6.023-16.13,6.443-3.744.275-6.15-.942-9.845-3.573-2.642-1.88-5.244-2.1-7.436-.522-3.18,2.289-5.094,3.383-4.076,5.451-.577,1.265,0,3.791,1.17,3.791-.868,2.1.908,2.141,1.381,3.284.879,2.129,4.245-1.719,7-.8,4.893,1.641,7.3.965,11.757,1.288,7.565.545,24.538-5.068,30.552-8.181,3.377-1.746,4.722-2.249,7.609-3.554,2.338-1.058.876-4.688-.682-9.123-1.641-4.676-4.849-11.013-9.693-18.658-5.269-8.321-8.118-11.442-12.73-11.279C335.5,92.592,328.243,102.558,333.2,111.555Z" transform="translate(-290.914 -42.242)" fill="#fcede3"/>
    <path id="Path_1032" data-name="Path 1032" d="M323.055,101.834c3.461,1.641,6.883,5.985,6.883,5.985s-7.343,1.071-10.8-1.246a10.661,10.661,0,0,1-3.687-3.827S319.591,100.193,323.055,101.834Z" transform="translate(-272.519 -32.276)" fill="#fcede3"/>
    <path id="Path_1034" data-name="Path 1034" d="M342.437,148.912c.059-.127-2.644.18-3.7,3.466-.621,1.93,1.852,3.438,1.852,3.438Z" transform="translate(-333.997 20.654)" opacity="0.15"/>
    <g id="Group_923" data-name="Group 923" transform="translate(0 227.933)">
      <path id="Path_1035" data-name="Path 1035" d="M359.379,183.527c-1.225.154-1.225,3.062-2.6,3.677s-4.135-2.758-5.82-3.677a3.184,3.184,0,0,0-.589-.218l.089-.19a8.616,8.616,0,0,0-1.837-3.542,11.918,11.918,0,0,0-4.289-2.91c-1.873-1-.993,4.051-.395,6.8-1.869,1.185-8.1,5.049-10.574,5.569a13.848,13.848,0,0,1-6.249-.507,31.272,31.272,0,0,0-2.146,3.216c-1.225,2.209.414,3.263,2.405,4.488s6.126,4.289,11.486,5.056,8.319-1.533,9.442-1.073,2.013,2.45,2.013,2.45,3.594.2,7.537,0c2.684-.137,5.054-4.008,4.9-4.76S360.6,183.372,359.379,183.527Z" transform="translate(-324.543 -176.538)" fill="url(#linear-gradient-4)"/>
      <path id="Path_1037" data-name="Path 1037" d="M334.055,182.464s1.464.976,3.837,2.6a13.576,13.576,0,0,0,3.615,1.951,28.707,28.707,0,0,0-3.615-3.542c-.593-.473-2.572-1.616-2.572-1.616Z" transform="translate(-323.384 -170.618)" fill="#fff"/>
      <path id="Path_1038" data-name="Path 1038" d="M332.534,181.552s2.794,1.867,3.725,2.488c1.007.672,3.212,2.682,3.212,2.682a24.958,24.958,0,0,0-2.612-3.837,23.856,23.856,0,0,0-3.286-1.943Z" transform="translate(-318.136 -171.64)" fill="#fff"/>
      <path id="Path_1039" data-name="Path 1039" d="M331.09,180.718l3.727,2.488c1.005.672,3.2,2.682,3.2,2.682a24.727,24.727,0,0,0-2.6-3.837,23.85,23.85,0,0,0-3.288-1.943Z" transform="translate(-313.63 -172.568)" fill="#fff"/>
    </g>
    <g id="Group_924" data-name="Group 924" transform="translate(82.828 203.905)">
      <path id="Path_1040" data-name="Path 1040" d="M319.029,172.279c-.665-.384-12.3-8.044-13-7.026s1.478,2.95,1.022,4.388-4.807,1.263-6.612,1.913a3.2,3.2,0,0,0-.555.3l-.082-.194a8.622,8.622,0,0,0-3.869-.974,11.915,11.915,0,0,0-5.022,1.276c-2,.735,2.37,3.432,4.826,4.811-.355,2.184-1.6,9.41-2.851,11.607a13.872,13.872,0,0,1-4.526,4.34,31.8,31.8,0,0,0,.982,3.738c.841,2.382,2.716,1.856,4.954,1.18s7.273-1.738,11.4-5.239,4.374-7.239,5.463-7.776,3.168.122,3.168.122,2.541-2.555,5-5.639C321.016,177,319.692,172.663,319.029,172.279Z" transform="translate(-288.362 -165.16)" fill="url(#linear-gradient-8)"/>
      <path id="Path_1042" data-name="Path 1042" d="M296.967,176.638s1.7-.448,4.494-1.143a13.586,13.586,0,0,0,3.86-1.411,28.5,28.5,0,0,0-5.049.355c-.748.131-2.914.853-2.914.853Z" transform="translate(-291.702 -155.243)" fill="#fff"/>
      <path id="Path_1043" data-name="Path 1043" d="M296.425,174.608s3.25-.853,4.333-1.136c1.168-.308,4.137-.625,4.137-.625a25,25,0,0,0-4.6-.591,24.022,24.022,0,0,0-3.634,1.17Z" transform="translate(-290.132 -157.285)" fill="#fff"/>
      <path id="Path_1044" data-name="Path 1044" d="M296.091,172.968s3.252-.851,4.336-1.136c1.168-.306,4.127-.612,4.127-.612a24.611,24.611,0,0,0-4.593-.6,23.825,23.825,0,0,0-3.635,1.168Z" transform="translate(-289.084 -159.106)" fill="#fff"/>
    </g>
  </g>
</svg>
