<svg xmlns="http://www.w3.org/2000/svg" width="30" height="30" viewBox="0 0 30 30"><path d="M6.649,148.3l-1.044,3.9-3.817.081a15.026,15.026,0,0,1-.11-14.007h0l3.4.623,1.489,3.378a8.952,8.952,0,0,0,.084,6.027Z" transform="translate(0 -130.166)" fill="#fbbb00"/><path d="M276.036,208.176a14.994,14.994,0,0,1-5.347,14.5h0l-4.28-.218-.606-3.781a8.94,8.94,0,0,0,3.846-4.565h-8.021v-5.934h14.408Z" transform="translate(-246.298 -195.978)" fill="#518ef8"/><path d="M53.111,317.976h0a15,15,0,0,1-22.6-4.589l4.861-3.979a8.921,8.921,0,0,0,12.855,4.568Z" transform="translate(-28.721 -291.28)" fill="#28b446"/><path d="M51.521,3.453,46.662,7.432A8.92,8.92,0,0,0,33.511,12.1l-4.887-4h0a15,15,0,0,1,22.9-4.648Z" transform="translate(-26.947)" fill="#f14336"/></svg>