<?xml version="1.0" encoding="utf-8"?>
<!-- Generator: Adobe Illustrator 23.0.0, SVG Export Plug-In . SVG Version: 6.00 Build 0)  -->
<svg xmlns="http://www.w3.org/2000/svg" xmlns:xlink="http://www.w3.org/1999/xlink" width="500" height="225" viewBox="0 0 500 225">
<g transform="translate(-59 -28)">
	<g transform="translate(59 28)">
		<g enable-background="new    ">
			<path fill="#83A7FF" d="M162.1,76.8c-4.1,22.7-14,49.6-29.4,80.7c-17.8,35.7-33.2,53.6-46.3,53.6c-4.7,0-10.8-4.5-18.3-13.5
				c-7.1-8.4-14.7-19.7-22.6-34c-17.7-31.7-29.7-61.5-35.9-89.5c-0.3-1.7,0-3.4,0.9-5.2c1-1.8,2.3-3.2,3.9-4.3
				c4.4-2.7,8.5-1.8,12.3,2.6c1.2,1.4,9.3,17.9,24.4,49.4l4.3,8.9c1.6,3.3,3,6.2,4.3,8.8c3,6.4,5.6,11.7,7.7,16
				c5.3,10.8,8.5,17.1,9.8,19.1c0.1-0.8,0.1-2.8,0.1-6.2c0-1.3,0-2.9,0-5l0.1-5.5c0.1-9.9,0.1-15.5,0.2-16.7
				C67,122.8,59.4,111.5,55,102.2c-6.2-12.9-6.1-21.4,0.2-25.6c4.1-2.8,8.5-1.2,13.1,4.7c1.6,2,3.7,5.2,6.3,9.6l1.7,2.7l1.7,2.8
				c1.3,2.2,2.4,4.1,3.5,5.6c0.1-1.4,0.1-3.5,0-6.2v-3.6l-0.1-3.8c-0.2-6.5,0-11.7,0.3-15.6C82.9,61,86.6,56.3,93,58.7l0.3,0.1h0.3
				c3.7,0.4,6.1,6.4,7.2,18.2c0.4,3.9,0.6,8.5,0.8,13.9l0.1,3c0,0.8,0,1.7,0,2.8c0,2.1,0,3.5,0.1,4.2c0.8-1.3,1.4-2.4,1.9-3.3
				c0.8-1.3,1.6-2.5,2.4-3.6c2-2.9,3.8-5.2,5.4-7.1c4.5-5.2,8-6.8,10.6-4.9c5,3.8,3.6,12.9-4.3,27.1c-2.5,4.6-5.7,9.7-9.7,15.3
				c-0.7,1.1-1.4,2.1-2.1,3.2c-0.5,0.8-1.2,1.7-1.9,2.7c-1.4,2-2.3,3.1-2.6,3.5c0,3.1-0.2,9.4-0.7,18.8c-0.1,1.5-0.2,3.2-0.2,5.1
				l-0.1,2.4l-0.1,2c-0.2,2.9-0.2,4.6-0.2,4.9c0.9-1.4,7.6-15.2,20.1-41.6c5.9-12.4,10.7-22.4,14.4-30.1
				c5.1-10.4,9.1-17.9,11.8-22.6c3.8-6.5,7.6-8.8,11.4-6.7c1.6,0.8,2.7,2.3,3.5,4.3C162.3,72.3,162.4,74.5,162.1,76.8z"/>
			<path fill="#83A7FF" d="M210,193.8c10,0.1,15,2.2,15.1,6.4c0.1,4.8-2.5,8.6-7.9,11.4c-4.8,2.5-10.9,3.8-18.4,3.9
				c-7.1,0.2-13.5-0.8-19-2.9c-6-2.2-9.4-5.2-10.2-8.9c-1.1-5,3.1-8,12.7-9c-0.8-4.7-1.4-10.3-1.7-17c-0.1-2.1-0.2-4.6-0.2-7.4v-1.7
				v-1.5c-0.1-1.1-0.1-2-0.1-2.6c-0.4-13.5,1.5-24,5.6-31.6c4.7-8.9,10.9-9.9,18.8-2.9c3.9,3.5,6,12.1,6.3,25.6
				c0.1,4.6,0,10-0.3,16.2c-0.1,2-0.2,4.3-0.5,7.1l-0.1,1.6l-0.1,1.5c-0.1,1.1-0.1,2-0.1,2.7c-0.1,0.8-0.1,2.1,0,4.1v2.5L210,193.8z
				 M210.4,106.8c-0.5,2.7-2.1,5.2-4.9,7.6c-2.6,2.2-5.6,3.6-8.8,4.2c-3.5,0.6-6.6,0-9.1-1.7c-2.9-2-4.7-5.3-5.4-10
				c-0.5-3,0.1-5.9,1.6-8.8c1.4-2.8,3.5-4.9,6.2-6.2c2.9-1.6,5.8-2,8.8-1.2c3.5,0.8,6.6,2.9,9.5,6.3
				C210.4,99.6,211.1,102.9,210.4,106.8z"/>
			<path fill="#83A7FF" d="M348.9,61.4c2.5,0.4,4.5,1.6,6.1,3.7c1.5,2,2.2,4.3,2.1,6.9c-0.1,2.7-1,5-2.7,7c-2.1,2.3-5,3.6-8.8,4.2
				c-4.1,0.6-8,1.2-11.7,1.9c-4.7,0.8-9.2,1.7-13.5,2.7c-10.8,2.5-20.1,5.4-27.9,8.8c-21.1,9.2-30.2,21.4-27.5,36.7
				c2.3-1.2,5.2-2.6,8.8-4.2l2-0.9l1.8-0.8c1.4-0.5,2.4-1,3.2-1.4l1.7-0.9l1.7-0.9c1.5-0.8,2.8-1.4,3.8-1.9c3.2-1.5,6-2.5,8.3-3
				c6.7-1.5,11.6,0.4,14.8,5.6c2.9,4.8-0.3,10.5-9.4,16.9c-8,5.7-17.6,10.1-28.5,13.2c7.5,13.3,20.2,27.4,37.9,42.2
				c2.9,2.5,4.4,4.9,4.3,7.2c0,2.1-1.2,3.8-3.6,5.1c-2.4,1.2-5.4,1.7-9,1.6c-3.9-0.3-7.7-1.4-11.5-3.4c-16.6-8.6-30.3-22-40.9-39.9
				c-12.9-21.6-14.8-41.7-5.9-60.2c6.8-14.2,21.2-25.9,43.1-35.2c21.1-8.9,41.5-12.5,61.3-10.9H348.9z"/>
			<path fill="#83A7FF" d="M381.7,193.8c10,0.1,15,2.2,15.1,6.4c0.1,4.8-2.5,8.6-7.9,11.4c-4.8,2.5-10.9,3.8-18.4,3.9
				c-7.1,0.2-13.5-0.8-19-2.9c-6-2.2-9.4-5.2-10.2-8.9c-1.1-5,3.1-8,12.7-9c-0.8-4.7-1.4-10.3-1.7-17c-0.1-2.1-0.2-4.6-0.2-7.4v-1.7
				v-1.5c-0.1-1.1-0.1-2-0.1-2.6c-0.4-13.5,1.5-24,5.6-31.6c4.7-8.9,10.9-9.9,18.8-2.9c3.9,3.5,6,12.1,6.3,25.6
				c0.1,4.6,0,10-0.3,16.2c-0.1,2-0.2,4.3-0.5,7.1l-0.1,1.6l-0.1,1.5c-0.1,1.1-0.1,2-0.1,2.7c-0.1,0.8-0.1,2.1,0,4.1v2.5
				L381.7,193.8z M382.1,106.8c-0.5,2.7-2.1,5.2-4.9,7.6c-2.6,2.2-5.6,3.6-8.8,4.2c-3.5,0.6-6.6,0-9.1-1.7c-2.9-2-4.7-5.3-5.4-10
				c-0.5-3,0.1-5.9,1.6-8.8c1.4-2.8,3.5-4.9,6.2-6.2c2.9-1.6,5.8-2,8.8-1.2c3.5,0.8,6.6,2.9,9.5,6.3
				C382.1,99.6,382.8,102.9,382.1,106.8z"/>
			<path fill="#83A7FF" d="M493.7,189.1c2.6,4.3,1.8,8.7-2.4,13.3c-3.9,4.3-9.7,7.7-17.5,10.3c-8,2.6-16,3.4-23.8,2.6
				c-9-0.9-16.2-4-21.8-9.3c-8.2-7.7-13.2-18.1-15-31.4c-1.6-11.5-0.8-24.4,2.5-38.6c-4.7-2.2-7.9-4.9-9.6-8.2
				c-1.5-2.8-1.7-5.1-0.5-7c3.5-5.5,9.2-8.3,17.3-8.3c5.7-14.4,12-25.4,18.8-33.2c2.8-3.2,6-5.6,9.6-7.2c3.2-1.5,6.2-2.1,8.9-1.7
				c2.7,0.3,4.4,1.4,5.2,3.4c0.9,2.2,0.4,4.9-1.5,8.2c-5.7,10.2-10.9,21.7-15.7,34.5c15.9,4.1,25,9.4,27.4,15.9
				c0.8,2.3,0.8,4.5-0.2,6.8c-0.8,1.7-1.9,3-3.3,3.7c-3.1,1.7-7.9,2.4-14.3,1.9c-4.7-0.2-10.5-1.1-17.5-2.6c-3,13-3.8,23.7-2.3,31.9
				c1.4,8,4.7,13.2,10.2,15.5c4,1.7,9.6,1.9,16.9,0.5l4.5-1l4.5-1c3.7-0.9,6.4-1.5,8.2-1.8C488.4,185.4,492.1,186.4,493.7,189.1z
				 M469,156.2c1.8,0.8,3.1,2,3.9,3.8c0.8,1.7,1.1,3.5,0.7,5.4c-0.5,2.4-1.7,4.7-3.7,6.8c-1.5,2.2-3.6,4-6.3,5.4
				c-2.6,1.4-5.1,2.1-7.7,2.3c-4.6,0.2-7.6-2.3-8.9-7.3c-1.2-4.6,0.4-8.7,4.7-12.3C457.8,155.3,463.5,154,469,156.2z"/>
		</g>
	</g>
	<g transform="translate(273.065 108.243) rotate(-22)">
		<g transform="translate(118.363 29.616)">
			<g transform="translate(4.977 48.093)">
				<path fill="#FCEDE3" d="M9.8-45L1-48.1l-1.4,0.7l9.3,4.2c0.8,0.3,1.4,0,1.6-0.5C10.6-44.2,10.3-44.8,9.8-45z"/>
				<path fill="#FCEDE3" d="M0.9-50.4l0.9,0c3.9,1.4,8.1,1.3,12-0.1l0.3-0.1c0.9-0.3,1.8,0.1,2.1,1c0,0.1,0.1,0.2,0.1,0.3l0,0
					c0.1,0.7-0.2,1.4-0.8,1.7l0,0c-3.8,2.2-8.3,2.8-12.6,1.8l-3.3-1.6L0.9-50.4z"/>
			</g>
			
				<linearGradient id="SVGID_1_" gradientUnits="userSpaceOnUse" x1="-367.0983" y1="18.3534" x2="-367.0983" y2="17.433" gradientTransform="matrix(10.7451 20.131 4.3413 -49.8259 3870.1582 8257.6064)">
				<stop  offset="0" style="stop-color:#FDBB90"/>
				<stop  offset="1" style="stop-color:#E85D7C"/>
			</linearGradient>
			<path fill="url(#SVGID_1_)" d="M0-46.9L3.2,2.5l6.5-3.8l0.9-43.5L0-46.9z"/>
		</g>
		<g transform="translate(0 5.436)">
			<path fill="#FCEDE3" d="M25.8,17.3l2.1,5.9l-16.8,8.4l0,0c-0.5-2.3,0.8-4.6,3-5.3l2.2-0.7c1.4-0.7,5-4.4,3.8-5.4L25.8,17.3z"/>
			<path d="M60.6-17.1c-8.2-1.5-27.1-3.4-27.1-3.4l-4,38.7l-10.6,2.5l0.3-43c-0.8-4.3,2-8.3,6.3-9.1c0.2,0,0.3-0.1,0.5-0.1l45.9-7.2
				l6.5,17l4.2-0.1C70.9-15.9,68.8-15.6,60.6-17.1z"/>
			<path fill="#FCEDE3" d="M29.9,13.1l2.9,9.1l-16.2,9l0,0c-0.7-2.2,0.3-4.7,2.5-5.6l2.1-0.9c1.3-0.8,3.3-6.7,2-7.6L29.9,13.1z"/>
			<path fill="#404040" d="M58.3-14.3C51.2-16.1,36-20,36-20l-3,37.8l-9.7,1.2L24-24c-0.9-5.1,2.5-9.9,7.5-10.9L72.2-45l9.4,20.9
				L78-19.4C78-19.4,68.7-11.8,58.3-14.3z"/>
		</g>
		<g transform="translate(110.135 78.602)">
			<path fill="#FCEDE3" d="M11.4-45.1l-8.8-3.1l0.6,1.7l7.2,3.2c0.8,0.3,1.4,0,1.6-0.5C12.2-44.3,11.9-44.9,11.4-45.1
				C11.4-45.1,11.4-45.1,11.4-45.1z"/>
			<path fill="#FCEDE3" d="M2.5-50.5l0.9,0c3.9,1.4,8.1,1.3,12-0.1l0.3-0.1c0.9-0.3,1.8,0.1,2.1,1c0,0.1,0.1,0.2,0.1,0.3l0,0
				c0.1,0.7-0.2,1.4-0.8,1.7l0,0c-3.8,2.2-8.4,2.8-12.6,1.8l-1.6-0.8c-1-0.5-1.7-1.5-1.9-2.6l-0.3-1.6L2.5-50.5z"/>
		</g>
		
			<linearGradient id="SVGID_2_" gradientUnits="userSpaceOnUse" x1="-248.515" y1="47.7041" x2="-248.515" y2="46.7837" gradientTransform="matrix(58.4775 30.2027 23.6265 -74.7541 13505.4355 11027.3193)">
			<stop  offset="0" style="stop-color:#FDBB90"/>
			<stop  offset="1" style="stop-color:#E85D7C"/>
		</linearGradient>
		<path fill="url(#SVGID_2_)" d="M129-15.1l-7.8,7.2l-3.5,2.8l-1.1,33.7l-6.5,1.1l-3.7-39.2C98-22.2,78-14,78-14l-7-25.6l19.3-4.3
			c4-0.9,8.1-0.9,12,0.1c7.2,1.9,14.5,6.2,18.5,10.6C126.4-27.1,129-15.1,129-15.1z"/>
		<path fill="#FCEDE3" d="M136.2,8.4c0.4,3.7-2.5,8.3-7.1,9.9c-4.4,1.6-9.4,0.1-12.3-3.7l-0.5-0.6c-1.8-2.5-2.7-7.9-2.1-10.9l2.4-8
			l-0.4-7.2l8.4,1.4l2.1,5.3l3.1-0.3c2.9-0.2,5.4,1.9,5.7,4.8v0l0.2,2.4L136.2,8.4z"/>
		<path d="M135.8,13.3c-2,5.3-7.5,8.4-13,7.5l0,0c-6.5-1-11-7.2-10-13.7c0.1-0.5,0.2-0.9,0.3-1.4c0.7-2.3,2.5-7.2,2.5-7.2l3.1,5.9
			L135.8,13.3z"/>
		<path fill="#FCEDE3" d="M122.4,4.4c-0.1-1.5-1.4-2.6-2.9-2.4c-1.5,0.1-2.6,1.4-2.4,2.9c0.1,1.5,1.4,2.6,2.9,2.4
			C121.4,7.2,122.5,5.9,122.4,4.4z"/>
		<path fill="#FFFFFF" d="M131.1,0.6c-0.1-1.3-1.3-2.2-2.5-2.1c-1.3,0.1-2.2,1.3-2.1,2.5"/>
	</g>
	<path fill="#FDBB90" d="M94.4,223.1c2-2.7,1.4-6.4-1.2-8.4c-1-0.8-2.3-1.2-3.6-1.2h-9.8c-3.3,0-6,2.7-6,6c0,1.3,0.4,2.5,1.2,3.6
		l1.9,2.6c-3.1,3.4-3.6,8.5-1.3,12.4c0.9,1.6,2.2,2.9,3.8,3.8l0.2,0.1h10.2l0.2-0.1c3.3-1.9,5.3-5.4,5.3-9.1c0-2.6-1-5.1-2.7-7.1
		L94.4,223.1z M79.2,219.9l0.6-1.1h9.8l0.6,1.1l-2.5,3.5c-1.9-0.6-4-0.6-5.9,0L79.2,219.9z"/>
	<g transform="translate(102.299 203.388)">
		<path fill="#0A0A0D" d="M34-32.3h23.7l9.8-13.6c1.1-2.3,0.1-5-2.2-6c-0.7-0.4-1.6-0.5-2.4-0.4l0,0c-0.8,0.1-1.5,0.3-2.1,0.8
			l-15,7.9l-15-7.9c-0.6-0.4-1.3-0.7-2.1-0.8l0,0c-2.5-0.3-4.7,1.6-5,4.1c-0.1,0.8,0.1,1.7,0.4,2.4L34-32.3z"/>
		<g transform="translate(0 80.689)">
			<path fill="#FCEDE3" d="M7.3-49.1l6.1-6.7L12-57.1l-6.1,6.7c-0.4,0.4-0.4,1,0.1,1.4C6.3-48.6,7-48.7,7.3-49.1
				C7.3-49.1,7.3-49.1,7.3-49.1L7.3-49.1z"/>
			<path fill="#FCEDE3" d="M15.6-55l-0.3,0.8c-2.7,3-4.3,6.8-4.5,10.8l0,0.3c0,0.9-0.8,1.6-1.7,1.5c-0.1,0-0.2,0-0.3,0l0,0
				c-0.7-0.2-1.2-0.7-1.2-1.4l0,0c-0.5-4.3,0.7-8.5,3.2-12l2.8-3.9L15.6-55z"/>
		</g>
		<g transform="translate(7.241 19.737)">
			<path fill="#FCEDE3" d="M78.2,11.9l-6.1-6.7l1.5-1.4l6.1,6.7c0.4,0.4,0.4,1-0.1,1.4C79.2,12.3,78.6,12.3,78.2,11.9
				C78.2,11.9,78.2,11.9,78.2,11.9z"/>
			<path fill="#FCEDE3" d="M70,6l0.3,0.8c2.7,3,4.3,6.8,4.5,10.8l0,0.3c0,0.9,0.8,1.6,1.7,1.5c0.1,0,0.2,0,0.3,0l0,0
				c0.7-0.2,1.2-0.7,1.2-1.4l0,0c0.5-4.3-0.7-8.5-3.2-12L72,2.1L70,6z"/>
			
				<linearGradient id="SVGID_3_" gradientUnits="userSpaceOnUse" x1="-49.0255" y1="22.7078" x2="-49.0255" y2="21.7874" gradientTransform="matrix(74.177 0 0 -66.0204 3675.729 1445.1925)">
				<stop  offset="0" style="stop-color:#FDBB90"/>
				<stop  offset="1" style="stop-color:#E85D7C"/>
			</linearGradient>
			<path fill="url(#SVGID_3_)" d="M73.3,3.7L52.9-23.7L50.4-52l-1.6-0.5c-6.6-1.9-13.6-2-20.2-0.1L26.7-52l-1.5,28.6L5,3.7l3.2,3
				L23.6-9.4c4.1-4.3,9.7-6.7,15.6-6.7l0,0c5.9,0,11.5,2.4,15.6,6.6L70.1,6.6L73.3,3.7z"/>
		</g>
		<path fill="#FEF4EB" d="M32.7,22.6c-0.1,3.7,3.2,7.9,7.9,9.2c4.5,1.2,9.3-0.7,11.8-4.7l0.4-0.7c1.6-2.6,2-5.8,1.1-8.7l-3.1-7.7
			l0-5.5l-4.4-3.3l-4.5,3.3l-0.1,5.9l-4.1,0c-2.9,0-5.2,2.4-5.2,5.3v2.4L32.7,22.6z"/>
		<path fill="#FFFFFF" d="M37,16.2c0-1.3,1-2.3,2.3-2.3c1.3,0,2.3,1,2.3,2.3"/>
		<path d="M47.9,21.6L32.2,25c0.1,0.8,0.2,1.6,0.5,2.4c2.1,6.2,8.4,9.1,14.5,7.5c5.5-1.4,9.4-6.2,9.5-11.8c0-5.2-4.8-9.8-4.8-9.8
			L47.9,21.6z"/>
		<path fill="#FCEDE3" d="M46,19.8c0-1.5,1.2-2.7,2.7-2.7c1.5,0,2.7,1.2,2.7,2.7c0,1.5-1.2,2.7-2.7,2.7C47.1,22.4,46,21.3,46,19.8
			L46,19.8z"/>
	</g>
	<g transform="translate(401.438 218.58)">
		<path fill="#FCEDE3" d="M145.8,19.9h-3.4c-0.5-1.1-2.4-1.9-4.7-1.9c-2.7,0-4.9,1.6-4.9,3.2c0,0.6,0.4,0.9,1,2h12
			c0.8,0,1.4-0.9,1.4-1.7C147.2,20.8,146.6,19.9,145.8,19.9z"/>
		<g transform="translate(0 11.876)">
			<path d="M-13.1-1.9l-4.4-2.4l-0.7,14l0,0c1.7-0.3,2.9-1.9,2.7-3.7l-0.2-1.7c0-0.9,0.8-1.6,1.7-1.6c0.2,0,0.4,0.1,0.6,0.2l0,0
				L-13.1-1.9z"/>
			<path fill="#FDBB90" d="M67.8-14l-11-7.7L1.1-54.6l-2.8,3.8l13.8,12.5c4.1,4,12.8,10.5,17.9,13.1l5.9,3L53.7-5.9L24.2-1.1
				l-37.3-0.8l-0.2,4.8l35.6,5.6c1.2,0.2,2.3,0.3,3.5,0.2C34.4,8,65.8,8.5,65.8,8.5L67.8-14z"/>
		</g>
		<path d="M-1.6-38.9l-5-1L2-51l0,0c1.1,1.4,0.9,3.3-0.3,4.6l-1.2,1.2C-0.1-44.5,0-43.5,0.7-43c0.2,0.1,0.4,0.2,0.6,0.3l0,0
			L-1.6-38.9z"/>
		<g transform="translate(87.763)">
			<path fill="#FCEDE3" d="M-23.6-46.1l6.9,5.5l-1,1.7l-6.9-5.5c-0.6-0.5-0.7-1.1-0.4-1.5C-24.6-46.3-24-46.4-23.6-46.1
				C-23.6-46.1-23.6-46.1-23.6-46.1z"/>
			<path fill="#FCEDE3" d="M-14.8-41.7l-0.4-0.7c-3.1-2.4-5.2-5.8-6-9.6l-0.1-0.3c-0.2-0.8-1-1.4-1.9-1.2c-0.1,0-0.2,0-0.3,0.1l0,0
				c-0.6,0.3-1,0.9-1,1.5l0,0c0.2,4.2,2,8.1,5,11l2.9,1.8L-14.8-41.7z"/>
		</g>
		
			<linearGradient id="SVGID_4_" gradientUnits="userSpaceOnUse" x1="-341.3205" y1="27.1726" x2="-341.3205" y2="26.2521" gradientTransform="matrix(77.186 0 0 -73.7112 26446.5039 1959.1515)">
			<stop  offset="0" style="stop-color:#FDBB90"/>
			<stop  offset="1" style="stop-color:#E85D7C"/>
		</linearGradient>
		<path fill="url(#SVGID_4_)" d="M117.9,15.9V-4l-7.4-6.8l-6.8-3.6L71.1-43.8l-3.2,3.2l27.5,30.2c-5.9,4.8-15.4,9.8-23.2,8.8
			l-4.4-0.6l-2,22.5L84.5,24c8.8,0.8,21.5-5.9,25.6-10.9l0.1,6.2c0,2.2,1.8,4,4,4h22.6v-5.5L117.9,15.9z"/>
		<path fill="#FCEDE3" d="M124.7-26.3c0.4-3.5-2.4-7.8-6.7-9.4c-4.2-1.5-8.9-0.1-11.6,3.5l-0.4,0.6c-1.7,2.3-2.6,7.5-2,10.4l2.3,7.6
			l-0.4,6.8l8-1.3l2-5.1l2.9,0.2c2.8,0.2,5.2-1.8,5.4-4.6v0l0.2-2.3L124.7-26.3z"/>
		<path fill="#FD9A9F" d="M124.3-31c-1.9-5-7.1-7.9-12.4-7.1l0,0c-6.2,1-10.4,6.8-9.4,13c0.1,0.4,0.2,0.9,0.3,1.3
			c0.6,2.2,2.4,6.8,2.4,6.8l2.9-5.6L124.3-31z"/>
		<path fill="#FCEDE3" d="M111.6-22.5c-0.1,1.4-1.4,2.4-2.8,2.3c-1.4-0.1-2.4-1.4-2.3-2.8c0.1-1.4,1.4-2.4,2.8-2.3
			C110.7-25.1,111.7-23.9,111.6-22.5C111.6-22.5,111.6-22.5,111.6-22.5z"/>
		<path fill="#FFFFFF" d="M119.9-18.9c-0.1,1.2-1.2,2.1-2.4,2c-1.2-0.1-2.1-1.2-2-2.4"/>
		<path fill="#FD9A9F" d="M112-35.8c0,0-0.2-6.7-6.5-6.9c-6.3-0.2-7,7.9-7.3,10.2c-0.3,2.4-2.7,4.9-5.2,3.8c0,0,3.1,7.7,10.6,3.4
			L112-35.8z"/>
	</g>
	<g transform="translate(144.757 75.423)">
		<g transform="translate(54.449 195.889)">
			<path fill="#E85D7C" d="M18.5-48.2c2-2.7,1.4-6.4-1.2-8.4c-1-0.8-2.3-1.2-3.6-1.2H3.9c-3.3,0-6,2.7-6,6c0,1.3,0.4,2.5,1.2,3.6
				L1-45.7c-3.1,3.4-3.6,8.5-1.3,12.4c0.9,1.6,2.2,2.9,3.8,3.8l0.2,0.1h10.2l0.2-0.1c3.3-1.9,5.3-5.4,5.3-9.1c0-2.6-1-5.1-2.7-7.1
				L18.5-48.2z M3.3-51.4l0.6-1.1h9.8l0.6,1.1l-2.5,3.5c-1.9-0.6-4-0.6-5.9,0L3.3-51.4z"/>
		</g>
		<circle fill="#FD9A9F" cx="21.4" cy="-23" r="19.2"/>
		<g>
			<defs>
				<circle id="SVGID_11_" cx="21.4" cy="-23" r="19.2"/>
			</defs>
			<clipPath id="SVGID_5_">
				<use xlink:href="#SVGID_11_"  overflow="visible"/>
			</clipPath>
			<g transform="translate(0)" clip-path="url(#SVGID_5_)">
				<rect x="20.6" y="-43.8" fill="#FDBB90" width="1.6" height="41.4"/>
				<rect x="0.7" y="-23.9" fill="#FDBB90" width="41.4" height="1.6"/>
				<g transform="translate(-2.745 3.965)">
					<path fill="none" stroke="#FDBB90" stroke-miterlimit="10" d="M15.6-27c0-5.9-2.4-11.5-6.6-15.5c-8.6,8.3-8.8,22.1-0.4,30.7
						c0.1,0.1,0.3,0.3,0.4,0.4C13.2-15.5,15.6-21.1,15.6-27z"/>
					<ellipse fill="none" stroke="#FDBB90" stroke-miterlimit="10" cx="39.3" cy="-27" rx="6.6" ry="15.5"/>
				</g>
			</g>
		</g>
		<g transform="translate(166.285 198.342)">
			<rect x="-7.2" y="-54.6" fill="#BBC2D4" width="5.2" height="20.5"/>
			<rect x="-11" y="-38.3" fill="#83A7FF" width="12.8" height="6.9"/>
			<rect x="-11" y="-58" fill="#83A7FF" width="12.8" height="6.9"/>
		</g>
	</g>
</g>
</svg>
