<svg xmlns="http://www.w3.org/2000/svg" xmlns:xlink="http://www.w3.org/1999/xlink" width="165.945" height="255" viewBox="0 0 165.945 255">
  <defs>
    <linearGradient id="linear-gradient" x1="0.5" x2="0.5" y2="1" gradientUnits="objectBoundingBox">
      <stop offset="0" stop-color="#fdbb90"/>
      <stop offset="1" stop-color="#e85d7c"/>
    </linearGradient>
    <linearGradient id="linear-gradient-2" x1="20.598" x2="20.598" xlink:href="#linear-gradient"/>
    <linearGradient id="linear-gradient-3" x1="17.718" x2="17.718" y2="1" gradientUnits="objectBoundingBox">
      <stop offset="0" stop-color="#6d89fc"/>
      <stop offset="1" stop-color="#8ab6fd"/>
    </linearGradient>
    <linearGradient id="linear-gradient-4" x1="0.5" y1="0" x2="0.5" y2="1" xlink:href="#linear-gradient-3"/>
    <linearGradient id="linear-gradient-7" x1="244.57" y1="0.5" x2="243.57" y2="0.5" gradientUnits="objectBoundingBox">
      <stop offset="0" stop-color="#efa08b"/>
      <stop offset="0.086" stop-color="#ec9c87"/>
      <stop offset="0.635" stop-color="#e18673"/>
      <stop offset="0.995" stop-color="#dd7f6c"/>
    </linearGradient>
  </defs>
  <g id="man-regular" transform="translate(0 0)">
    <g id="Group_913" data-name="Group 913" transform="translate(0 0)">
      <path id="Path_908" data-name="Path 908" d="M454.967,236.23a8.481,8.481,0,0,1,2.668,4.308c.6,2.647.394,12.737.394,12.737l14.978-6.855s-2.35-8.687-1.412-12.651,1.412-7.831,1.412-7.831Z" transform="translate(-390.19 -200.318)" fill="#fcede3"/>
      <path id="Path_909" data-name="Path 909" d="M472.947,238.433c1.809-.432,4.149,2.461,4.218,5.671s-2.993,6.065-2.053,7.543,14.443,9.157,14.443,9.157L486.84,273.77s-12.26-8.059-16.777-14.686c-4.379-6.425-5.262-10.377-5.716-13.292-.4-2.542,1.184-3.473,2.694-2.718-.451-3.15,1.728-2.891,2.856-2.592C470.818,237.109,472.947,238.433,472.947,238.433Z" transform="translate(-428.856 -183.507)" fill="#fcede3"/>
      <path id="Path_910" data-name="Path 910" d="M463.726,217.4a5.9,5.9,0,0,0-4.23,3.667,14.641,14.641,0,0,0-.919,3.689c-.14,2.969.71,5.811.681,7.206-.066,3.038-5.407,5.193-4.08,6.967.434.582,3.031.807,2.867,2.037-.121.9-1.071,1.248.033,2.205-.736,1.1-.017,1.405.605,1.766.373.216,1.106.3.764,1.341-1.123,3.444.779,4.65,6.784,3.427,2.969-.605,5.659-2.165,8.851-4.206a64.383,64.383,0,0,0,8.507-7.282S475.656,213.582,463.726,217.4Z" transform="translate(-400.774 -212.598)" fill="#fcede3"/>
      <path id="Path_911" data-name="Path 911" d="M454.882,223.615s-1.844-1.908-2.037-3.4c1.806.064,9.49-5.587,16.119-5.027,8.056.681,14.306,6.687,14.94,11.545s-1.659,14.429-3.062,17.078-3.437,7.776-3.437,7.776a21.1,21.1,0,0,1-1.868-2.7c.116-1.158-.942-4.026-1.142-6.406,1.344-3.055,2.7-6.746-.7-7.209-2.594-.354-4.764,3.814-4.764,3.814l-1.191-.681s1.222-7.147-2.6-9.587C465.217,225.941,467.619,220.458,454.882,223.615Z" transform="translate(-396.16 -215.145)" fill="#0a0a0d"/>
      <path id="Path_912" data-name="Path 912" d="M426.438,290.817s10.487,9.438,15.286,17.339a71.157,71.157,0,0,0,7.2,10.2c2.15,2.416,2.637,2.723,5.972,3.8,11.329,3.641,44.943,29.929,44.943,29.929l4.75-10.541s-10.912-11.766-21.764-22.73c-5.122-5.177-9.02-9.283-12.872-11.374-4.306-2.336-8.331-2.5-9.466-5.868-2.148-6.378-13.238-29.8-13.238-29.8Z" transform="translate(-354.058 -137.364)" fill="#fcede3"/>
      <path id="Path_913" data-name="Path 913" d="M446.742,301.323l14.1,11.552a22.666,22.666,0,0,0,7.93-4.258c5.737-4.852,9.957-13.185,9.957-13.185l-11.339-27Z" transform="translate(-376.391 -141.948)" fill="url(#linear-gradient)"/>
      <path id="Path_914" data-name="Path 914" d="M489.915,277.907s-4.116,8.543-6.549,13.864c-2.639,5.773-4.142,8.628-4.142,14.121,0,5.929-1.282,15.31-6.819,29.834C470.306,341.233,461,367.2,461,367.2l10.29,8.3s15.17-28.5,21.8-39.238c7.733-12.523,3.228-22.457,6.219-28.581s9.559-11.992,9.559-11.992S493.243,286.3,489.915,277.907Z" transform="translate(-440.362 -128.933)" fill="#fcede3"/>
      <path id="Path_915" data-name="Path 915" d="M464.33,267.767s-3.126,11.856-3.743,13.349c-4.864,11.759-9.924,27.752-9.924,27.752s2.9,4.555,10.026,7.655a44.682,44.682,0,0,0,15.372,3.689s13.615-22.706,18.315-29.511c6.981-10.109,6.3-25.241,6.3-25.241Z" transform="translate(-407.658 -146.03)" fill="url(#linear-gradient-2)"/>
      <path id="Path_916" data-name="Path 916" d="M458.6,238.8c-3.183,1.424-7.731,3.34-11.536,7.84-2.722,3.216-3.655,13.871-3.423,21.026.14,4.311,1.234,25.474,3.712,32.474,2.084,5.891,0,12.324,0,12.324s12.156,2.124,19.718,2.124c11.7,0,16.627-4.432,16.627-4.432s.852-6.945-4.738-23.61c-1.79-5.338,4.785-22.773,5.761-24.719,2.317.854,6.292,4.479,6.292,4.479a27.661,27.661,0,0,1,9.445-13.727c-4.329-4.833-7.8-7.683-12.507-14.011-3.912-5.258-10.791-5.723-15.336-5.63-2.77,1.014-8.749,6.437-11.583,7.66C459.024,241.462,458.6,240.259,458.6,238.8Z" transform="translate(-390.684 -190.723)" fill="url(#linear-gradient-3)"/>
      <path id="Path_917" data-name="Path 917" d="M463.964,246.468s-8.22-4.033-11.223-1.569c-2.8,2.3-3.193,6.129-1.467,11.514,1.593,4.966,5,6.627,6.9,9.217C458.6,258.239,463.964,246.468,463.964,246.468Z" transform="translate(-369.925 -175.368)" fill="url(#linear-gradient-4)"/>
      <path id="Path_918" data-name="Path 918" d="M491.923,255.383c-1.93-3.52-8.863-14.18-8.863-14.18s-2.3.788-5.362,4.36c-2.611,3.05-3.757,8.331-3.757,8.331l2.8,3.871s-13.542,8.991-20.636,12.219c-3.8,1.73-7.569.9-9.81,1.3-2.853.5-9.243,2.473-6.921,5.523-.513,1.379-.09,3.392,1.567,3.862a2.107,2.107,0,0,0,1.185,3.354c-.617,2.376,1.353,1.8,5.426.5,5.2-1.661,7.088-.741,12.084-4.486a54.567,54.567,0,0,1,8.2-3.51c12.369-3.7,14.154-5.3,16.354-6.912,3.363-2.457,6.81-5.977,8.773-7.232C495.735,260.6,493.637,258.514,491.923,255.383Z" transform="translate(-373.283 -179.35)" fill="#fcede3"/>
      <g id="Group_911" data-name="Group 911" transform="translate(0 226.679)">
        <path id="Path_919" data-name="Path 919" d="M510.094,318.192c-1.324.164-1.324,3.307-2.813,3.969s-4.465-2.976-6.286-3.969a3.483,3.483,0,0,0-.639-.237l.1-.2a9.285,9.285,0,0,0-1.984-3.824,12.863,12.863,0,0,0-4.631-3.143c-2.022-1.085-1.073,4.374-.427,7.349-2.018,1.277-8.747,5.455-11.42,6.012a14.967,14.967,0,0,1-6.75-.546,34.315,34.315,0,0,0-2.314,3.475c-1.324,2.383.446,3.522,2.6,4.847s6.615,4.631,12.4,5.457,8.984-1.655,10.2-1.158,2.172,2.647,2.172,2.647,3.883.221,8.139,0c2.9-.149,5.459-4.327,5.293-5.141S511.416,318.026,510.094,318.192Z" transform="translate(-472.471 -310.644)" fill="url(#linear-gradient-4)"/>
        <path id="Path_921" data-name="Path 921" d="M481.611,316.41s1.578,1.054,4.142,2.81a14.714,14.714,0,0,0,3.907,2.11,30.812,30.812,0,0,0-3.907-3.826c-.641-.51-2.775-1.745-2.775-1.745Z" transform="translate(-470.086 -303.616)" fill="#fff"/>
        <path id="Path_922" data-name="Path 922" d="M480.15,315.536l4.026,2.687c1.087.724,3.468,2.894,3.468,2.894a27.082,27.082,0,0,0-2.82-4.142,25.907,25.907,0,0,0-3.551-2.1Z" transform="translate(-464.602 -304.83)" fill="#fff"/>
        <path id="Path_923" data-name="Path 923" d="M478.762,314.733l4.026,2.689c1.085.724,3.454,2.894,3.454,2.894a26.6,26.6,0,0,0-2.806-4.142,25.662,25.662,0,0,0-3.551-2.1Z" transform="translate(-459.905 -305.931)" fill="#fff"/>
      </g>
      <g id="Group_912" data-name="Group 912" transform="translate(135.126 199.35)">
        <path id="Path_924" data-name="Path 924" d="M446.812,299.524c-.828-.01-15.835-1.044-15.951.282s2.955,1.991,3.287,3.587-3.852,3.739-5.205,5.307a3.548,3.548,0,0,0-.366.574l-.18-.138a9.292,9.292,0,0,0-4.154,1.135,12.865,12.865,0,0,0-4.049,3.864c-1.486,1.749,4.049,1.97,7.092,1.965.826,2.243,3.489,9.7,3.473,12.431a14.951,14.951,0,0,1-1.956,6.482,34.012,34.012,0,0,0,2.908,3c2.053,1.8,3.539.306,5.286-1.517s5.92-5.49,7.949-10.976.275-9.131,1.018-10.214,3.043-1.567,3.043-1.567,1.035-3.748,1.716-7.956C451.187,302.913,447.641,299.533,446.812,299.524Z" transform="translate(-419.946 -299.13)" fill="url(#linear-gradient-4)"/>
        <path id="Path_926" data-name="Path 926" d="M426.094,314.582s1.362-1.32,3.622-3.456a14.66,14.66,0,0,0,2.884-3.375,30.9,30.9,0,0,0-4.562,3.012c-.634.52-2.29,2.348-2.29,2.348Z" transform="translate(-415.551 -287.289)" fill="#fff"/>
        <path id="Path_927" data-name="Path 927" d="M426.435,312.344s2.609-2.526,3.475-3.368c.938-.909,3.56-2.779,3.56-2.779a27.019,27.019,0,0,0-4.643,1.885,25.659,25.659,0,0,0-2.8,3.029Z" transform="translate(-417.086 -289.425)" fill="#fff"/>
        <path id="Path_928" data-name="Path 928" d="M426.926,310.8l3.475-3.368a44.974,44.974,0,0,1,3.556-2.765,26.639,26.639,0,0,0-4.64,1.87,25.825,25.825,0,0,0-2.8,3.026Z" transform="translate(-418.738 -291.52)" fill="#fff"/>
      </g>
      <path id="Path_930" data-name="Path 930" d="M456.778,227.128s1.828-3.446,3.1-2.927,1.149,2.559,1.149,2.559-1.018-1.068-1.977-.6-.123,1.469,0,1.878c.4,1.315-1.362,1.984-1.362,1.984a7.75,7.75,0,0,0,.15-1.987C457.713,227.313,456.778,227.128,456.778,227.128Z" transform="translate(-382.515 -202.778)" opacity="0.08"/>
      <path id="Path_931" data-name="Path 931" d="M456.778,235.593s4.921-1.453,6.81-2.936c2.848-2.238,6.25-5.383,6.25-5.383s-2.11,5.034-4.256,7.123a20.32,20.32,0,0,1-6.817,4.308S458.055,236.063,456.778,235.593Z" transform="translate(-391.319 -198.485)" fill="#fcede3"/>
      <path id="Path_932" data-name="Path 932" d="M473.026,288.12s-1.861,2.977-1.609,4.182c.185.888,2.131,2.929,2.131,2.929Z" transform="translate(-429.72 -114.904)" opacity="0.1"/>
      <path id="Path_933" data-name="Path 933" d="M442.239,250.616Z" transform="translate(-328.781 -166.745)" fill="url(#linear-gradient-7)"/>
      <path id="Path_938" data-name="Path 938" d="M465.611,226.238a2.933,2.933,0,0,0,.667.807c.51.47.935,0,.51-.4A1.954,1.954,0,0,0,465.611,226.238Z" transform="translate(-409.409 -199.906)" fill="#ffa08d"/>
      <path id="Path_939" data-name="Path 939" d="M464.436,228.021s1.655.722,2.336.382c.411-.2.75-.418.043-.4C465.711,228.025,464.436,228.021,464.436,228.021Z" transform="translate(-406.885 -197.488)" fill="#ffa08d"/>
    </g>
  </g>
</svg>
