<svg id="man-bold" xmlns="http://www.w3.org/2000/svg" xmlns:xlink="http://www.w3.org/1999/xlink" width="165.943" height="255" viewBox="0 0 165.943 255">
  <defs>
    <linearGradient id="linear-gradient" x1="-8.567" x2="-8.567" y2="1" gradientUnits="objectBoundingBox">
      <stop offset="0" stop-color="#0a0a0d"/>
      <stop offset="1" stop-color="#682007"/>
    </linearGradient>
    <linearGradient id="linear-gradient-2" x1="0.5" x2="0.5" y2="1" gradientUnits="objectBoundingBox">
      <stop offset="0" stop-color="#fdbb90"/>
      <stop offset="1" stop-color="#e85d7c"/>
    </linearGradient>
    <linearGradient id="linear-gradient-3" x1="-3.775" x2="-3.775" xlink:href="#linear-gradient-2"/>
    <linearGradient id="linear-gradient-4" x1="-3.422" x2="-3.422" y2="1" gradientUnits="objectBoundingBox">
      <stop offset="0" stop-color="#6d89fc"/>
      <stop offset="1" stop-color="#8ab6fd"/>
    </linearGradient>
    <linearGradient id="linear-gradient-5" x1="0.5" y1="0" x2="0.5" y2="1" xlink:href="#linear-gradient-4"/>
    <linearGradient id="linear-gradient-8" x1="-70.272" y1="1" x2="-70.272" gradientUnits="objectBoundingBox">
      <stop offset="0" stop-color="#efa08b"/>
      <stop offset="0.278" stop-color="#e6917d"/>
      <stop offset="0.658" stop-color="#df8370"/>
      <stop offset="0.995" stop-color="#dd7f6c"/>
    </linearGradient>
    <linearGradient id="linear-gradient-9" x1="-83.222" y1="0.5" x2="-84.223" y2="0.5" gradientUnits="objectBoundingBox">
      <stop offset="0" stop-color="#efa08b"/>
      <stop offset="0.156" stop-color="#ea9884"/>
      <stop offset="0.649" stop-color="#e08572"/>
      <stop offset="0.995" stop-color="#dd7f6c"/>
    </linearGradient>
  </defs>
  <path id="Path_940" data-name="Path 940" d="M204.392,236.22c1.809-.434,4.613,3.406,4.681,6.615s-3.975,6.25-3.036,7.729,14.442,9.156,14.442,9.156l-3.468,16.568s-12.579-8.829-17.1-15.457c-4.38-6.426-4.942-13.555-5.4-16.471-.4-2.543,1.339-3.911,2.851-3.155-.455-3.15,2.029-3.048,3.155-2.749A2.854,2.854,0,0,1,204.392,236.22Z" transform="translate(-164.487 -186.157)" fill="#fcede3"/>
  <path id="Path_941" data-name="Path 941" d="M210.984,246.57c.939-3.965,1.773-9.043,1.773-9.043s-9.649-24.089-21.579-20.273a5.911,5.911,0,0,0-4.231,3.667,14.774,14.774,0,0,0-.917,3.69c-.14,2.968.711,5.81.68,7.206-.066,3.039-5.4,5.193-4.079,6.969.434.578,3.032.8,2.868,2.036-.121.9-1.071,1.249.031,2.2.261.273.749.533.659,1.014-.095.507-.649.548-.777,1.233-.156.839.415.877.725,1.057a1.813,1.813,0,0,1,.465,2.015c-.63,2.52.064,2.759,3.344,3.759,1.223.372,2.157.626,5.255,5.423,1.472,2.28.915,5.883.915,5.883l16.642-4.66S210.048,250.533,210.984,246.57Z" transform="translate(-128.227 -212.454)" fill="#fcede3"/>
  <path id="Path_942" data-name="Path 942" d="M182.512,223.46s-1.844-1.906-2.036-3.4c1.809.066,9.491-5.587,16.12-5.025,8.057.68,14.881,3.4,16.2,11.749.768,4.84-2.057,13.743-3.461,16.388a75.288,75.288,0,0,0-3.079,7.2,5.54,5.54,0,0,1-2.6-2.368,14.65,14.65,0,0,1-1.635-5.677c1.342-3.055,2.7-6.746-.7-7.21-2.593-.353-4.762,3.814-4.762,3.814l-1.192-.68s1.223-7.146-2.6-9.588C192.847,225.788,195.25,220.306,182.512,223.46Z" transform="translate(-123.792 -214.992)" fill="url(#linear-gradient)"/>
  <path id="Path_943" data-name="Path 943" d="M154.573,290.744s2.783,13.2,7.582,21.107c2.686,4.421,5.717,6.907,7.867,9.322s4.217,3.532,10.472,6.857c10.507,5.584,47.481,23.975,47.481,23.975l4.752-10.541a104.194,104.194,0,0,0-16.841-21.987c-5.942-6.018-10.775-9.818-14.627-11.908-4.307-2.337-11.5-2.712-12.636-6.08-2.15-6.376-13.238-29.794-13.238-29.794Z" transform="translate(-82.193 -137.292)" fill="#fcede3"/>
  <path id="Path_944" data-name="Path 944" d="M174.287,305.743l14.1,11.553s10.488-2.178,14.075-5.5a66.88,66.88,0,0,0,9.77-11.387s-1.382-18.474-3.788-32.466C196.741,264.392,174.287,305.743,174.287,305.743Z" transform="translate(-108.428 -142.736)" fill="url(#linear-gradient-2)"/>
  <path id="Path_945" data-name="Path 945" d="M212.563,277.844s-8.7,5.293-11.135,10.614c-2.638,5.774-2.932,9.924-2.989,16.033-.054,5.93,2.152,16.649-3.385,31.174-2.1,5.506-11.408,31.475-11.408,31.475l10.289,8.294s23.269-26.751,26.628-36.142c4.956-13.859,1.176-15.7,4.167-21.821s19.906-24.821,19.906-24.821S215.891,286.237,212.563,277.844Z" transform="translate(-163.011 -128.869)" fill="#fcede3"/>
  <path id="Path_946" data-name="Path 946" d="M180.725,261.709s-3.539.87-3.79,4.229c-.308,4.077.756,9.943,4.2,18.021,2.937,6.9.566,13.684-1.941,19.187a50.554,50.554,0,0,0-4.3,18.761s5.5,2.742,12.636,5.843c8.2,3.565,21.861,3.555,21.861,3.555s12.83-17.085,24.591-30.553c10.773-12.335,7.362-33.686,7.362-33.686Z" transform="translate(-139.457 -150.978)" fill="url(#linear-gradient-3)"/>
  <path id="Path_947" data-name="Path 947" d="M200.936,238.672c-3.183,1.424-7.729,3.34-11.536,7.841-2.721,3.216-3.484,12-5.646,20.209-1.1,4.167-15.438,29-13.326,47.559,9.934,8.478,30.875,5.928,41.107,5.371,11.685-.635,24.556-10.872,24.556-10.872a170.867,170.867,0,0,0-7.175-28.555c-1.792-5.338-2.835-16.58-1.861-18.526,2.318.853,6.3,4.48,6.3,4.48a73.651,73.651,0,0,1,13.124-13.726c-4.33-4.833-7.509-7.383-13.423-12.605-7.974-7.042-13.556-7.13-18.1-7.037-2.773,1.012-8.751,6.435-11.586,7.661C201.358,241.338,200.936,240.137,200.936,238.672Z" transform="translate(-133.019 -190.599)" fill="url(#linear-gradient-4)"/>
  <path id="Path_948" data-name="Path 948" d="M190.037,246.357s-8.218-4.032-11.221-1.569c-2.8,2.3-.014,6.127,1.714,11.515,1.59,4.966,9.467,6.627,11.368,9.218C190.232,257.715,190.037,246.357,190.037,246.357Z" transform="translate(-96 -175.257)" fill="url(#linear-gradient-5)"/>
  <path id="Path_949" data-name="Path 949" d="M220.366,252.38c-1.927-3.52-8.5-10.6-8.5-10.6a23.3,23.3,0,0,0-6.364,5.253,49.737,49.737,0,0,0-4.76,6.845l3.119,2.835s-13.541,8.993-20.636,12.221c-3.807,1.73-7.571.905-9.81,1.294-2.854.5-9.244,2.475-6.921,5.525-.512,1.38-.09,3.392,1.567,3.861a2.106,2.106,0,0,0,1.185,3.354c-.619,2.375,1.353,3.463,5.426,2.162,5.2-1.662,5.992-.533,16.966-5.693,11.685-5.494,14.833-5.091,20.228-6.729,3.987-1.206,9.18-4.008,11.617-9.249C224.877,260.465,222.082,255.508,220.366,252.38Z" transform="translate(-100.415 -178.293)" fill="#fcede3"/>
  <g id="Group_916" data-name="Group 916" transform="translate(0 226.679)">
    <path id="Path_950" data-name="Path 950" d="M240.335,319.44c-1.787-.668-3.363,2.043-4.852,2.7s-4.468-2.977-6.286-3.97a3.618,3.618,0,0,0-.638-.235l.1-.206a9.3,9.3,0,0,0-1.986-3.823,12.872,12.872,0,0,0-4.631-3.143c-2.022-1.083-1.074,4.375-.427,7.348-2.017,1.28-8.746,5.454-11.42,6.013a14.935,14.935,0,0,1-6.748-.545,34.081,34.081,0,0,0-2.316,3.472c-1.325,2.387.446,3.525,2.6,4.847s6.615,4.632,12.406,5.459,8.983-1.654,10.2-1.157,2.174,2.645,2.174,2.645,3.882.22,8.139,0c2.9-.149,5.459-4.328,5.293-5.141S241.584,319.907,240.335,319.44Z" transform="translate(-200.672 -310.627)" fill="url(#linear-gradient-5)"/>
    <path id="Path_952" data-name="Path 952" d="M209.825,316.4s1.579,1.055,4.143,2.811a14.633,14.633,0,0,0,3.906,2.11,30.84,30.84,0,0,0-3.906-3.826c-.64-.51-2.776-1.742-2.776-1.742Z" transform="translate(-198.302 -303.605)" fill="#fff"/>
    <path id="Path_953" data-name="Path 953" d="M208.362,315.524s3.017,2.017,4.025,2.688c1.086.725,3.468,2.894,3.468,2.894a26.975,26.975,0,0,0-2.821-4.141,25.773,25.773,0,0,0-3.548-2.1Z" transform="translate(-192.814 -304.82)" fill="#fff"/>
    <path id="Path_954" data-name="Path 954" d="M206.972,314.722s3.017,2.015,4.025,2.685c1.086.725,3.453,2.9,3.453,2.9a26.6,26.6,0,0,0-2.806-4.143,25.694,25.694,0,0,0-3.551-2.1Z" transform="translate(-188.115 -305.919)" fill="#fff"/>
  </g>
  <g id="Group_917" data-name="Group 917" transform="translate(135.125 198.333)">
    <path id="Path_955" data-name="Path 955" d="M174.937,300.079c-.83-.009-14.158-2.23-14.833-1.081-.969,1.645,1.837,3.354,2.171,4.949s-3.852,3.738-5.205,5.309a3.272,3.272,0,0,0-.365.574l-.18-.14a9.3,9.3,0,0,0-4.157,1.135,12.853,12.853,0,0,0-4.046,3.866c-1.489,1.749,4.048,1.97,7.092,1.965.825,2.242,3.489,9.7,3.472,12.43a14.971,14.971,0,0,1-1.955,6.485,34.022,34.022,0,0,0,2.906,2.994c2.053,1.8,3.539.308,5.286-1.517s5.923-5.492,7.95-10.977.277-9.13,1.017-10.213,3.046-1.564,3.046-1.564,1.033-3.75,1.714-7.957C179.313,303.468,175.767,300.088,174.937,300.079Z" transform="translate(-148.072 -298.668)" fill="url(#linear-gradient-5)"/>
    <path id="Path_957" data-name="Path 957" d="M154.229,314.561s1.363-1.32,3.619-3.456a14.734,14.734,0,0,0,2.887-3.375,30.747,30.747,0,0,0-4.563,3.013c-.635.519-2.292,2.347-2.292,2.347Z" transform="translate(-143.686 -286.25)" fill="#fff"/>
    <path id="Path_958" data-name="Path 958" d="M154.57,312.321l3.475-3.368c.936-.91,3.56-2.78,3.56-2.78a26.928,26.928,0,0,0-4.643,1.884,25.873,25.873,0,0,0-2.8,3.027Z" transform="translate(-145.221 -288.383)" fill="#fff"/>
    <path id="Path_959" data-name="Path 959" d="M155.061,310.779l3.475-3.368c.936-.908,3.558-2.766,3.558-2.766a26.746,26.746,0,0,0-4.641,1.87,25.849,25.849,0,0,0-2.8,3.029Z" transform="translate(-146.873 -290.477)" fill="#fff"/>
  </g>
  <path id="Path_961" data-name="Path 961" d="M184.956,226.988s1.827-3.446,3.105-2.927,1.147,2.56,1.147,2.56-1.017-1.069-1.977-.6-.123,1.47,0,1.875c.4,1.318-1.36,1.984-1.36,1.984a7.765,7.765,0,0,0,.147-1.984C185.89,227.175,184.956,226.988,184.956,226.988Z" transform="translate(-110.695 -202.639)" fill="url(#linear-gradient-8)"/>
  <path id="Path_962" data-name="Path 962" d="M201.222,289.571s-1.858,2.977-1.607,4.183c.185.886,2.131,2.927,2.131,2.927Z" transform="translate(-157.919 -112.8)" opacity="0.05"/>
  <path id="Path_968" data-name="Path 968" d="M193.8,226.1a2.969,2.969,0,0,0,.666.806c.51.469.936,0,.51-.4A1.951,1.951,0,0,0,193.8,226.1Z" transform="translate(-137.602 -199.769)" fill="#ffa08d"/>
  <path id="Path_972" data-name="Path 972" d="M193.314,229.424c.761.043,1.524.431,2.038.372.268-.033.837-.514.126-1.225s-2.811-.768-2.811-.768S193.838,228.689,193.314,229.424Z" transform="translate(-135.58 -197.439)" fill="url(#linear-gradient-9)"/>
</svg>
