<svg xmlns="http://www.w3.org/2000/svg" xmlns:xlink="http://www.w3.org/1999/xlink" width="165.646" height="254.543" viewBox="0 0 165.646 254.543">
  <defs>
    <linearGradient id="linear-gradient" x1="0.5" x2="0.5" y2="1" gradientUnits="objectBoundingBox">
      <stop offset="0" stop-color="#fdbb90"/>
      <stop offset="1" stop-color="#e85d7c"/>
    </linearGradient>
    <linearGradient id="linear-gradient-2" x1="6.836" x2="6.836" xlink:href="#linear-gradient"/>
    <linearGradient id="linear-gradient-3" x1="5.775" x2="5.775" y2="1" gradientUnits="objectBoundingBox">
      <stop offset="0" stop-color="#6d89fc"/>
      <stop offset="1" stop-color="#8ab6fd"/>
    </linearGradient>
    <linearGradient id="linear-gradient-4" x1="0.5" y1="0" x2="0.5" y2="1" xlink:href="#linear-gradient-3"/>
    <linearGradient id="linear-gradient-7" x1="82.475" y1="1" x2="82.475" gradientUnits="objectBoundingBox">
      <stop offset="0" stop-color="#efa08b"/>
      <stop offset="0.278" stop-color="#e6917d"/>
      <stop offset="0.658" stop-color="#df8370"/>
      <stop offset="0.995" stop-color="#dd7f6c"/>
    </linearGradient>
  </defs>
  <g id="man-medium" transform="translate(0 0)">
    <path id="Path_973" data-name="Path 973" d="M338.158,238.433c1.805-.431,4.142,2.457,4.21,5.66s-1.182,5.511-.244,6.987,12.612,9.684,12.612,9.684l-2.708,12.941s-12.238-8.044-16.747-14.659c-4.372-6.414-5.255-10.359-5.708-13.268-.4-2.538,1.185-3.466,2.692-2.713-.453-3.144,1.723-2.886,2.848-2.587C336.035,237.111,338.158,238.433,338.158,238.433Z" transform="translate(-294.147 -183.604)" fill="#fcede3"/>
    <path id="Path_974" data-name="Path 974" d="M347.355,246c.936-3.957,1.41-7.817,1.41-7.817s-7.921-24.592-19.827-20.779a5.89,5.89,0,0,0-4.225,3.661,14.7,14.7,0,0,0-.917,3.684c-.14,2.962.711,5.8.68,7.191-.066,3.033-5.4,5.184-4.071,6.954.431.581,3.026.806,2.862,2.033-.121.9-1.071,1.246.031,2.2-.735,1.1-.017,1.4.6,1.763.372.216,1.1.3.765,1.339-.682,2.087-.249,3.353,1.54,3.748a8.578,8.578,0,0,1,6.5,4.445c1.313,2.369,1.1,11.048,1.1,11.048l14.948-6.843S346.421,249.953,347.355,246Z" transform="translate(-266.097 -212.606)" fill="#fcede3"/>
    <path id="Path_975" data-name="Path 975" d="M320.106,223.6s-1.841-1.905-2.033-3.4c1.805.064,9.475-5.578,16.093-5.018,8.039.68,14.28,6.675,14.91,11.525s-1.656,14.4-3.054,17.048-3.431,7.762-3.431,7.762a20.894,20.894,0,0,1-1.867-2.692c.116-1.156-.938-4.018-1.137-6.395,1.339-3.049,2.7-6.734-.7-7.2-2.59-.353-4.755,3.808-4.755,3.808l-1.187-.68s1.22-7.134-2.6-9.57C330.422,225.922,332.822,220.448,320.106,223.6Z" transform="translate(-261.49 -215.145)" fill="#0a0a0d"/>
    <path id="Path_976" data-name="Path 976" d="M291.664,290.783s5.625,9.553,10.418,17.443c2.68,4.412,9.558,9.639,18,13.832,10.636,5.286,44.859,29.875,44.859,29.875l4.743-10.522s-13.093-19.993-30.84-35.159c-3.718-3.177-9.845-2.763-12.93-9.487-2.8-6.106-13.47-25-13.47-25Z" transform="translate(-219.415 -137.604)" fill="#fcede3"/>
    <path id="Path_977" data-name="Path 977" d="M311.272,303.808l10.956,14.78a107.427,107.427,0,0,0,11.036-7.5c5.729-4.843,11.591-14.385,11.591-14.385s-6.009-17.23-9.937-30.112C324.5,265.649,311.272,303.808,311.272,303.808Z" transform="translate(-241.049 -144.717)" fill="url(#linear-gradient)"/>
    <path id="Path_978" data-name="Path 978" d="M352.94,277.907s-5.838,6.71-8.267,12.022a45.083,45.083,0,0,0-3.966,17.912c0,5.916.282,13.283-5.243,27.781-2.1,5.5-11.39,31.418-11.39,31.418l10.274,8.281s12.88-19.884,21.827-38.092c6.48-13.186,4.4-18.1,7.383-24.215s13.394-19.945,13.394-19.945S356.262,286.285,352.94,277.907Z" transform="translate(-303.477 -129.199)" fill="#fcede3"/>
    <path id="Path_979" data-name="Path 979" d="M325.371,268.273s4.822,8.454,1.557,13.567c-6.843,10.7-12.913,27.082-12.913,27.082a56.978,56.978,0,0,0,13.013,8.262,44.607,44.607,0,0,0,15.346,3.682s20.9-25.625,25.589-32.418c6.968-10.091,1.194-23.537,1.194-23.537Z" transform="translate(-274.093 -146.996)" fill="url(#linear-gradient-2)"/>
    <path id="Path_980" data-name="Path 980" d="M325.825,238.393c-3.177,1.419-8.885,3.727-12.451,8.407-3.587,4.708-2.042,14.683-3.137,21.744-1.737,11.183-3.4,18.905-2.841,30.262a83.637,83.637,0,0,0,2.092,13.451s17.427,2.362,24.976,2.362a42.9,42.9,0,0,0,20.756-5.724s-1.3-5.781-6.876-22.417c-1.787-5.329,2.765-22.583,3.736-24.525,2.313.853,6.284,4.471,6.284,4.471s5.677-9.129,13.1-14.842a190.1,190.1,0,0,0-15.946-15.237c-5.646-4.926-10.984-3.322-15.519-3.229-2.767,1.012-8.736,6.426-11.565,7.646C326.427,241.627,325.825,239.853,325.825,238.393Z" transform="translate(-258.211 -190.978)" fill="url(#linear-gradient-3)"/>
    <path id="Path_981" data-name="Path 981" d="M329.166,246.464s-8.205-4.026-11.2-1.566c-2.8,2.291-3.187,6.118-1.462,11.494,1.59,4.957,6.7,6.615,8.594,9.2C325.52,258.214,329.166,246.464,329.166,246.464Z" transform="translate(-235.297 -175.491)" fill="url(#linear-gradient-4)"/>
    <path id="Path_982" data-name="Path 982" d="M358.884,253.813c-1.924-3.514-9.712-12.61-9.712-12.61A36.92,36.92,0,0,0,343,246.937a69.3,69.3,0,0,0-5.523,7.968l3.113,2.831s-13.517,8.975-20.6,12.2c-3.8,1.727-7.556.9-9.793,1.294-2.848.5-9.226,2.469-6.909,5.513-.512,1.377-.09,3.386,1.566,3.855a2.1,2.1,0,0,0,1.182,3.348c-.618,2.372.915,2.924,4.98,1.625,5.194-1.659,6.175-.292,11.16-4.028.614-.417,22.957-7.518,25.156-9.124,3.357-2.452,10.565-6.449,12.524-7.7C362.628,262.942,360.6,256.938,358.884,253.813Z" transform="translate(-237.324 -179.461)" fill="#fcede3"/>
    <g id="Group_919" data-name="Group 919" transform="translate(0 226.273)">
      <path id="Path_983" data-name="Path 983" d="M375.252,318.179c-1.32.163-1.32,3.3-2.805,3.962s-4.459-2.971-6.274-3.962a3.612,3.612,0,0,0-.637-.237l.1-.2a9.306,9.306,0,0,0-1.981-3.817,12.841,12.841,0,0,0-4.625-3.137c-2.019-1.083-1.071,4.367-.426,7.336-2.014,1.275-8.731,5.445-11.4,6a14.927,14.927,0,0,1-6.736-.545,34.071,34.071,0,0,0-2.313,3.469c-1.32,2.379.445,3.516,2.592,4.838s6.606,4.623,12.382,5.447,8.968-1.652,10.181-1.156,2.168,2.642,2.168,2.642,3.876.22,8.125,0c2.9-.149,5.45-4.319,5.284-5.132S376.574,318.013,375.252,318.179Z" transform="translate(-337.698 -310.644)" fill="url(#linear-gradient-4)"/>
      <path id="Path_985" data-name="Path 985" d="M346.838,316.409s1.576,1.052,4.137,2.805a14.707,14.707,0,0,0,3.9,2.106,30.632,30.632,0,0,0-3.9-3.819c-.64-.509-2.772-1.741-2.772-1.741Z" transform="translate(-335.335 -303.638)" fill="#fff"/>
      <path id="Path_986" data-name="Path 986" d="M345.376,315.535l4.016,2.682c1.085.723,3.464,2.888,3.464,2.888a26.922,26.922,0,0,0-2.817-4.135,25.87,25.87,0,0,0-3.542-2.095Z" transform="translate(-329.855 -304.848)" fill="#fff"/>
      <path id="Path_987" data-name="Path 987" d="M343.989,314.731s3.011,2.014,4.016,2.685c1.085.723,3.447,2.888,3.447,2.888a26.548,26.548,0,0,0-2.8-4.135,25.618,25.618,0,0,0-3.545-2.095Z" transform="translate(-325.165 -305.945)" fill="#fff"/>
    </g>
    <g id="Group_920" data-name="Group 920" transform="translate(134.883 197.939)">
      <path id="Path_988" data-name="Path 988" d="M311.991,300.132c-.829-.009-15.69-2.369-15.808-1.042s2.834,3.312,3.165,4.9-3.843,3.732-5.2,5.3a3.521,3.521,0,0,0-.363.573l-.18-.137a9.288,9.288,0,0,0-4.149,1.133,12.822,12.822,0,0,0-4.04,3.857c-1.486,1.746,4.042,1.967,7.08,1.962.822,2.239,3.483,9.684,3.466,12.408a14.913,14.913,0,0,1-1.955,6.471,34.342,34.342,0,0,0,2.9,2.99c2.05,1.794,3.533.306,5.277-1.514s5.912-5.48,7.935-10.956.277-9.115,1.016-10.2,3.04-1.564,3.04-1.564,1.031-3.741,1.711-7.942C316.358,303.516,312.818,300.142,311.991,300.132Z" transform="translate(-285.172 -298.685)" fill="url(#linear-gradient-4)"/>
      <path id="Path_990" data-name="Path 990" d="M291.319,314.57s1.362-1.317,3.616-3.45a14.7,14.7,0,0,0,2.881-3.369,30.8,30.8,0,0,0-4.556,3.007c-.633.519-2.286,2.343-2.286,2.343Z" transform="translate(-280.797 -286.271)" fill="#fff"/>
      <path id="Path_991" data-name="Path 991" d="M291.661,312.333l3.469-3.362c.933-.907,3.554-2.775,3.554-2.775a26.974,26.974,0,0,0-4.637,1.881,25.766,25.766,0,0,0-2.794,3.023Z" transform="translate(-282.328 -288.4)" fill="#fff"/>
      <path id="Path_992" data-name="Path 992" d="M292.151,310.794l3.469-3.362c.936-.907,3.552-2.76,3.552-2.76a26.59,26.59,0,0,0-4.632,1.867,25.637,25.637,0,0,0-2.8,3.021Z" transform="translate(-283.98 -290.488)" fill="#fff"/>
    </g>
    <path id="Path_994" data-name="Path 994" d="M322,227.122s1.827-3.44,3.1-2.921,1.147,2.554,1.147,2.554-1.014-1.066-1.971-.6-.126,1.467,0,1.874c.4,1.313-1.36,1.981-1.36,1.981a7.764,7.764,0,0,0,.147-1.983C322.938,227.307,322,227.122,322,227.122Z" transform="translate(-247.877 -202.816)" fill="url(#linear-gradient-7)"/>
    <path id="Path_996" data-name="Path 996" d="M337.792,286.323s-1.855,2.971-1.6,4.175c.182.884,2.128,2.921,2.128,2.921Z" transform="translate(-293.49 -117.675)" opacity="0.15"/>
    <path id="Path_1002" data-name="Path 1002" d="M330.838,226.238a2.928,2.928,0,0,0,.666.806c.509.469.934,0,.509-.4A1.951,1.951,0,0,0,330.838,226.238Z" transform="translate(-274.739 -199.953)" fill="#ffa08d"/>
    <path id="Path_1003" data-name="Path 1003" d="M329.664,228.021s1.651.72,2.329.381c.41-.2.749-.417.043-.4C330.936,228.025,329.664,228.021,329.664,228.021Z" transform="translate(-272.214 -197.542)" fill="#ffa08d"/>
  </g>
</svg>
