<svg xmlns="http://www.w3.org/2000/svg" xmlns:xlink="http://www.w3.org/1999/xlink" width="210.606" height="267.533" viewBox="0 0 210.606 267.533"><defs><linearGradient id="a" x1="0.5" x2="0.5" y2="1" gradientUnits="objectBoundingBox"><stop offset="0" stop-color="#6d89fc"/><stop offset="1" stop-color="#8ab6fd"/></linearGradient><linearGradient id="d" x1="0.5" x2="0.5" y2="1" gradientUnits="objectBoundingBox"><stop offset="0" stop-color="#fdbb90"/><stop offset="1" stop-color="#e85d7c"/></linearGradient><linearGradient id="o" x1="0.5" x2="0.5" y2="1" gradientUnits="objectBoundingBox"><stop offset="0" stop-color="#f6f8ff"/><stop offset="0.647" stop-color="#fef4eb"/><stop offset="1" stop-color="#fef4eb"/></linearGradient></defs><path d="M229.854,135.92l-4.589,48.732,16.827.874,1.311-45.891Z" transform="translate(-160.498 76.325)" fill-rule="evenodd" fill="url(#a)"/><path d="M227.992,135.92l-.874,9.616c2.4,2.622,7.429,4.589,13.984,5.9l.437-11.8Z" transform="translate(-158.636 76.325)" fill="#8686d4" fill-rule="evenodd"/><path d="M215.678,157.377c-2.841,3.933-5.9,12.238-3.5,16.39h20.542a9.917,9.917,0,0,1,1.748-5.026c1.53-1.967,14.86-1.967,16.39,0a9.918,9.918,0,0,1,1.748,5.026h8.524c2.185-4.152-.655-12.457-3.717-16.39-3.715-5.463-37.8-5.463-41.739,0Z" transform="translate(-174.513 93.766)" fill-rule="evenodd" fill="url(#a)"/><path d="M221.994,173.726a9.917,9.917,0,0,1,1.748-5.026c1.529-1.967,14.86-1.967,16.39,0a9.917,9.917,0,0,1,1.748,5.026H250.4c2.185-4.152-.655-12.457-3.717-16.39-2.185-3.059-13.984-4.37-24.693-3.933Z" transform="translate(-163.784 93.807)" fill-rule="evenodd" fill="url(#a)"/><path d="M221.371,154.183c-.874,6.337.218,18.792,4.589,22.945,5.9,5.463,24.04,1.53,27.1-5.9,2.4-5.681-1.967-17.48-5.465-22.945-4.152-6.555-25.13-1.967-26.223,5.9Z" transform="translate(-164.69 85.598)" fill-rule="evenodd" fill="url(#d)"/><path d="M243.989,156.305a8.895,8.895,0,0,1-14.2,10.709,9.039,9.039,0,0,1,1.748-12.675,8.818,8.818,0,0,1,12.457,1.967Z" transform="translate(-157.806 93.09)" fill-rule="evenodd" fill="url(#a)"/><path d="M238.913,154.343l2.841,3.934-9.615,6.993-2.841-3.933Z" transform="translate(-156.446 94.834)" fill="#d2d9f1" fill-rule="evenodd"/><path d="M270.209,135.92l4.589,48.732-16.827.874-1.311-45.891Z" transform="translate(-128.957 76.325)" fill-rule="evenodd" fill="url(#a)"/><path d="M270.207,135.92l.874,9.616c-2.4,2.622-7.429,4.589-13.984,5.9l-.437-11.8Z" transform="translate(-128.957 76.325)" fill="#8686d4" fill-rule="evenodd"/><path d="M300.648,157.377c2.841,3.933,5.9,12.238,3.5,16.39H283.6a9.918,9.918,0,0,0-1.748-5.026c-1.53-1.967-14.86-1.967-16.39,0a9.917,9.917,0,0,0-1.748,5.026h-8.522c-2.187-4.152.656-12.457,3.715-16.39,3.715-5.463,37.806-5.463,41.739,0Z" transform="translate(-131.206 93.766)" fill-rule="evenodd" fill="url(#a)"/><path d="M283.6,173.726a9.917,9.917,0,0,0-1.748-5.026c-1.53-1.967-14.86-1.967-16.39,0a9.916,9.916,0,0,0-1.748,5.026h-8.522c-2.187-4.152.656-12.457,3.715-16.39,2.185-3.059,13.984-4.37,24.693-3.933Z" transform="translate(-131.206 93.807)" fill-rule="evenodd" fill="url(#a)"/><path d="M285.967,154.183c.874,6.337-.219,18.792-4.807,22.945-5.681,5.463-23.819,1.53-26.88-5.9-2.4-5.681,1.969-17.48,5.465-22.945,4.152-6.555,25.13-1.967,26.223,5.9Z" transform="translate(-132.042 85.598)" fill-rule="evenodd" fill="url(#d)"/><path d="M255.753,156.305a9.041,9.041,0,0,0,1.966,12.457,8.778,8.778,0,0,0,12.455-1.748,8.983,8.983,0,1,0-14.421-10.709Z" transform="translate(-131.546 93.09)" fill-rule="evenodd" fill="url(#a)"/><path d="M258.3,154.343l-2.841,3.934,9.4,6.993,3.06-3.933Z" transform="translate(-130.162 94.834)" fill="#d2d9f1" fill-rule="evenodd"/><path d="M220.358,107.479c-10.272,17.48-17.919,53.1-1.75,67.961,20.76,19.012,105.769,19.012,126.529,0,16.171-14.86,8.522-50.481-1.748-67.961-12.457-21.2-110.576-21.2-123.031,0Z" transform="translate(-176.569 31.779)" fill-rule="evenodd" fill="url(#d)"/><path d="M217.1,107.479a53.514,53.514,0,0,0-4.591,9.4,20.4,20.4,0,0,0,2.841,3.278c20.76,19.012,105.769,19.012,126.529,0a20.408,20.408,0,0,0,2.841-3.278c-1.53-3.5-3.059-6.555-4.589-9.4-12.457-21.2-110.576-21.2-123.031,0Z" transform="translate(-173.312 31.779)" fill-rule="evenodd" fill="url(#a)"/><path d="M240.038,97.83c-2.185,4.807-3.715,14.2-.219,18.138,4.37,5.244,22.508,5.244,26.878,0,3.5-3.933,1.967-13.331-.219-18.138-2.841-5.681-23.6-5.681-26.441,0Z" transform="translate(-147.955 33.778)" fill-rule="evenodd" fill="url(#a)"/><path d="M216.764,52.826c-11.8,25.13-20.323,76.265-1.967,97.462,23.6,27.1,120.846,27.1,144.447,0,18.357-21.2,9.835-72.332-1.967-97.462-14.2-30.376-126.308-30.376-140.513,0Z" transform="translate(-181.718 -30.043)" fill-rule="evenodd" fill="url(#a)"/><path d="M231.6,63.646a6.01,6.01,0,1,1,0,12.018,6.01,6.01,0,0,1,0-12.018Z" transform="translate(-160.06 3.716)" fill="#1a1a1a" fill-rule="evenodd"/><path d="M265.394,63.646a6.01,6.01,0,1,1-6.118,6.118,5.929,5.929,0,0,1,6.118-6.118Z" transform="translate(-126.329 3.716)" fill="#1a1a1a" fill-rule="evenodd"/><path d="M225.828,77.272a8.414,8.414,0,1,1-8.3,8.305,8.3,8.3,0,0,1,8.3-8.305Z" transform="translate(-168.274 17.405)" fill-rule="evenodd" opacity="0.65" fill="url(#o)"/><path d="M273.466,77.272a8.414,8.414,0,1,1-8.3,8.305,8.3,8.3,0,0,1,8.3-8.305Z" transform="translate(-120.415 17.405)" fill-rule="evenodd" opacity="0.65" fill="url(#o)"/><path d="M228.658,125.153a5.785,5.785,0,0,0,5.681-5.681,5.682,5.682,0,0,0-11.364,0,5.785,5.785,0,0,0,5.683,5.681Z" transform="translate(-162.799 54.093)" fill-rule="evenodd" fill="url(#o)"/><path d="M241.738,127.008a5.682,5.682,0,0,0,0-11.364,5.682,5.682,0,0,0,0,11.364Z" transform="translate(-149.656 55.955)" fill-rule="evenodd" fill="url(#o)"/><path d="M255.038,127.008a5.686,5.686,0,1,0-5.9-5.683,5.787,5.787,0,0,0,5.9,5.683Z" transform="translate(-136.514 55.955)" fill-rule="evenodd" fill="url(#o)"/><path d="M268.011,125.153a5.785,5.785,0,0,0,5.681-5.681,5.642,5.642,0,0,0-5.681-5.681,5.512,5.512,0,0,0-5.683,5.681,5.642,5.642,0,0,0,5.683,5.681Z" transform="translate(-123.263 54.093)" fill-rule="evenodd" fill="url(#o)"/><path d="M218.008,105.179l-20.542,44.58L213.2,156.1l16.171-43.05Z" transform="translate(-188.425 45.441)" fill-rule="evenodd" fill="url(#a)"/><path d="M209.795,105.179l-4.152,8.961c1.311,3.059,5.681,6.555,11.362,10.051l4.152-11.146Z" transform="translate(-180.211 45.441)" fill="#8686d4" fill-rule="evenodd"/><path d="M193.256,132.846c-.874,8.305,0,24.477,4.809,30.158,6.337,7.211,26,2.841,29.282-6.774,2.622-7.213-1.748-22.51-5.463-29.721-4.589-8.742-27.317-3.715-28.628,6.337Z" transform="translate(-192.957 62.354)" fill-rule="evenodd" fill="url(#d)"/><path d="M218.3,152.1a14.434,14.434,0,0,0,1.092,3.278c-.656,2.624-.874,5.465-.219,7.213,1.093,2.841,6.992,3.278,8.74.656,1.311-2.185,1.311-7.431.874-10.053v-.219a23.838,23.838,0,0,0-3.278-8.522,2.182,2.182,0,0,0-1.093-.874,7.4,7.4,0,0,0-3.5-1.53,39.6,39.6,0,0,0-10.49,1.093c-3.933.218-8.085.656-10.27,1.748a4.965,4.965,0,0,0-3.059,2.4,2.182,2.182,0,0,0-.874,1.093c-.655,2.185-1.311,6.555-.874,8.961v.219c.218,2.622,1.53,7.648,3.5,9.4,2.4,2.185,7.866.218,8.3-2.841.219-1.748-.874-4.589-2.185-6.774a20.025,20.025,0,0,0,.219-3.717,33.735,33.735,0,0,0,6.555-.874l6.557-.656Z" transform="translate(-190.686 82.431)" fill-rule="evenodd" fill="url(#a)"/><path d="M213.841,100.788c-3.5,2.841-8.522,9.4-8.3,13.547.437,5.465,11.144,11.8,15.951,9.616,3.935-1.748,7.213-9.616,7.868-13.986,1.093-5.026-11.364-12.457-15.516-9.177Z" transform="translate(-180.324 40.218)" fill-rule="evenodd" fill="url(#d)"/><path d="M288.953,105.179l20.323,44.58L293.761,156.1l-16.171-43.05Z" transform="translate(-107.93 45.441)" fill-rule="evenodd" fill="url(#a)"/><path d="M288.952,105.179l4.154,8.961c-1.311,3.059-5.683,6.555-11.364,10.051l-4.152-11.146Z" transform="translate(-107.93 45.441)" fill="#8686d4" fill-rule="evenodd"/><path d="M315.351,132.846c.874,8.305,0,24.477-4.807,30.158-6.339,7.211-26.006,2.841-29.284-6.774-2.622-7.213,1.748-22.51,5.463-29.721,4.591-8.742,27.317-3.715,28.628,6.337Z" transform="translate(-105.045 62.354)" fill-rule="evenodd" fill="url(#d)"/><path d="M289.628,152.1a14.438,14.438,0,0,1-1.094,3.278c.655,2.624.876,5.465.219,7.213-1.093,2.841-6.992,3.278-8.74.656-1.311-2.185-1.311-7.431-.874-10.053v-.219a23.838,23.838,0,0,1,3.277-8.522,2.183,2.183,0,0,1,1.093-.874,7.4,7.4,0,0,1,3.5-1.53,39.583,39.583,0,0,1,10.49,1.093c3.933.218,8.085.656,10.27,1.748a4.963,4.963,0,0,1,3.061,2.4,2.182,2.182,0,0,1,.874,1.093c.655,2.185,1.311,6.555.874,8.961v.219c-.219,2.622-1.748,7.648-3.5,9.4-2.4,2.185-7.866.218-8.3-2.841-.219-1.748.874-4.589,2.185-6.774a19.274,19.274,0,0,1-.437-3.717,33.88,33.88,0,0,1-6.337-.874l-6.555-.656Z" transform="translate(-106.637 82.431)" fill-rule="evenodd" fill="url(#a)"/><path d="M289.2,100.788c3.278,2.841,8.524,9.4,8.305,13.547-.437,5.465-11.146,11.8-16.171,9.616-3.715-1.748-6.994-9.616-7.868-13.986-.874-5.026,11.583-12.457,15.734-9.177Z" transform="translate(-112.114 40.218)" fill-rule="evenodd" fill="url(#d)"/></svg>